<ttFont>
        <CharString name=".notdef">
          -1200 -306 449 rmoveto
          574 vlineto
          183 -286 rlineto
          317 -549 rmoveto
          -389 hlineto
          195 354 rlineto
          389 vmoveto
          -195 355 rlineto
          389 hlineto
          112 -839 rmoveto
          -182 290 182 288 rlineto
          71 -1042 rmoveto
          46 0 36 15 26 29 25 29 13 30 0 30 rrcurveto
          1237 vlineto
          0 33 -13 31 -25 29 -26 29 -36 14 -46 0 rrcurveto
          -756 hlineto
          -45 0 -35 -14 -26 -28 -26 -29 -13 -31 0 -34 rrcurveto
          -1237 vlineto
          0 -30 13 -30 26 -29 25 -29 36 -15 45 0 rrcurveto
          endchar
        </CharString>
        <CharString name="A">
          0 766 532 rmoveto
          -332 hlineto
          -3 0 -3 2 -3 3 -3 3 -1 4 0 5 0 2 56 182 111 362 3 8 4 4 5 0 5 0 4 -4 3 -8 111 -362 56 -182 0 -2 0 -5 -1 -4 -3 -3 -3 -3 -3 -2 -3 0 rrcurveto
          283 -582 rmoveto
          34 0 28 12 22 23 22 23 11 26 0 28 0 11 -2 11 -3 10 rrcurveto
          -379 1221 rlineto
          -13 40 -23 32 -33 25 -34 25 -37 13 -42 0 -42 0 -37 -13 -34 -25 -33 -25 -23 -32 -13 -40 rrcurveto
          -379 -1221 rlineto
          -3 -10 -2 -11 0 -11 0 -28 11 -26 22 -23 22 -23 28 -12 34 0 27 0 24 7 20 15 20 15 14 19 8 24 rrcurveto
          85 266 rlineto
          4 11 7 6 9 0 rrcurveto
          462 hlineto
          9 0 7 -6 4 -11 rrcurveto
          85 -266 rlineto
          8 -24 14 -19 20 -15 20 -15 24 -7 27 0 rrcurveto
          endchar
        </CharString>
        <CharString name="B">
          0 638 200 rmoveto
          -225 hlineto
          -4 0 -4 2 -3 4 -4 4 -2 5 0 8 rrcurveto
          368 vlineto
          0 7 2 6 3 4 4 3 4 2 4 0 rrcurveto
          225 1 rlineto
          70 -4 56 -20 42 -38 41 -38 21 -42 0 -48 0 -61 -23 -53 -45 -44 -45 -44 -54 -22 -63 0 rrcurveto
          634 vmoveto
          -225 hlineto
          -4 0 -4 2 -4 3 -3 4 -2 6 0 7 rrcurveto
          321 vlineto
          0 7 2 6 3 4 4 3 4 2 4 0 rrcurveto
          225 hlineto
          48 0 41 -15 35 -31 35 -30 18 -40 0 -50 0 -50 -18 -46 -37 -41 -37 -41 -41 -21 -44 0 rrcurveto
          -1 -854 rmoveto
          85 0 77 20 70 40 70 41 55 53 41 67 41 67 21 74 0 81 0 130 -57 100 -114 68 -1 0 -3 1 -4 3 -4 2 -2 2 0 1 0 2 5 4 9 6 42 32 31 42 20 51 rrcurveto
          17 45 9 56 0 66 0 60 -18 59 -35 59 -35 59 -49 49 -61 40 -62 40 -70 20 -78 0 rrcurveto
          -353 hlineto
          -34 0 -28 -12 -23 -23 -23 -23 -11 -26 0 -30 rrcurveto
          -1212 vlineto
          0 -31 11 -26 23 -23 23 -23 28 -11 34 0 rrcurveto
          endchar
        </CharString>
        <CharString name="C">
          0 726 -50 rmoveto
          98 0 88 14 78 27 56 18 28 34 0 52 0 40 -12 30 -25 21 -17 15 -23 8 -29 0 -14 0 -12 -3 -11 -6 -41 -21 -66 -10 -91 0 -106 2 -86 46 -66 90 -67 90 -33 130 0 172 rrcurveto
          0 175 36 132 73 90 72 90 84 46 93 2 106 0 66 -7 27 -15 15 -7 13 -4 12 0 25 0 22 8 18 17 25 21 12 27 0 33 0 95 -116 48 -232 0 -177 0 -142 -70 -107 -139 rrcurveto
          -100 -136 -52 -184 -3 -230 0 -213 52 -178 103 -141 107 -139 142 -70 177 0 rrcurveto
          endchar
        </CharString>
        <CharString name="D">
          0 445 200 rmoveto
          -32 hlineto
          -4 0 -4 2 -4 4 -4 4 -2 6 0 7 rrcurveto
          954 vlineto
          0 7 2 6 4 3 4 4 4 2 4 0 51 0 47 -1 44 -3 44 -2 40 -8 37 -13 36 -13 34 -22 30 -30 25 -25 19 -35 13 -43 13 -44 8 -51 4 -60 4 -60 2 -65 0 -72 rrcurveto
          0 -164 -33 -116 -65 -69 -66 -69 -106 -34 -149 0 rrcurveto
          -220 vmoveto
          148 0 122 23 96 45 97 46 71 72 46 99 46 99 23 129 0 159 rrcurveto
          136 vlineto
          0 146 -22 119 -45 93 -45 94 -68 69 -91 44 -91 45 -113 22 -135 0 rrcurveto
          -200 hlineto
          -34 0 -28 -12 -23 -23 -23 -23 -11 -26 0 -30 rrcurveto
          -1212 vlineto
          0 -31 11 -26 23 -23 23 -23 28 -11 34 0 rrcurveto
          endchar
        </CharString>
        <CharString name="E">
          0 968 -20 rmoveto
          33 0 27 11 22 22 22 22 11 26 0 29 0 29 -11 26 -22 22 -22 22 -27 11 -33 0 rrcurveto
          -525 hlineto
          -4 0 -4 2 -4 4 -4 4 -2 5 0 7 rrcurveto
          346 vlineto
          0 7 2 6 4 3 4 4 4 2 4 0 rrcurveto
          468 hlineto
          33 0 27 11 22 22 22 22 11 26 0 29 0 29 -11 26 -22 22 -22 22 -27 11 -33 0 rrcurveto
          -468 hlineto
          -4 0 -4 2 -4 4 -4 4 -2 6 0 7 rrcurveto
          344 vlineto
          0 7 2 6 4 4 4 4 4 2 4 0 rrcurveto
          525 hlineto
          33 0 27 11 22 22 22 22 11 26 0 29 0 29 -11 26 -22 22 -22 22 -27 11 -33 0 rrcurveto
          -654 hlineto
          -34 0 -28 -11 -23 -23 -23 -23 -11 -26 0 -30 rrcurveto
          -1214 vlineto
          0 -30 11 -26 23 -23 23 -23 28 -11 34 0 rrcurveto
          endchar
        </CharString>
        <CharString name="F">
          0 310 -50 rmoveto
          33 0 27 11 22 22 22 22 11 26 0 29 rrcurveto
          508 vlineto
          0 7 2 6 4 3 4 4 4 2 4 0 rrcurveto
          460 hlineto
          33 0 27 11 22 22 22 22 11 26 0 29 0 29 -11 26 -22 22 -22 22 -27 11 -33 0 rrcurveto
          -460 hlineto
          -4 0 -4 2 -4 4 -4 4 -2 6 0 7 rrcurveto
          344 vlineto
          0 7 2 6 4 4 4 4 4 2 4 0 rrcurveto
          537 hlineto
          33 0 27 11 22 22 22 22 11 26 0 29 0 29 -11 26 -22 22 -22 22 -27 11 -33 0 rrcurveto
          -666 hlineto
          -34 0 -28 -11 -23 -23 -23 -23 -11 -26 0 -30 rrcurveto
          -1247 vlineto
          0 -29 11 -26 22 -22 22 -22 27 -11 33 0 rrcurveto
          endchar
        </CharString>
        <CharString name="G">
          0 606 -50 rmoveto
          154 0 130 58 103 116 27 31 14 38 0 44 rrcurveto
          448 vlineto
          0 18 -6 16 -13 14 -12 13 -17 7 -21 0 rrcurveto
          -319 hlineto
          -28 0 -26 -10 -22 -19 -22 -19 -11 -25 0 -31 0 -36 12 -28 24 -22 24 -22 26 -11 28 0 rrcurveto
          150 hlineto
          10 0 5 -7 0 -15 rrcurveto
          -238 vlineto
          0 -17 -6 -14 -12 -10 -51 -39 -58 -19 -63 0 -98 0 -72 40 -47 79 -47 80 -25 109 -3 139 rrcurveto
          167 vlineto
          0 71 9 68 18 66 38 160 83 80 128 0 100 0 68 -64 36 -127 15 -54 37 -27 59 0 31 0 25 11 21 21 21 22 11 26 0 32 0 8 -2 12 -5 14 -59 231 -139 115 -219 0 rrcurveto
          -135 0 -102 -36 -71 -71 -128 -125 -66 -187 -3 -248 rrcurveto
          -165 vlineto
          2 -109 19 -105 36 -102 36 -102 53 -85 73 -66 72 -66 94 -33 116 0 rrcurveto
          endchar
        </CharString>
        <CharString name="H">
          0 950 -50 rmoveto
          33 0 27 11 22 22 22 22 11 26 0 29 rrcurveto
          1280 vlineto
          0 29 -11 26 -22 22 -22 22 -27 11 -33 0 -33 0 -27 -11 -22 -22 -22 -22 -11 -26 0 -29 rrcurveto
          -507 vlineto
          0 -7 -2 -6 -4 -4 -4 -4 -4 -2 -4 0 rrcurveto
          -434 hlineto
          -4 0 -4 2 -3 4 -4 4 -2 5 0 8 rrcurveto
          507 vlineto
          0 29 -11 26 -23 22 -22 22 -28 11 -32 0 -33 0 -27 -11 -22 -22 -22 -22 -11 -26 0 -29 rrcurveto
          -1280 vlineto
          0 -29 11 -26 22 -22 22 -22 27 -11 33 0 32 0 28 11 22 22 23 22 11 26 0 29 rrcurveto
          508 vlineto
          0 7 2 6 3 4 4 3 4 2 4 0 rrcurveto
          434 hlineto
          4 0 4 -2 4 -4 4 -3 2 -6 0 -7 rrcurveto
          -508 vlineto
          0 -29 11 -26 22 -22 22 -22 27 -11 33 0 rrcurveto
          endchar
        </CharString>
        <CharString name="I">
          0 920 -20 rmoveto
          33 0 27 11 22 22 22 22 11 26 0 29 0 29 -11 26 -22 22 -22 22 -27 11 -33 0 rrcurveto
          -188 hlineto
          -3 0 -4 2 -4 4 -4 4 -2 6 0 7 rrcurveto
          954 vlineto
          0 7 2 6 4 3 4 4 3 2 4 0 rrcurveto
          188 hlineto
          33 0 27 11 22 22 22 22 11 26 0 29 0 29 -11 26 -22 22 -22 23 -27 11 -33 0 rrcurveto
          -640 hlineto
          -33 0 -27 -11 -22 -23 -22 -22 -11 -26 0 -29 0 -29 11 -26 22 -22 22 -22 27 -11 33 0 rrcurveto
          187 hlineto
          4 0 4 -2 4 -4 4 -3 2 -6 0 -7 rrcurveto
          -954 vlineto
          0 -7 -2 -6 -4 -4 -4 -4 -4 -2 -4 0 rrcurveto
          -187 hlineto
          -33 0 -27 -11 -22 -22 -22 -22 -11 -26 0 -29 0 -29 11 -26 22 -22 22 -22 27 -11 33 0 rrcurveto
          endchar
        </CharString>
        <CharString name="J">
          0 590 -50 rmoveto
          81 0 74 18 66 36 66 36 53 50 38 62 38 62 19 69 0 78 rrcurveto
          947 vlineto
          0 29 -11 26 -23 23 -23 23 -28 11 -34 0 rrcurveto
          -413 hlineto
          -33 0 -27 -11 -22 -22 -22 -22 -11 -26 0 -29 0 -28 11 -26 22 -23 22 -23 27 -11 33 0 rrcurveto
          285 hlineto
          4 0 4 -2 4 -3 3 -3 2 -6 0 -7 rrcurveto
          -817 vlineto
          0 -53 -19 -45 -37 -39 -24 -24 -26 -16 -27 -7 -28 -8 -36 -4 -45 0 -57 0 -46 13 -35 26 -35 26 -23 34 -12 41 -21 53 -38 26 -53 0 -34 0 -28 -11 -22 -23 -21 -23 -11 -26 0 -29 rrcurveto
          2 -68 36 -66 70 -65 51 -50 55 -33 59 -16 59 -16 66 -8 75 0 rrcurveto
          endchar
        </CharString>
        <CharString name="K">
          0 1002 -50 rmoveto
          33 0 28 11 22 23 21 22 11 25 0 28 0 17 -5 18 -9 17 rrcurveto
          -413 682 rlineto
          -3 4 -1 4 0 4 0 6 2 6 4 6 rrcurveto
          331 451 rlineto
          15 21 7 22 0 22 0 27 -10 26 -21 23 -21 23 -28 12 -34 0 -37 0 -30 -14 -25 -29 rrcurveto
          -403 -544 rlineto
          -4 -5 -4 -2 -4 0 -4 0 -4 2 -5 3 -4 4 -2 6 0 8 rrcurveto
          461 vlineto
          0 30 -11 26 -22 21 -22 22 -28 11 -32 0 -32 0 -28 -11 -22 -22 -22 -21 -11 -26 0 -30 rrcurveto
          -1281 vlineto
          0 -29 11 -25 22 -22 22 -22 27 -11 33 0 33 0 27 11 22 22 22 22 11 25 0 29 rrcurveto
          362 vlineto
          0 18 5 15 11 14 rrcurveto
          90 129 rlineto
          4 5 5 2 4 0 5 0 5 -4 5 -7 rrcurveto
          361 -586 rlineto
          24 -38 34 -19 44 0 rrcurveto
          endchar
        </CharString>
        <CharString name="L">
          0 982 -20 rmoveto
          32 0 27 11 21 22 22 22 11 26 0 28 -1 31 -11 26 -21 21 -20 22 -29 11 -35 0 rrcurveto
          -461 hlineto
          -17 0 -14 6 -12 13 -13 13 -6 17 0 20 rrcurveto
          1069 vlineto
          0 28 -10 25 -19 23 -20 23 -28 12 -37 1 -35 0 -29 -11 -21 -22 -21 -22 -10 -26 0 -29 rrcurveto
          -1201 vlineto
          0 -43 16 -38 31 -31 31 -31 39 -16 47 0 rrcurveto
          endchar
        </CharString>
        <CharString name="M">
          0 968 -50 rmoveto
          32 0 27 11 23 22 23 22 11 26 0 30 rrcurveto
          1260 vlineto
          0 34 -13 30 -26 26 -26 26 -32 13 -38 0 -28 0 -25 -7 -22 -15 -22 -14 -17 -20 -10 -24 rrcurveto
          -211 -550 rlineto
          -3 -9 -3 -5 -2 -3 -2 -3 -3 -1 -2 0 -5 0 -5 7 -5 13 rrcurveto
          -212 551 rlineto
          -10 24 -16 20 -22 14 -23 15 -25 7 -28 0 -37 0 -32 -13 -25 -26 -25 -26 -13 -30 0 -34 rrcurveto
          -1260 vlineto
          0 -30 11 -26 22 -22 22 -22 27 -11 33 0 32 0 27 11 22 22 23 22 11 26 0 30 rrcurveto
          833 vlineto
          0 1 -2 0 -3 0 -4 0 -2 1 -1 1 rrcurveto
          132 -348 rlineto
          11 -27 18 -20 24 -15 25 -15 26 -7 28 0 29 0 27 8 24 15 25 15 18 21 10 25 rrcurveto
          131 347 rlineto
          0 -1 -2 0 -3 0 -2 0 -1 0 0 1 -1 0 0 -1 0 -1 rrcurveto
          -833 vlineto
          0 -30 11 -26 22 -22 22 -22 27 -11 33 0 rrcurveto
          endchar
        </CharString>
        <CharString name="N">
          0 941 -50 rmoveto
          37 0 32 13 26 26 26 25 13 31 0 35 rrcurveto
          1260 vlineto
          0 30 -11 26 -22 21 -22 22 -28 11 -32 0 -32 0 -28 -11 -22 -22 -22 -21 -11 -26 0 -30 rrcurveto
          -880 vlineto
          0 -1 2 0 3 0 4 0 2 0 0 -1 rrcurveto
          -474 917 rlineto
          -30 50 -40 25 -52 0 -38 0 -32 -13 -26 -26 -26 -26 -13 -30 0 -34 rrcurveto
          -1260 vlineto
          0 -30 11 -26 22 -22 22 -22 27 -11 33 0 33 0 28 11 22 22 22 22 11 26 0 30 rrcurveto
          880 vlineto
          0 0 -2 0 -4 0 -3 0 -1 0 -1 1 rrcurveto
          473 -916 rlineto
          29 -51 41 -25 53 0 rrcurveto
          endchar
        </CharString>
        <CharString name="O">
          0 600 170 rmoveto
          -93 0 -67 58 -43 116 -35 94 -17 119 0 143 0 143 17 119 35 94 43 116 67 58 93 0 92 0 68 -59 43 -117 35 -95 17 -118 0 -141 0 -140 -17 -118 -35 -96 -42 -117 -68 -59 -93 0 rrcurveto
          -220 vmoveto
          156 0 117 59 79 119 89 134 44 190 0 248 0 61 -4 65 -7 68 -7 68 -13 66 -19 65 -20 65 -27 59 -36 53 -36 54 -46 43 -58 33 -57 33 -71 17 -83 0 -155 0 -117 -60 -79 -119 rrcurveto
          -90 -136 -45 -190 0 -245 0 -363 91 -233 183 -105 57 -33 70 -16 84 0 rrcurveto
          endchar
        </CharString>
        <CharString name="P">
          0 677 760 rmoveto
          -234 hlineto
          -4 0 -4 2 -4 4 -4 4 -2 6 0 7 rrcurveto
          394 vlineto
          0 7 2 6 4 3 4 4 4 2 4 0 rrcurveto
          234 hlineto
          32 0 30 -7 26 -15 27 -15 21 -22 17 -31 17 -30 8 -39 0 -47 0 -84 -18 -60 -35 -36 -36 -35 -42 -18 -47 0 rrcurveto
          -367 -810 rmoveto
          33 0 27 11 22 22 22 22 11 26 0 29 rrcurveto
          457 vlineto
          0 7 2 6 4 4 4 4 4 2 4 0 rrcurveto
          234 hlineto
          75 0 69 20 62 39 62 39 50 53 36 68 36 68 18 78 0 88 0 70 -10 59 -19 47 -19 48 -29 43 -40 38 -81 81 -97 41 -113 0 rrcurveto
          -363 hlineto
          -34 0 -28 -12 -23 -23 -23 -23 -11 -26 0 -30 rrcurveto
          -1246 vlineto
          0 -29 11 -26 22 -22 22 -22 27 -11 33 0 rrcurveto
          endchar
        </CharString>
        <CharString name="Q">
          0 600 170 rmoveto
          -93 0 -67 58 -43 116 -35 94 -17 119 0 143 0 143 17 119 35 94 43 116 67 58 93 0 92 0 68 -59 43 -117 35 -95 17 -118 0 -141 0 -140 -17 -118 -35 -96 -42 -117 -68 -59 -93 0 rrcurveto
          -220 vmoveto
          156 0 117 59 79 119 89 134 44 190 0 248 0 61 -4 65 -7 68 -7 68 -13 66 -19 65 -20 65 -27 59 -36 53 -36 54 -46 43 -58 33 -57 33 -71 17 -83 0 -155 0 -117 -60 -79 -119 rrcurveto
          -90 -136 -45 -190 0 -245 0 -363 91 -233 183 -105 57 -33 70 -16 84 0 rrcurveto
          386 -391 rmoveto
          33 0 27 12 23 23 22 23 11 25 0 27 0 21 -7 21 -13 19 -13 20 -19 14 -23 8 rrcurveto
          -390 142 rlineto
          -13 5 -13 3 -14 0 -33 0 -28 -12 -22 -23 -22 -23 -11 -25 0 -27 0 -21 7 -21 13 -18 13 -19 18 -15 22 -9 rrcurveto
          392 -142 rlineto
          13 -5 13 -3 14 0 rrcurveto
          endchar
        </CharString>
        <CharString name="R">
          0 638 770 rmoveto
          -224 hlineto
          -4 0 -4 2 -4 4 -4 4 -2 6 0 7 rrcurveto
          384 vlineto
          0 7 2 6 4 3 4 4 4 2 4 0 rrcurveto
          224 hlineto
          33 0 29 -7 27 -13 26 -14 22 -22 16 -30 17 -30 8 -40 0 -49 0 -49 -9 -42 -17 -33 -18 -34 -22 -25 -26 -16 -27 -17 -29 -8 -30 0 rrcurveto
          329 -820 rmoveto
          34 0 28 11 22 23 21 23 11 26 0 28 0 16 -4 16 -9 18 rrcurveto
          -282 442 rlineto
          -1 2 -1 4 0 4 0 11 4 7 9 5 46 20 42 29 37 39 38 38 29 46 22 54 22 54 11 61 0 67 0 75 -10 60 -19 45 -20 45 -29 42 -40 37 -80 81 -97 41 -113 0 rrcurveto
          -354 hlineto
          -33 0 -28 -12 -23 -23 -23 -23 -12 -26 0 -30 rrcurveto
          -1245 vlineto
          0 -31 11 -26 23 -22 22 -21 28 -11 34 0 31 0 27 11 22 22 22 22 11 26 0 30 rrcurveto
          466 vlineto
          0 7 2 6 4 4 4 4 4 2 4 0 rrcurveto
          109 hlineto
          5 0 4 -4 5 -7 rrcurveto
          330 -532 rlineto
          25 -38 33 -19 42 0 rrcurveto
          endchar
        </CharString>
        <CharString name="S">
          0 610 -50 rmoveto
          87 0 73 15 60 31 61 30 54 46 48 60 48 60 24 75 0 88 0 146 -74 118 -149 90 -54 32 -72 31 -91 32 -149 50 -75 80 -2 108 0 61 20 47 40 33 40 33 51 16 61 0 rrcurveto
          53 0 47 -10 40 -21 41 -20 26 -27 12 -31 21 -59 36 -29 53 0 68 0 34 36 0 72 0 11 -1 11 -3 12 -19 78 -47 65 -76 52 -75 52 -98 26 -120 0 -79 0 -71 -16 -63 -31 rrcurveto
          -63 -32 -53 -48 -41 -63 -42 -63 -21 -79 0 -97 0 -195 134 -144 268 -95 41 -14 41 -17 41 -21 93 -44 47 -55 0 -66 0 -76 -32 -55 -64 -34 -41 -21 -43 -11 -45 0 -97 2 -87 49 -77 96 rrcurveto
          -30 38 -34 19 -37 0 -34 0 -27 -12 -20 -23 -19 -23 -10 -28 0 -33 0 -14 3 -13 6 -12 28 -64 59 -62 88 -57 87 -57 97 -29 104 0 rrcurveto
          endchar
        </CharString>
        <CharString name="T">
          0 600 -50 rmoveto
          33 0 27 11 22 22 22 22 11 26 0 29 rrcurveto
          1117 vlineto
          0 7 2 6 4 4 4 4 4 2 4 0 rrcurveto
          247 hlineto
          32 0 28 11 22 22 22 21 11 26 0 29 0 29 -11 26 -22 22 -22 23 -27 11 -33 0 rrcurveto
          -760 hlineto
          -33 0 -27 -11 -22 -23 -22 -22 -11 -26 0 -29 0 -29 11 -26 22 -21 22 -22 28 -11 32 0 rrcurveto
          247 hlineto
          5 0 5 -2 3 -4 3 -3 2 -6 0 -8 rrcurveto
          -1117 vlineto
          0 -29 11 -26 22 -22 22 -22 27 -11 33 0 rrcurveto
          endchar
        </CharString>
        <CharString name="U">
          0 599 -50 rmoveto
          98 0 84 23 70 47 69 47 54 65 36 82 37 82 18 96 0 109 rrcurveto
          843 vlineto
          0 29 -11 26 -22 22 -22 22 -27 11 -33 0 -32 0 -28 -11 -22 -22 -23 -22 -11 -26 0 -29 rrcurveto
          -843 vlineto
          0 -64 -9 -57 -19 -50 -18 -50 -26 -38 -35 -27 -35 -27 -42 -13 -51 0 -51 0 -42 14 -34 28 -35 27 -26 39 -18 50 -19 50 -9 56 0 62 rrcurveto
          843 vlineto
          0 29 -11 26 -22 22 -22 22 -27 11 -33 0 -33 0 -27 -11 -22 -22 -22 -22 -11 -26 0 -29 rrcurveto
          -843 vlineto
          0 -109 18 -95 36 -83 37 -82 53 -65 69 -47 70 -47 84 -23 97 0 rrcurveto
          endchar
        </CharString>
        <CharString name="V">
          0 600 -33 rmoveto
          33 0 29 10 24 20 25 20 17 25 9 30 rrcurveto
          356 1258 rlineto
          1 9 1 9 0 7 0 28 -11 26 -21 23 -21 23 -28 12 -34 0 -27 0 -24 -8 -21 -15 -20 -16 -14 -20 -6 -24 rrcurveto
          -273 -985 rlineto
          1 3 1 1 3 0 4 0 2 -1 0 -2 rrcurveto
          -274 984 rlineto
          -7 24 -14 20 -20 16 -20 15 -23 8 -27 0 -30 0 -27 -11 -24 -21 -23 -22 -12 -26 0 -30 0 -10 116 -428 231 -847 10 -34 18 -26 26 -18 27 -18 31 -9 36 0 rrcurveto
          endchar
        </CharString>
        <CharString name="W">
          0 906 -50 rmoveto
          37 0 31 12 25 24 26 23 14 30 2 34 rrcurveto
          68 1268 rlineto
          0 29 -12 25 -23 22 -23 22 -28 11 -32 0 -32 0 -26 -10 -22 -21 -22 -21 -13 -25 -2 -30 rrcurveto
          -40 -869 rlineto
          0 1 2 0 5 0 4 0 2 -1 0 -1 rrcurveto
          -124 459 rlineto
          -8 25 -15 21 -23 16 -23 16 -26 8 -28 0 -28 0 -26 -8 -22 -16 -23 -16 -15 -20 -8 -24 rrcurveto
          -128 -460 rlineto
          0 1 2 0 5 0 6 0 3 0 0 0 rrcurveto
          -43 868 rlineto
          -2 30 -11 25 -22 21 -22 21 -26 10 -32 0 -32 0 -28 -11 -23 -21 -23 -21 -11 -25 0 -29 rrcurveto
          68 -1270 rlineto
          2 -34 13 -29 26 -24 26 -24 31 -12 36 0 30 0 26 8 23 16 22 17 17 21 10 27 rrcurveto
          188 635 rlineto
          0 -1 -3 -1 -6 0 -6 0 -3 1 0 2 rrcurveto
          188 -634 rlineto
          8 -26 16 -22 24 -17 23 -17 26 -9 30 0 rrcurveto
          endchar
        </CharString>
        <CharString name="X">
          0 961 -50 rmoveto
          35 0 28 12 21 24 21 24 11 26 0 28 0 17 -4 17 -9 18 rrcurveto
          -325 586 rlineto
          -1 2 -1 3 0 5 0 5 1 4 2 5 rrcurveto
          301 557 rlineto
          9 18 4 17 0 17 0 29 -11 26 -21 24 -21 24 -28 12 -35 0 -44 0 -35 -21 -26 -41 rrcurveto
          -238 -459 rlineto
          0 1 3 0 5 0 4 0 3 0 0 -1 rrcurveto
          -238 459 rlineto
          -25 41 -36 21 -46 0 -34 0 -28 -12 -22 -24 -21 -24 -11 -26 0 -29 0 -17 4 -17 9 -18 rrcurveto
          301 -557 rlineto
          2 -5 1 -4 0 -5 0 -5 -1 -3 -1 -2 rrcurveto
          -325 -585 rlineto
          -9 -18 -5 -18 0 -18 0 -29 11 -26 22 -23 23 -23 28 -12 35 0 43 0 34 20 26 41 rrcurveto
          264 505 rlineto
          -1 -2 -3 -1 -4 0 -4 0 -3 1 -1 2 rrcurveto
          261 -505 rlineto
          26 -41 35 -20 44 0 rrcurveto
          endchar
        </CharString>
        <CharString name="Y">
          0 601 -50 rmoveto
          33 0 27 11 21 22 22 22 11 26 0 30 rrcurveto
          632 vlineto
          0 11 3 11 6 11 rrcurveto
          315 562 rlineto
          9 18 5 18 0 17 0 28 -10 25 -21 22 -21 23 -27 11 -34 0 -21 0 -20 -5 -19 -10 -19 -9 -15 -14 -10 -18 rrcurveto
          -225 -404 rlineto
          -4 -6 -5 -3 -4 0 -5 0 -5 3 -4 6 rrcurveto
          -221 404 rlineto
          -23 37 -35 19 -48 0 -34 0 -27 -11 -21 -23 -21 -22 -11 -25 0 -27 0 -18 5 -18 10 -18 rrcurveto
          317 -564 rlineto
          7 -10 3 -13 0 -14 rrcurveto
          -626 vlineto
          0 -30 11 -26 22 -22 22 -22 28 -11 33 0 rrcurveto
          endchar
        </CharString>
        <CharString name="Z">
          0 940 -20 rmoveto
          33 0 27 11 22 22 22 22 11 26 0 29 0 30 -11 26 -22 21 -22 22 -28 11 -32 0 rrcurveto
          -483 hlineto
          -4 0 -4 2 -4 4 -3 4 -2 6 0 8 0 5 1 4 3 5 rrcurveto
          591 944 rlineto
          13 25 7 26 0 28 0 43 -16 38 -31 31 -31 31 -39 16 -46 0 rrcurveto
          -631 hlineto
          -31 0 -27 -11 -23 -22 -23 -22 -11 -26 0 -29 0 -30 11 -26 23 -22 23 -22 27 -11 31 0 rrcurveto
          483 hlineto
          5 0 5 -2 3 -4 4 -4 2 -5 0 -7 0 -5 -1 -4 -2 -4 rrcurveto
          -591 -943 rlineto
          -15 -25 -8 -27 0 -28 0 -43 16 -38 32 -32 32 -32 39 -16 47 0 rrcurveto
          endchar
        </CharString>
        <CharString name="a">
          0 485 185 rmoveto
          -95 0 -48 75 0 150 1 91 18 79 33 67 33 67 38 52 43 36 44 37 45 18 46 0 46 0 38 -28 30 -57 21 -40 11 -44 0 -46 0 -141 -29 -111 -58 -83 -58 -80 -72 -40 -87 -2 rrcurveto
          496 -235 rmoveto
          29 0 23 7 17 14 27 21 14 29 0 36 0 16 -4 14 -7 12 -41 59 -22 113 -1 167 0 221 9 185 19 148 0 32 -10 24 -20 17 -27 23 -28 12 -31 0 -65 0 -38 -30 -10 -59 rrcurveto
          0 -2 2 -1 5 0 0 0 0 0 -1 1 -50 59 -60 30 -70 2 -101 0 -89 -34 -78 -68 -77 -68 -63 -85 -49 -104 -49 -103 -25 -113 0 -124 0 -145 33 -112 65 -77 66 -78 89 -39 113 0 rrcurveto
          78 0 75 22 71 43 71 44 47 44 23 45 1 1 -1 0 -3 0 -5 0 0 -8 5 -17 30 -116 48 -58 65 0 rrcurveto
          endchar
        </CharString>
        <CharString name="ampersand">
          0 513 -54 rmoveto
          103 0 98 35 95 69 94 69 75 90 57 111 57 111 28 99 0 88 0 24 -11 24 -21 23 -21 23 -32 11 -41 0 -65 0 -41 -37 -15 -74 -27 -119 -46 -98 -65 -78 -73 -85 -74 -42 -75 0 rrcurveto
          -103 0 -52 60 0 121 0 79 16 75 31 70 -53 47 -59 60 -64 73 -87 -128 -43 -135 0 -141 0 -117 35 -100 71 -83 71 -83 102 -42 135 0 rrcurveto
          510 hmoveto
          40 0 31 12 23 25 23 24 11 27 0 30 0 35 -31 73 -61 112 -57 -109 -49 -75 -42 -41 4 -75 37 -38 71 0 rrcurveto
          -326 427 rmoveto
          55 46 46 73 38 100 rrcurveto
          -289 286 rlineto
          -77 75 -39 68 0 62 0 45 12 35 23 25 23 25 29 13 36 0 29 0 25 -8 23 -15 22 -15 20 -27 19 -39 19 -39 38 -20 57 0 38 0 30 12 23 25 23 24 11 26 0 27 rrcurveto
          0 9 -3 14 -7 19 -29 76 -48 58 -66 41 -66 40 -78 20 -90 0 -105 0 -89 -34 -75 -69 -75 -69 -37 -90 0 -111 0 -113 58 -112 117 -113 rrcurveto
          endchar
        </CharString>
        <CharString name="ampersand_ampersand">
          0 -627 -54 rmoveto
          103 0 98 35 95 69 94 69 75 90 57 111 57 111 28 99 0 88 0 24 -11 24 -21 23 -21 23 -32 11 -41 0 -65 0 -41 -37 -15 -74 -27 -119 -46 -98 -65 -78 -73 -85 -74 -42 -75 0 rrcurveto
          -103 0 -52 60 0 121 0 79 16 75 31 70 -53 47 -59 60 -64 73 -87 -128 -43 -135 0 -141 0 -117 35 -100 71 -83 71 -83 102 -42 135 0 rrcurveto
          510 hmoveto
          40 0 31 12 23 25 23 24 11 27 0 30 0 35 -31 73 -61 112 -57 -109 -49 -75 -42 -41 4 -75 37 -38 71 0 rrcurveto
          754 427 rmoveto
          55 46 46 73 38 100 rrcurveto
          -289 286 rlineto
          -77 75 -39 68 0 62 0 45 12 35 23 25 23 25 29 13 36 0 29 0 25 -8 23 -15 22 -15 20 -27 19 -39 19 -39 38 -20 57 0 38 0 30 12 23 25 23 24 11 26 0 27 rrcurveto
          0 9 -3 14 -7 19 -29 76 -48 58 -66 41 -66 40 -78 20 -90 0 -105 0 -89 -34 -75 -69 -75 -69 -37 -90 0 -111 0 -113 58 -112 117 -113 rrcurveto
          175 -797 rmoveto
          103 0 98 35 95 69 94 69 75 90 57 111 57 111 28 99 0 88 0 24 -11 24 -21 23 -21 23 -32 11 -41 0 -65 0 -41 -37 -15 -74 -27 -119 -46 -98 -65 -78 -73 -85 -74 -42 -75 0 rrcurveto
          -103 0 -52 60 0 121 0 79 16 75 31 70 -53 47 -59 60 -64 73 -87 -128 -43 -135 0 -141 0 -117 35 -100 71 -83 71 -83 102 -42 135 0 rrcurveto
          510 hmoveto
          40 0 31 12 23 25 23 24 11 27 0 30 0 35 -31 73 -61 112 -57 -109 -49 -75 -42 -41 4 -75 37 -38 71 0 rrcurveto
          -1406 427 rmoveto
          55 46 46 73 38 100 rrcurveto
          -289 286 rlineto
          -77 75 -39 68 0 62 0 45 12 35 23 25 23 25 29 13 36 0 29 0 25 -8 23 -15 22 -15 20 -27 19 -39 19 -39 38 -20 57 0 38 0 30 12 23 25 23 24 11 26 0 27 rrcurveto
          0 9 -3 14 -7 19 -29 76 -48 58 -66 41 -66 40 -78 20 -90 0 -105 0 -89 -34 -75 -69 -75 -69 -37 -90 0 -111 0 -113 58 -112 117 -113 rrcurveto
          endchar
        </CharString>
        <CharString name="asciicircum">
          0 940 550 rmoveto
          19 0 19 5 18 10 39 26 20 31 0 38 0 22 -5 19 -11 14 rrcurveto
          -337 519 rlineto
          -28 38 -33 19 -39 0 -41 0 -35 -19 -28 -37 rrcurveto
          -339 -519 rlineto
          -9 -19 -5 -18 0 -18 0 -35 17 -30 34 -27 22 -12 22 -6 21 0 40 0 33 18 26 37 rrcurveto
          237 380 rlineto
          1 1 1 1 0 0 0 0 1 -1 1 -2 rrcurveto
          238 -377 rlineto
          26 -39 34 -19 41 0 rrcurveto
          endchar
        </CharString>
        <CharString name="asciitilde">
          0 788 362 rmoveto
          91 0 73 36 54 72 45 63 23 80 0 95 0 28 -9 25 -18 24 -18 23 -28 12 -37 0 -59 0 -34 -33 -10 -65 -13 -88 -21 -44 -30 0 -18 0 -14 3 -10 7 -28 20 -31 33 -34 44 rrcurveto
          -73 94 -82 47 -90 0 -95 0 -76 -37 -55 -73 -43 -61 -22 -78 0 -96 0 -33 9 -27 19 -21 19 -21 25 -11 33 0 33 0 26 9 20 19 21 19 10 24 2 30 4 87 23 44 42 0 rrcurveto
          30 0 44 -37 58 -73 76 -93 82 -47 86 0 rrcurveto
          endchar
        </CharString>
        <CharString name="asciitilde_at">
          0 1037 268 rmoveto
          75 0 39 31 3 62 5 104 2 89 0 74 -1 278 -55 204 -110 129 -124 141 -146 70 -171 0 -214 -1 -179 -86 -143 -171 -108 -125 -74 -144 -41 -161 -29 -115 -53 -57 -76 0 -45 0 -27 3 -10 7 rrcurveto
          -28 20 -31 33 -34 44 -73 94 -82 47 -90 0 -95 0 -76 -37 -55 -73 -43 -61 -22 -78 0 -96 0 -33 9 -27 19 -21 19 -21 25 -11 33 0 33 0 26 9 20 19 21 19 10 24 2 30 rrcurveto
          4 87 23 44 42 0 30 0 44 -37 58 -73 76 -93 95 -47 113 0 96 0 78 28 61 57 68 61 44 74 20 87 30 146 62 125 94 103 60 63 57 44 52 23 53 24 60 12 68 0 rrcurveto
          243 -5 132 -177 23 -348 2 -54 2 -91 2 -129 2 -91 34 -46 66 0 rrcurveto
          -102 -318 rmoveto
          24 0 21 2 19 5 39 9 20 31 0 52 0 31 -9 25 -17 17 -19 19 -22 9 -25 0 -42 0 -32 2 -22 4 -50 11 -27 83 -6 155 -1 94 -2 89 -2 82 -2 83 -25 74 -48 64 rrcurveto
          -48 65 -67 32 -85 0 -168 -1 -118 -109 -68 -215 -27 -93 -14 -95 0 -97 0 -285 75 -143 149 0 144 2 72 61 0 120 0 21 -6 20 -12 17 -12 17 -18 9 -23 0 -27 0 -22 -11 -16 -21 rrcurveto
          -15 -19 -14 -9 -14 0 -31 0 -16 74 0 149 0 87 10 72 20 56 38 110 47 55 56 0 17 0 16 -11 14 -22 15 -21 8 -33 1 -43 rrcurveto
          8 -250 rlineto
          5 -241 76 -139 148 -35 42 -10 44 -5 44 0 rrcurveto
          endchar
        </CharString>
        <CharString name="asterisk">
          0 600 76 rmoveto
          39 0 31 12 24 24 24 24 12 26 0 29 rrcurveto
          197 vlineto
          155 -85 rlineto
          22 -11 23 -6 23 0 39 0 32 12 24 24 24 24 12 26 0 28 0 37 -19 32 -39 27 rrcurveto
          -187 104 187 104 rlineto
          39 27 19 32 0 37 0 28 -12 26 -24 24 -24 24 -32 12 -39 0 -23 0 -23 -6 -22 -11 rrcurveto
          -155 -86 rlineto
          197 vlineto
          0 29 -12 26 -24 24 -24 24 -31 12 -39 0 -39 0 -31 -12 -24 -24 -24 -24 -12 -26 0 -29 rrcurveto
          -197 vlineto
          -154 86 rlineto
          -22 11 -23 6 -24 0 -39 0 -31 -12 -24 -24 -25 -24 -12 -26 0 -28 0 -41 20 -32 39 -23 rrcurveto
          186 -104 -187 -104 rlineto
          -39 -28 -19 -32 0 -37 0 -28 12 -26 25 -24 24 -24 31 -12 39 0 24 0 23 6 22 11 rrcurveto
          154 86 rlineto
          -197 vlineto
          0 -29 12 -26 24 -24 24 -24 31 -12 39 0 rrcurveto
          endchar
        </CharString>
        <CharString name="asterisk_slash">
          0 40 -225 rmoveto
          27 0 24 7 23 14 22 14 16 18 9 21 rrcurveto
          720 1623 rlineto
          6 15 3 14 0 13 0 19 -7 21 -13 21 -22 35 -37 18 -51 0 -27 0 -24 -7 -22 -13 -23 -14 -16 -18 -9 -21 rrcurveto
          -720 -1623 rlineto
          -6 -15 -3 -13 0 -13 0 -20 7 -21 14 -21 22 -36 36 -18 51 0 rrcurveto
          -640 171 rmoveto
          39 0 31 12 24 24 24 24 12 26 0 29 rrcurveto
          197 vlineto
          155 -85 rlineto
          22 -11 23 -6 23 0 39 0 32 12 24 24 24 24 12 26 0 28 0 37 -19 32 -39 27 rrcurveto
          -187 104 187 104 rlineto
          39 27 19 32 0 37 0 28 -12 26 -24 24 -24 24 -32 12 -39 0 -23 0 -23 -6 -22 -11 rrcurveto
          -155 -86 rlineto
          197 vlineto
          0 29 -12 26 -24 24 -24 24 -31 12 -39 0 -39 0 -31 -12 -24 -24 -24 -24 -12 -26 0 -29 rrcurveto
          -197 vlineto
          -154 86 rlineto
          -22 11 -23 6 -24 0 -39 0 -31 -12 -24 -24 -25 -24 -12 -26 0 -28 0 -41 20 -32 39 -23 rrcurveto
          186 -104 -187 -104 rlineto
          -39 -28 -19 -32 0 -37 0 -28 12 -26 25 -24 24 -24 31 -12 39 0 24 0 23 6 22 11 rrcurveto
          154 86 rlineto
          -197 vlineto
          0 -29 12 -26 24 -24 24 -24 31 -12 39 0 rrcurveto
          endchar
        </CharString>
        <CharString name="at">
          0 1037 268 rmoveto
          75 0 39 31 3 62 5 104 2 89 0 74 -1 278 -55 204 -110 129 -124 141 -146 70 -171 0 -215 -1 -168 -88 -122 -175 -13 -19 -6 -23 0 -27 0 -40 11 -31 23 -22 22 -23 26 -11 29 0 rrcurveto
          34 0 27 12 20 23 51 58 47 45 45 32 45 33 55 16 66 0 243 -5 132 -177 23 -348 2 -54 2 -91 2 -129 2 -91 34 -46 66 0 rrcurveto
          -102 -318 rmoveto
          24 0 21 2 19 5 39 9 20 31 0 52 0 31 -9 25 -17 17 -19 19 -22 9 -25 0 -42 0 -32 2 -22 4 -50 11 -27 83 -6 155 -1 94 -2 89 -2 82 -2 83 -25 74 -48 64 rrcurveto
          -48 65 -67 32 -85 0 -168 -1 -118 -109 -68 -215 -27 -93 -14 -95 0 -97 0 -285 75 -143 149 0 144 2 72 61 0 120 0 21 -6 20 -12 17 -12 17 -18 9 -23 0 -27 0 -22 -11 -16 -21 rrcurveto
          -15 -19 -14 -9 -14 0 -31 0 -16 74 0 149 0 87 10 72 20 56 38 110 47 55 56 0 17 0 16 -11 14 -22 15 -21 8 -33 1 -43 rrcurveto
          8 -250 rlineto
          5 -241 76 -139 148 -35 42 -10 44 -5 44 0 rrcurveto
          endchar
        </CharString>
        <CharString name="b">
          0 619 171 rmoveto
          -14 hlineto
          -47 0 -46 21 -47 41 -47 41 -23 57 0 74 rrcurveto
          213 vlineto
          0 57 24 55 47 53 41 43 51 22 59 0 76 0 58 -27 41 -54 40 -53 20 -90 0 -125 -5 -215 -78 -109 -150 -4 rrcurveto
          33 -221 rmoveto
          152 0 109 50 67 101 67 101 34 142 1 185 0 175 -38 139 -77 103 -77 103 -105 51 -135 0 -79 0 -77 -31 -74 -63 -8 -7 -6 -3 -5 0 -4 0 -2 5 0 11 rrcurveto
          424 vlineto
          0 32 -11 27 -23 22 -23 22 -27 11 -30 0 -30 0 -27 -11 -24 -22 -23 -22 -12 -27 0 -32 rrcurveto
          -1374 vlineto
          0 -32 10 -26 21 -22 21 -21 27 -11 33 0 64 0 37 36 11 72 1 12 0 6 -3 0 -1 0 0 -1 2 -2 84 -82 88 -41 92 0 rrcurveto
          endchar
        </CharString>
        <CharString name="backslash">
          0 960 -220 rmoveto
          43 0 32 17 22 34 12 20 6 20 0 20 0 13 -3 14 -6 15 rrcurveto
          -720 1620 rlineto
          -9 21 -15 16 -19 12 -20 12 -21 6 -22 0 -43 0 -32 -17 -22 -34 -12 -19 -6 -19 0 -20 0 -14 3 -14 6 -15 rrcurveto
          721 -1621 rlineto
          9 -20 15 -16 19 -13 19 -12 21 -6 22 0 rrcurveto
          endchar
        </CharString>
        <CharString name="bar">
          0 600 -250 rmoveto
          32 0 27 11 22 23 23 22 11 25 0 29 rrcurveto
          1680 vlineto
          0 29 -11 26 -23 22 -22 22 -27 11 -32 0 -32 0 -27 -11 -22 -22 -23 -22 -11 -26 0 -29 rrcurveto
          -1680 vlineto
          0 -29 11 -25 23 -22 22 -23 27 -11 32 0 rrcurveto
          endchar
        </CharString>
        <CharString name="bar_bar">
          0 400 -254 rmoveto
          35 0 30 12 26 25 25 25 13 25 0 27 rrcurveto
          1680 vlineto
          0 27 -13 26 -25 25 -26 24 -30 12 -35 0 -35 0 -30 -12 -25 -24 -26 -25 -13 -26 0 -27 rrcurveto
          -1680 vlineto
          0 -27 13 -25 26 -25 25 -25 30 -12 35 0 rrcurveto
          -800 hmoveto
          35 0 30 12 26 25 25 25 13 25 0 27 rrcurveto
          1680 vlineto
          0 27 -13 26 -25 25 -26 24 -30 12 -35 0 -35 0 -30 -12 -25 -24 -26 -25 -13 -26 0 -27 rrcurveto
          -1680 vlineto
          0 -27 13 -25 26 -25 25 -25 30 -12 35 0 rrcurveto
          endchar
        </CharString>
        <CharString name="boxdrawingsdoubledownandhorizontal">
          0 520 -1000 rmoveto
          1620 -530 -160 370 -1460 vlineto
          850 1780 rmoveto
          160 -1220 -160 vlineto
          850 -1780 rmoveto
          1460 370 160 -530 -1620 vlineto
          endchar
        </CharString>
        <CharString name="boxdrawingsdoubledownandleft">
          0 520 -1000 rmoveto
          1620 -530 -160 370 -1460 vlineto
          480 hmoveto
          1940 -850 -160 690 -1780 vlineto
          endchar
        </CharString>
        <CharString name="boxdrawingsdoubledownandright">
          0 840 -1000 rmoveto
          1460 370 160 -530 -1620 vlineto
          -160 hmoveto
          1780 690 160 -850 -1940 vlineto
          endchar
        </CharString>
        <CharString name="boxdrawingsdoublehorizontal">
          0 1210 460 rmoveto
          160 -1220 -160 vlineto
          1220 320 rmoveto
          160 -1220 -160 vlineto
          endchar
        </CharString>
        <CharString name="boxdrawingsdoubleupandhorizontal">
          0 1210 460 rmoveto
          160 -1220 -160 vlineto
          1220 320 rmoveto
          160 -370 1060 -160 -1220 vlineto
          -160 hmoveto
          1220 -160 -1060 -370 -160 vlineto
          endchar
        </CharString>
        <CharString name="boxdrawingsdoubleupandleft">
          0 520 780 rmoveto
          1220 -160 -1060 -370 -160 vlineto
          850 -320 rmoveto
          1540 -160 -1380 -690 -160 vlineto
          endchar
        </CharString>
        <CharString name="boxdrawingsdoubleupandright">
          0 1210 780 rmoveto
          160 -370 1060 -160 -1220 vlineto
          530 -320 rmoveto
          160 -690 1380 -160 -1540 vlineto
          endchar
        </CharString>
        <CharString name="boxdrawingsdoublevertical">
          0 520 -1000 rmoveto
          3000 -160 -3000 vlineto
          480 hmoveto
          3000 -160 -3000 vlineto
          endchar
        </CharString>
        <CharString name="boxdrawingsdoubleverticalandhorizontal">
          0 520 -1000 rmoveto
          1620 -530 -160 370 -1460 vlineto
          160 1780 rmoveto
          1220 -160 -1060 -370 -160 vlineto
          1220 hmoveto
          160 -370 1060 -160 -1220 vlineto
          160 -1780 rmoveto
          1460 370 160 -530 -1620 vlineto
          endchar
        </CharString>
        <CharString name="boxdrawingsdoubleverticalandleft">
          0 520 -1000 rmoveto
          1620 -530 -160 370 -1460 vlineto
          480 hmoveto
          3000 -160 -3000 vlineto
          -160 1780 rmoveto
          1220 -160 -1060 -370 -160 vlineto
          endchar
        </CharString>
        <CharString name="boxdrawingsdoubleverticalandright">
          0 840 -1000 rmoveto
          1460 370 160 -530 -1620 vlineto
          -160 hmoveto
          3000 -160 -3000 vlineto
          850 1780 rmoveto
          160 -370 1060 -160 -1220 vlineto
          endchar
        </CharString>
        <CharString name="boxdrawingsdowndoubleandhorizontalsingle">
          0 840 -1000 rmoveto
          1620 370 160 -1220 -160 370 -1620 160 1620 160 -1620 vlineto
          endchar
        </CharString>
        <CharString name="boxdrawingsdowndoubleandleftsingle">
          0 840 -1000 rmoveto
          1780 -850 -160 370 -1620 160 1620 160 -1620 vlineto
          endchar
        </CharString>
        <CharString name="boxdrawingsdowndoubleandrightsingle">
          0 840 -1000 rmoveto
          1620 370 160 -850 -1780 160 1620 160 -1620 vlineto
          endchar
        </CharString>
        <CharString name="boxdrawingsdownheavyandhorizontallight">
          0 840 -1000 rmoveto
          1620 370 160 -1220 -160 370 -1620 vlineto
          endchar
        </CharString>
        <CharString name="boxdrawingsdownheavyandleftlight">
          0 840 -1000 rmoveto
          1780 -850 -160 370 -1620 vlineto
          endchar
        </CharString>
        <CharString name="boxdrawingsdownheavyandleftuplight">
          0 840 -1000 rmoveto
          1780 -160 1220 -160 -1220 -530 -160 370 -1620 vlineto
          endchar
        </CharString>
        <CharString name="boxdrawingsdownheavyandrightlight">
          0 840 -1000 rmoveto
          1620 370 160 -850 -1780 vlineto
          endchar
        </CharString>
        <CharString name="boxdrawingsdownheavyandrightuplight">
          0 840 -1000 rmoveto
          1620 370 160 -530 1220 -160 -1220 -160 -1780 vlineto
          endchar
        </CharString>
        <CharString name="boxdrawingsdownheavyanduphorizontallight">
          0 840 -1000 rmoveto
          1620 370 160 -530 1220 -160 -1220 -530 -160 370 -1620 vlineto
          endchar
        </CharString>
        <CharString name="boxdrawingsdownlightandhorizontalheavy">
          0 680 -1000 rmoveto
          1460 530 480 -1220 -480 530 -1460 vlineto
          endchar
        </CharString>
        <CharString name="boxdrawingsdownlightandleftheavy">
          0 680 -1000 rmoveto
          1940 -690 -480 530 -1460 vlineto
          endchar
        </CharString>
        <CharString name="boxdrawingsdownlightandleftupheavy">
          0 680 -1000 rmoveto
          1460 160 1540 -480 -1060 -370 -480 530 -1460 vlineto
          endchar
        </CharString>
        <CharString name="boxdrawingsdownlightandrightheavy">
          0 680 -1000 rmoveto
          1460 530 480 -690 -1940 vlineto
          endchar
        </CharString>
        <CharString name="boxdrawingsdownlightandrightupheavy">
          0 680 -1000 rmoveto
          1460 530 480 -370 1060 -480 -1540 160 -1460 vlineto
          endchar
        </CharString>
        <CharString name="boxdrawingsdownlightanduphorizontalheavy">
          0 680 -1000 rmoveto
          1460 530 480 -370 1060 -480 -1060 -370 -480 530 -1460 vlineto
          endchar
        </CharString>
        <CharString name="boxdrawingsdownsingleandhorizontaldouble">
          0 680 -1000 rmoveto
          1460 530 160 -1220 -160 530 -1460 vlineto
          690 1780 rmoveto
          160 -1220 -160 vlineto
          endchar
        </CharString>
        <CharString name="boxdrawingsdownsingleandleftdouble">
          0 680 -1000 rmoveto
          1940 -690 -160 530 -160 -530 -160 530 -1460 vlineto
          endchar
        </CharString>
        <CharString name="boxdrawingsdownsingleandrightdouble">
          0 680 -1000 rmoveto
          1460 530 160 -530 160 530 160 -690 -1940 vlineto
          endchar
        </CharString>
        <CharString name="boxdrawingsheavydoubledashhorizontal">
          0 520 460 rmoveto
          480 -440 -480 vlineto
          1040 hmoveto
          480 -440 -480 vlineto
          endchar
        </CharString>
        <CharString name="boxdrawingsheavydoubledashvertical">
          0 840 -360 rmoveto
          960 -480 -960 vlineto
          480 1440 rmoveto
          960 -480 -960 vlineto
          endchar
        </CharString>
        <CharString name="boxdrawingsheavydown">
          0 840 -1000 rmoveto
          1780 -480 -1780 vlineto
          endchar
        </CharString>
        <CharString name="boxdrawingsheavydownandhorizontal">
          0 840 -1000 rmoveto
          1460 370 480 -1220 -480 370 -1460 vlineto
          endchar
        </CharString>
        <CharString name="boxdrawingsheavydownandleft">
          0 840 -1000 rmoveto
          1940 -850 -480 370 -1460 vlineto
          endchar
        </CharString>
        <CharString name="boxdrawingsheavydownandright">
          0 840 -1000 rmoveto
          1460 370 480 -850 -1940 vlineto
          endchar
        </CharString>
        <CharString name="boxdrawingsheavyhorizontal">
          0 1210 460 rmoveto
          480 -1220 -480 vlineto
          endchar
        </CharString>
        <CharString name="boxdrawingsheavyleft">
          0 680 460 rmoveto
          480 -690 -480 vlineto
          endchar
        </CharString>
        <CharString name="boxdrawingsheavyleftandlightright">
          0 680 460 rmoveto
          160 530 160 -530 160 -690 -480 vlineto
          endchar
        </CharString>
        <CharString name="boxdrawingsheavyquadrupledashhorizontal">
          0 1125 460 rmoveto
          480 -150 -480 vlineto
          -450 hmoveto
          480 -150 -480 vlineto
          450 hmoveto
          480 -150 -480 vlineto
          -450 hmoveto
          480 -150 -480 vlineto
          endchar
        </CharString>
        <CharString name="boxdrawingsheavyquadrupledashvertical">
          0 840 -520 rmoveto
          540 -480 -540 vlineto
          480 2100 rmoveto
          540 -480 -540 vlineto
          480 -700 rmoveto
          540 -480 -540 vlineto
          480 -700 rmoveto
          540 -480 -540 vlineto
          endchar
        </CharString>
        <CharString name="boxdrawingsheavyright">
          0 1210 460 rmoveto
          480 -690 -480 vlineto
          endchar
        </CharString>
        <CharString name="boxdrawingsheavytripledashhorizontal">
          0 1120 460 rmoveto
          480 -240 -480 vlineto
          -560 hmoveto
          480 -240 -480 vlineto
          640 hmoveto
          480 -240 -480 vlineto
          endchar
        </CharString>
        <CharString name="boxdrawingsheavytripledashvertical">
          0 840 -520 rmoveto
          800 -480 -800 vlineto
          480 1920 rmoveto
          800 -480 -800 vlineto
          480 -960 rmoveto
          800 -480 -800 vlineto
          endchar
        </CharString>
        <CharString name="boxdrawingsheavyup">
          0 840 620 rmoveto
          1380 -480 -1380 vlineto
          endchar
        </CharString>
        <CharString name="boxdrawingsheavyupandhorizontal">
          0 1210 460 rmoveto
          480 -370 1060 -480 -1060 -370 -480 vlineto
          endchar
        </CharString>
        <CharString name="boxdrawingsheavyupandleft">
          0 840 460 rmoveto
          1540 -480 -1060 -370 -480 vlineto
          endchar
        </CharString>
        <CharString name="boxdrawingsheavyupandlightdown">
          0 680 -1000 rmoveto
          1620 160 1380 -480 -1380 160 -1620 vlineto
          endchar
        </CharString>
        <CharString name="boxdrawingsheavyupandright">
          0 1210 460 rmoveto
          480 -370 1060 -480 -1540 vlineto
          endchar
        </CharString>
        <CharString name="boxdrawingsheavyvertical">
          0 840 -1000 rmoveto
          3000 -480 -3000 vlineto
          endchar
        </CharString>
        <CharString name="boxdrawingsheavyverticalandhorizontal">
          0 840 -1000 rmoveto
          1460 370 480 -370 1060 -480 -1060 -370 -480 370 -1460 vlineto
          endchar
        </CharString>
        <CharString name="boxdrawingsheavyverticalandleft">
          0 840 -1000 rmoveto
          3000 -480 -1060 -370 -480 370 -1460 vlineto
          endchar
        </CharString>
        <CharString name="boxdrawingsheavyverticalandright">
          0 840 -1000 rmoveto
          1460 370 480 -370 1060 -480 -3000 vlineto
          endchar
        </CharString>
        <CharString name="boxdrawingsleftdownheavyandrightuplight">
          0 840 -1000 rmoveto
          1620 370 160 -370 160 -160 1060 -160 -1060 -530 -480 370 -1460 vlineto
          endchar
        </CharString>
        <CharString name="boxdrawingsleftheavyandrightdownlight">
          0 680 -1000 rmoveto
          1620 530 160 -530 160 -690 -480 530 -1460 vlineto
          endchar
        </CharString>
        <CharString name="boxdrawingsleftheavyandrightuplight">
          0 680 460 rmoveto
          160 530 160 -530 1220 -160 -1060 -530 -480 vlineto
          endchar
        </CharString>
        <CharString name="boxdrawingsleftheavyandrightverticallight">
          0 680 -1000 rmoveto
          1620 530 160 -530 1220 -160 -1060 -530 -480 530 -1460 vlineto
          endchar
        </CharString>
        <CharString name="boxdrawingsleftlightandrightdownheavy">
          0 840 -1000 rmoveto
          1460 370 480 -850 -160 -370 -160 370 -1620 vlineto
          endchar
        </CharString>
        <CharString name="boxdrawingsleftlightandrightupheavy">
          0 1210 460 rmoveto
          480 -370 1060 -480 -1220 -370 -160 370 -160 vlineto
          endchar
        </CharString>
        <CharString name="boxdrawingsleftlightandrightverticalheavy">
          0 840 -1000 rmoveto
          1460 370 480 -370 1060 -480 -1220 -370 -160 370 -1620 vlineto
          endchar
        </CharString>
        <CharString name="boxdrawingsleftupheavyandrightdownlight">
          0 680 -1000 rmoveto
          1460 160 160 370 160 -370 1220 -480 -1060 -370 -480 530 -1460 vlineto
          endchar
        </CharString>
        <CharString name="boxdrawingslightarcdownandleft">
          0 680 -1000 rmoveto
          1240 vlineto
          0 75 -14 70 -28 65 -28 65 -39 57 -49 50 -50 49 -57 39 -65 28 -65 28 -70 14 -75 0 rrcurveto
          -150 -160 150 hlineto
          69 0 64 -17 58 -34 57 -35 46 -46 35 -57 34 -58 17 -64 0 -69 rrcurveto
          -1240 vlineto
          endchar
        </CharString>
        <CharString name="boxdrawingslightarcdownandright">
          0 680 -1000 rmoveto
          1240 vlineto
          0 69 17 64 35 58 34 57 46 46 58 35 57 34 64 17 69 0 rrcurveto
          150 160 -150 hlineto
          -75 0 -69 -14 -65 -28 -65 -28 -58 -39 -49 -49 -50 -50 -39 -57 -28 -65 -28 -65 -14 -70 0 -75 rrcurveto
          -1240 vlineto
          endchar
        </CharString>
        <CharString name="boxdrawingslightarcupandleft">
          0 140 620 rmoveto
          75 0 70 14 65 28 65 28 57 39 50 50 49 49 39 58 28 65 28 65 14 69 0 75 rrcurveto
          1240 -160 -1240 vlineto
          0 -69 -17 -64 -34 -57 -35 -58 -46 -46 -57 -34 -58 -35 -64 -17 -69 0 rrcurveto
          -150 -160 hlineto
          endchar
        </CharString>
        <CharString name="boxdrawingslightarcupandright">
          0 1210 620 rmoveto
          160 -150 vlineto
          -69 0 -64 17 -57 35 -58 34 -46 46 -34 58 -35 57 -17 64 0 69 rrcurveto
          1240 -160 -1240 vlineto
          0 -75 14 -69 28 -65 28 -65 39 -58 50 -49 49 -50 58 -39 65 -28 65 -28 69 -14 75 0 rrcurveto
          endchar
        </CharString>
        <CharString name="boxdrawingslightdiagonalcross">
          0 1130 -635 rmoveto
          -530 1060 -530 -1060 -145 72 585 1169 -580 1160 144 71 526 -1051 526 1051 144 -71 -580 -1160 585 -1169 rlineto
          endchar
        </CharString>
        <CharString name="boxdrawingslightdiagonalupperlefttolowerright">
          0 1130 -635 rmoveto
          -1200 2401 144 71 1201 -2400 rlineto
          endchar
        </CharString>
        <CharString name="boxdrawingslightdiagonalupperrighttolowerleft">
          0 70 -635 rmoveto
          1200 2401 -144 71 -1201 -2400 rlineto
          endchar
        </CharString>
        <CharString name="boxdrawingslightdoubledashhorizontal">
          0 520 620 rmoveto
          160 -440 -160 vlineto
          1040 hmoveto
          160 -440 -160 vlineto
          endchar
        </CharString>
        <CharString name="boxdrawingslightdoubledashvertical">
          0 680 -520 rmoveto
          1280 -160 -1280 vlineto
          160 1440 rmoveto
          1280 -160 -1280 vlineto
          endchar
        </CharString>
        <CharString name="boxdrawingslightdown">
          0 680 -1000 rmoveto
          1780 -160 -1780 vlineto
          endchar
        </CharString>
        <CharString name="boxdrawingslightdownandhorizontal">
          0 680 -1000 rmoveto
          1620 530 160 -1220 -160 530 -1620 vlineto
          endchar
        </CharString>
        <CharString name="boxdrawingslightdownandleft">
          0 680 -1000 rmoveto
          1780 -690 -160 530 -1620 vlineto
          endchar
        </CharString>
        <CharString name="boxdrawingslightdownandright">
          0 680 -1000 rmoveto
          1620 530 160 -690 -1780 vlineto
          endchar
        </CharString>
        <CharString name="boxdrawingslighthorizontal">
          0 1210 620 rmoveto
          160 -1220 -160 vlineto
          endchar
        </CharString>
        <CharString name="boxdrawingslightleft">
          0 680 620 rmoveto
          160 -690 -160 vlineto
          endchar
        </CharString>
        <CharString name="boxdrawingslightleftandheavyright">
          0 1210 460 rmoveto
          480 -690 -160 -530 -160 530 -160 vlineto
          endchar
        </CharString>
        <CharString name="boxdrawingslightquadrupledashhorizontal">
          0 1125 620 rmoveto
          160 -150 -160 vlineto
          -450 hmoveto
          160 -150 -160 vlineto
          450 hmoveto
          160 -150 -160 vlineto
          -450 hmoveto
          160 -150 -160 vlineto
          endchar
        </CharString>
        <CharString name="boxdrawingslightquadrupledashvertical">
          0 680 -520 rmoveto
          540 -160 -540 vlineto
          160 2100 rmoveto
          540 -160 -540 vlineto
          160 -700 rmoveto
          540 -160 -540 vlineto
          160 -700 rmoveto
          540 -160 -540 vlineto
          endchar
        </CharString>
        <CharString name="boxdrawingslightright">
          0 1210 620 rmoveto
          160 -690 -160 vlineto
          endchar
        </CharString>
        <CharString name="boxdrawingslighttripledashhorizontal">
          0 1120 620 rmoveto
          160 -240 -160 vlineto
          -560 hmoveto
          160 -240 -160 vlineto
          640 hmoveto
          160 -240 -160 vlineto
          endchar
        </CharString>
        <CharString name="boxdrawingslighttripledashvertical">
          0 680 -520 rmoveto
          800 -160 -800 vlineto
          160 1920 rmoveto
          800 -160 -800 vlineto
          160 -960 rmoveto
          800 -160 -800 vlineto
          endchar
        </CharString>
        <CharString name="boxdrawingslightup">
          0 680 620 rmoveto
          1380 -160 -1380 vlineto
          endchar
        </CharString>
        <CharString name="boxdrawingslightupandheavydown">
          0 840 -1000 rmoveto
          1780 -160 1220 -160 -1220 -160 -1780 vlineto
          endchar
        </CharString>
        <CharString name="boxdrawingslightupandhorizontal">
          0 1210 620 rmoveto
          160 -530 1220 -160 -1220 -530 -160 vlineto
          endchar
        </CharString>
        <CharString name="boxdrawingslightupandleft">
          0 680 620 rmoveto
          1380 -160 -1220 -530 -160 vlineto
          endchar
        </CharString>
        <CharString name="boxdrawingslightupandright">
          0 1210 620 rmoveto
          160 -530 1220 -160 -1380 vlineto
          endchar
        </CharString>
        <CharString name="boxdrawingslightvertical">
          0 680 -1000 rmoveto
          3000 -160 -3000 vlineto
          endchar
        </CharString>
        <CharString name="boxdrawingslightverticalandhorizontal">
          0 680 -1000 rmoveto
          1620 530 160 -530 1220 -160 -1220 -530 -160 530 -1620 vlineto
          endchar
        </CharString>
        <CharString name="boxdrawingslightverticalandleft">
          0 680 -1000 rmoveto
          3000 -160 -1220 -530 -160 530 -1620 vlineto
          endchar
        </CharString>
        <CharString name="boxdrawingslightverticalandright">
          0 680 -1000 rmoveto
          1620 530 160 -530 1220 -160 -3000 vlineto
          endchar
        </CharString>
        <CharString name="boxdrawingsrightdownheavyandleftuplight">
          0 840 -1000 rmoveto
          1460 370 480 -530 1060 -160 -1060 -160 -160 -370 -160 370 -1620 vlineto
          endchar
        </CharString>
        <CharString name="boxdrawingsrightheavyandleftdownlight">
          0 680 -1000 rmoveto
          1460 530 480 -690 -160 -530 -160 530 -1620 vlineto
          endchar
        </CharString>
        <CharString name="boxdrawingsrightheavyandleftuplight">
          0 1210 460 rmoveto
          480 -530 1060 -160 -1220 -530 -160 530 -160 vlineto
          endchar
        </CharString>
        <CharString name="boxdrawingsrightheavyandleftverticallight">
          0 680 -1000 rmoveto
          1460 530 480 -530 1060 -160 -1220 -530 -160 530 -1620 vlineto
          endchar
        </CharString>
        <CharString name="boxdrawingsrightlightandleftdownheavy">
          0 840 -1000 rmoveto
          1620 370 160 -370 160 -850 -480 370 -1460 vlineto
          endchar
        </CharString>
        <CharString name="boxdrawingsrightlightandleftupheavy">
          0 840 460 rmoveto
          160 370 160 -370 1220 -480 -1060 -370 -480 vlineto
          endchar
        </CharString>
        <CharString name="boxdrawingsrightlightandleftverticalheavy">
          0 840 -1000 rmoveto
          1620 370 160 -370 1220 -480 -1060 -370 -480 370 -1460 vlineto
          endchar
        </CharString>
        <CharString name="boxdrawingsrightupheavyandleftdownlight">
          0 680 -1000 rmoveto
          1460 530 480 -370 1060 -480 -1220 -370 -160 370 -160 160 -1460 vlineto
          endchar
        </CharString>
        <CharString name="boxdrawingsupdoubleandhorizontalsingle">
          0 1210 620 rmoveto
          160 -370 1220 -160 -1220 -160 1220 -160 -1220 -370 -160 vlineto
          endchar
        </CharString>
        <CharString name="boxdrawingsupdoubleandleftsingle">
          0 840 620 rmoveto
          1380 -160 -1220 -160 1220 -160 -1220 -370 -160 vlineto
          endchar
        </CharString>
        <CharString name="boxdrawingsupdoubleandrightsingle">
          0 1210 620 rmoveto
          160 -370 1220 -160 -1220 -160 1220 -160 -1380 vlineto
          endchar
        </CharString>
        <CharString name="boxdrawingsupheavyanddownhorizontallight">
          0 680 -1000 rmoveto
          1620 530 160 -370 1220 -480 -1220 -370 -160 530 -1620 vlineto
          endchar
        </CharString>
        <CharString name="boxdrawingsupheavyandhorizontallight">
          0 1210 620 rmoveto
          160 -370 1220 -480 -1220 -370 -160 vlineto
          endchar
        </CharString>
        <CharString name="boxdrawingsupheavyandleftdownlight">
          0 680 -1000 rmoveto
          1620 160 1380 -480 -1220 -370 -160 530 -1620 vlineto
          endchar
        </CharString>
        <CharString name="boxdrawingsupheavyandleftlight">
          0 840 620 rmoveto
          1380 -480 -1220 -370 -160 vlineto
          endchar
        </CharString>
        <CharString name="boxdrawingsupheavyandrightdownlight">
          0 680 -1000 rmoveto
          1620 530 160 -370 1220 -480 -1380 160 -1620 vlineto
          endchar
        </CharString>
        <CharString name="boxdrawingsupheavyandrightlight">
          0 1210 620 rmoveto
          160 -370 1220 -480 -1380 vlineto
          endchar
        </CharString>
        <CharString name="boxdrawingsuplightanddownhorizontalheavy">
          0 840 -1000 rmoveto
          1460 370 480 -530 1060 -160 -1060 -530 -480 370 -1460 vlineto
          endchar
        </CharString>
        <CharString name="boxdrawingsuplightandhorizontalheavy">
          0 1210 460 rmoveto
          480 -530 1060 -160 -1060 -530 -480 vlineto
          endchar
        </CharString>
        <CharString name="boxdrawingsuplightandleftdownheavy">
          0 840 -1000 rmoveto
          1940 -160 1060 -160 -1060 -530 -480 370 -1460 vlineto
          endchar
        </CharString>
        <CharString name="boxdrawingsuplightandleftheavy">
          0 680 460 rmoveto
          1540 -160 -1060 -530 -480 vlineto
          endchar
        </CharString>
        <CharString name="boxdrawingsuplightandrightdownheavy">
          0 840 -1000 rmoveto
          1460 370 480 -530 1060 -160 -1060 -160 -1940 vlineto
          endchar
        </CharString>
        <CharString name="boxdrawingsuplightandrightheavy">
          0 1210 460 rmoveto
          480 -530 1060 -160 -1540 vlineto
          endchar
        </CharString>
        <CharString name="boxdrawingsupsingleandhorizontaldouble">
          0 1210 460 rmoveto
          160 -1220 -160 vlineto
          1220 320 rmoveto
          160 -530 1060 -160 -1060 -530 -160 vlineto
          endchar
        </CharString>
        <CharString name="boxdrawingsupsingleandleftdouble">
          0 680 460 rmoveto
          1540 -160 -1060 -530 -160 530 -160 -530 -160 vlineto
          endchar
        </CharString>
        <CharString name="boxdrawingsupsingleandrightdouble">
          0 1210 460 rmoveto
          160 -530 160 530 160 -530 1060 -160 -1540 vlineto
          endchar
        </CharString>
        <CharString name="boxdrawingsverticaldoubleandhorizontalsingle">
          0 840 -1000 rmoveto
          1620 370 160 -370 1220 -160 -1220 -160 1220 -160 -1220 -370 -160 370 -1620 160 1620 160 -1620 vlineto
          endchar
        </CharString>
        <CharString name="boxdrawingsverticaldoubleandleftsingle">
          0 840 -1000 rmoveto
          3000 -160 -3000 vlineto
          -160 hmoveto
          3000 -160 -1220 -370 -160 370 -1620 vlineto
          endchar
        </CharString>
        <CharString name="boxdrawingsverticaldoubleandrightsingle">
          0 520 -1000 rmoveto
          3000 -160 -3000 vlineto
          480 hmoveto
          1620 370 160 -370 1220 -160 -3000 vlineto
          endchar
        </CharString>
        <CharString name="boxdrawingsverticalheavyandhorizontallight">
          0 840 -1000 rmoveto
          1620 370 160 -370 1220 -480 -1220 -370 -160 370 -1620 vlineto
          endchar
        </CharString>
        <CharString name="boxdrawingsverticalheavyandleftlight">
          0 840 -1000 rmoveto
          3000 -480 -1220 -370 -160 370 -1620 vlineto
          endchar
        </CharString>
        <CharString name="boxdrawingsverticalheavyandrightlight">
          0 840 -1000 rmoveto
          1620 370 160 -370 1220 -480 -3000 vlineto
          endchar
        </CharString>
        <CharString name="boxdrawingsverticallightandhorizontalheavy">
          0 680 -1000 rmoveto
          1460 530 480 -530 1060 -160 -1060 -530 -480 530 -1460 vlineto
          endchar
        </CharString>
        <CharString name="boxdrawingsverticallightandleftheavy">
          0 680 -1000 rmoveto
          3000 -160 -1060 -530 -480 530 -1460 vlineto
          endchar
        </CharString>
        <CharString name="boxdrawingsverticallightandrightheavy">
          0 680 -1000 rmoveto
          1460 530 480 -530 1060 -160 -3000 vlineto
          endchar
        </CharString>
        <CharString name="boxdrawingsverticalsingleandhorizontaldouble">
          0 680 -1000 rmoveto
          1460 530 160 -530 160 530 160 -530 1060 -160 -1060 -530 -160 530 -160 -530 -160 530 -1460 vlineto
          endchar
        </CharString>
        <CharString name="boxdrawingsverticalsingleandleftdouble">
          0 680 -1000 rmoveto
          3000 -160 -1060 -530 -160 530 -160 -530 -160 530 -1460 vlineto
          endchar
        </CharString>
        <CharString name="boxdrawingsverticalsingleandrightdouble">
          0 680 -1000 rmoveto
          1460 530 160 -530 160 530 160 -530 1060 -160 -3000 vlineto
          endchar
        </CharString>
        <CharString name="braceleft">
          0 928 -283 rmoveto
          30 0 25 10 20 19 21 19 10 27 0 34 0 29 -10 24 -21 20 -21 21 -25 10 -29 0 rrcurveto
          -68 hlineto
          -70 0 -49 10 -29 19 -47 32 -23 42 0 55 0 16 1 29 2 40 rrcurveto
          3 208 rlineto
          0 145 -33 101 -67 58 -5 4 -3 5 0 6 0 6 3 5 5 4 67 58 33 101 0 145 rrcurveto
          -3 208 rlineto
          -2 40 -1 29 0 16 0 55 23 42 47 32 29 19 49 10 70 0 rrcurveto
          69 hlineto
          29 0 25 10 21 21 21 20 10 24 0 29 0 34 -10 27 -21 19 -20 19 -25 10 -30 0 -105 0 -65 -1 -27 -2 -75 -4 -64 -23 -50 -42 -90 -68 -45 -100 0 -130 0 -28 2 -55 3 -83 rrcurveto
          3 -84 2 -51 0 -20 0 -69 -16 -50 -31 -31 -20 -19 -26 -10 -31 0 -86 0 -43 -38 0 -75 0 -75 43 -38 86 0 31 0 26 -10 20 -19 31 -31 16 -50 0 -69 0 -20 -2 -51 -3 -84 rrcurveto
          -3 -83 -2 -55 0 -28 0 -130 45 -100 90 -68 50 -42 64 -23 75 -4 27 -2 65 -1 104 0 rrcurveto
          endchar
        </CharString>
        <CharString name="braceright">
          0 363 -283 rmoveto
          43 0 36 1 27 2 28 1 31 7 35 11 35 10 32 17 27 23 90 68 45 100 0 130 0 28 -2 55 -3 83 -3 84 -2 51 0 20 0 69 16 50 31 31 20 19 26 10 31 0 rrcurveto
          86 0 43 38 0 75 0 75 -43 38 -86 0 -31 0 -26 10 -20 19 -31 31 -16 50 0 69 0 20 2 51 3 84 3 83 2 55 0 28 0 130 -45 100 -90 68 -50 42 -64 23 -75 4 rrcurveto
          -27 2 -65 1 -105 0 -30 0 -25 -10 -20 -19 -21 -19 -10 -27 0 -34 0 -29 10 -24 21 -20 21 -21 25 -10 29 0 rrcurveto
          69 hlineto
          70 0 49 -10 29 -19 47 -32 23 -42 0 -55 0 -16 -1 -29 -2 -40 rrcurveto
          -3 -208 rlineto
          0 -145 33 -101 67 -58 5 -4 3 -5 0 -6 0 -6 -3 -5 -5 -4 -67 -58 -33 -101 0 -145 rrcurveto
          3 -208 rlineto
          2 -40 1 -29 0 -16 0 -55 -23 -42 -47 -32 -29 -19 -49 -10 -70 0 rrcurveto
          -68 hlineto
          -29 0 -25 -10 -21 -21 -21 -20 -10 -24 0 -29 0 -34 10 -27 21 -19 20 -19 25 -10 30 0 rrcurveto
          endchar
        </CharString>
        <CharString name="bracketleft">
          0 840 -290 rmoveto
          33 0 27 11 22 22 22 22 11 26 0 29 0 29 -11 26 -22 22 -22 22 -27 11 -33 0 rrcurveto
          -337 hlineto
          -5 0 -3 4 0 9 rrcurveto
          1515 vlineto
          0 8 3 4 5 0 rrcurveto
          337 hlineto
          33 0 27 11 22 22 22 22 11 26 0 29 0 29 -11 26 -22 22 -22 22 -27 11 -33 0 rrcurveto
          -456 hlineto
          -34 0 -28 -11 -23 -23 -23 -23 -11 -26 0 -30 rrcurveto
          -1754 vlineto
          0 -30 11 -26 23 -23 23 -23 28 -11 34 0 rrcurveto
          endchar
        </CharString>
        <CharString name="bracketright">
          0 380 -290 rmoveto
          456 hlineto
          34 0 28 11 23 23 23 23 11 26 0 30 rrcurveto
          1754 vlineto
          0 30 -11 26 -23 23 -23 23 -28 11 -34 0 rrcurveto
          -456 hlineto
          -33 0 -27 -11 -22 -22 -22 -22 -11 -26 0 -29 0 -29 11 -26 22 -22 22 -22 27 -11 33 0 rrcurveto
          337 hlineto
          5 0 3 -4 0 -8 rrcurveto
          -1515 vlineto
          0 -9 -3 -4 -5 0 rrcurveto
          -337 hlineto
          -33 0 -27 -11 -22 -22 -22 -22 -11 -26 0 -29 0 -29 11 -26 22 -22 22 -22 27 -11 33 0 rrcurveto
          endchar
        </CharString>
        <CharString name="bracketright_numbersign">
          0 1070 325 rmoveto
          35 0 30 12 26 25 26 25 13 26 0 27 0 27 -13 26 -26 25 -26 25 -30 12 -35 0 rrcurveto
          -100 -230 hlineto
          -1354 -619 rmoveto
          36 0 31 13 27 25 26 25 13 26 0 28 rrcurveto
          502 881 230 -881 290 481 230 -481 502 vlineto
          0 28 -13 27 -26 25 -27 25 -31 12 -36 0 rrcurveto
          -456 hlineto
          -35 0 -30 -12 -25 -24 -26 -24 -13 -26 0 -28 0 -27 13 -26 26 -24 25 -25 30 -12 35 0 rrcurveto
          331 -1532 -331 hlineto
          -35 0 -30 -12 -25 -24 -26 -25 -13 -26 0 -27 0 -27 13 -26 26 -24 25 -25 30 -12 35 0 rrcurveto
          1910 1139 rmoveto
          35 0 30 13 26 25 26 25 13 26 0 27 0 27 -13 25 -26 25 -26 25 -30 12 -35 0 rrcurveto
          -500 -230 hlineto
          -169 -900 rmoveto
          35 0 30 12 26 25 26 25 13 26 0 27 rrcurveto
          195 -261 -195 vlineto
          0 -27 13 -26 27 -25 26 -25 30 -12 35 0 rrcurveto
          130 680 rmoveto
          716 vlineto
          0 27 -13 26 -26 25 -27 24 -30 12 -35 0 -35 0 -30 -12 -26 -25 -26 -25 -13 -25 0 -27 rrcurveto
          -716 vlineto
          531 -680 rmoveto
          35 0 30 12 26 25 25 25 13 26 0 27 rrcurveto
          715 -260 -715 vlineto
          0 -27 13 -26 27 -25 26 -25 30 -12 35 0 rrcurveto
          129 1200 rmoveto
          196 vlineto
          0 27 -13 26 -26 25 -26 24 -30 12 -35 0 -35 0 -30 -12 -26 -25 -26 -25 -13 -25 0 -27 rrcurveto
          -196 vlineto
          endchar
        </CharString>
        <CharString name="c">
          0 680 -50 rmoveto
          117 0 112 42 107 84 27 20 13 26 0 32 0 31 -9 27 -19 21 -18 21 -24 10 -30 0 -25 0 -20 -6 -16 -12 -69 -50 -68 -25 -66 0 -92 0 -71 30 -49 60 -50 61 -25 85 0 109 rrcurveto
          0 119 26 88 52 58 53 58 70 29 88 0 56 0 59 -18 59 -37 20 -12 21 -6 21 0 36 0 26 12 17 24 17 24 9 24 0 25 0 31 -12 27 -24 23 -85 77 -103 38 -121 0 rrcurveto
          -96 0 -89 -22 -82 -45 -81 -45 -65 -64 -49 -82 -49 -83 -24 -108 0 -135 0 -117 22 -100 43 -84 43 -84 63 -65 82 -46 82 -47 91 -23 99 0 rrcurveto
          endchar
        </CharString>
        <CharString name="colon">
          0 604 731 rmoveto
          51 0 44 18 35 37 35 36 18 43 0 50 0 50 -18 44 -35 36 -35 37 -44 18 -51 0 -55 0 -45 -18 -35 -37 -36 -36 -18 -44 0 -50 0 -50 18 -43 36 -36 35 -37 45 -18 55 0 rrcurveto
          -781 vmoveto
          51 0 44 18 35 37 35 37 18 43 0 49 0 50 -18 44 -35 37 -35 37 -44 18 -51 0 -55 0 -45 -18 -36 -37 -35 -37 -18 -44 0 -50 0 -49 18 -43 35 -37 36 -37 45 -18 55 0 rrcurveto
          endchar
        </CharString>
        <CharString name="colon_center">
          0 604 116 rmoveto
          57 0 48 19 37 39 37 39 18 43 0 48 0 49 -18 44 -37 39 -37 39 -48 19 -57 0 -60 0 -49 -19 -37 -39 -38 -39 -19 -44 0 -49 0 -49 19 -43 38 -38 37 -39 49 -19 60 0 rrcurveto
          591 vmoveto
          57 0 48 19 37 39 37 38 18 43 0 49 0 49 -18 44 -37 39 -37 38 -48 19 -57 0 -60 0 -49 -19 -37 -38 -38 -39 -19 -44 0 -49 0 -49 19 -43 38 -38 37 -39 49 -19 60 0 rrcurveto
          endchar
        </CharString>
        <CharString name="colon_center_left">
          0 304 116 rmoveto
          57 0 48 19 37 39 37 39 18 43 0 48 0 49 -18 44 -37 39 -37 39 -48 19 -57 0 -60 0 -49 -19 -37 -39 -38 -39 -19 -44 0 -49 0 -49 19 -43 38 -38 37 -39 49 -19 60 0 rrcurveto
          591 vmoveto
          57 0 48 19 37 39 37 38 18 43 0 49 0 49 -18 44 -37 39 -37 38 -48 19 -57 0 -60 0 -49 -19 -37 -38 -38 -39 -19 -44 0 -49 0 -49 19 -43 38 -38 37 -39 49 -19 60 0 rrcurveto
          endchar
        </CharString>
        <CharString name="colon_center_right">
          0 904 116 rmoveto
          57 0 48 19 37 39 37 39 18 43 0 48 0 49 -18 44 -37 39 -37 39 -48 19 -57 0 -60 0 -49 -19 -37 -39 -38 -39 -19 -44 0 -49 0 -49 19 -43 38 -38 37 -39 49 -19 60 0 rrcurveto
          591 vmoveto
          57 0 48 19 37 39 37 38 18 43 0 49 0 49 -18 44 -37 39 -37 38 -48 19 -57 0 -60 0 -49 -19 -37 -38 -38 -39 -19 -44 0 -49 0 -49 19 -43 38 -38 37 -39 49 -19 60 0 rrcurveto
          endchar
        </CharString>
        <CharString name="comma">
          0 373 -437 rmoveto
          162 17 124 63 86 108 60 78 30 87 0 96 0 109 -31 86 -61 61 -37 37 -48 19 -57 0 -77 0 -55 -27 -33 -54 -19 -27 -9 -29 0 -33 0 -51 19 -45 39 -37 38 -37 19 -37 0 -35 rrcurveto
          0 -31 -15 -27 -29 -23 -30 -24 -41 -15 -52 -7 -78 -9 -39 -40 0 -71 7 -68 45 -34 82 0 rrcurveto
          endchar
        </CharString>
        <CharString name="d">
          0 595 171 rmoveto
          -14 hlineto
          -151 4 -78 109 -4 215 0 125 20 90 41 53 40 54 58 27 76 0 59 0 50 -22 41 -43 48 -53 24 -55 0 -57 rrcurveto
          -213 vlineto
          0 -74 -23 -57 -47 -41 -47 -41 -46 -21 -47 0 rrcurveto
          328 -221 rmoveto
          33 0 26 11 21 21 21 22 11 26 0 32 rrcurveto
          1374 vlineto
          0 32 -12 27 -23 22 -24 22 -27 11 -30 0 -30 0 -27 -11 -23 -22 -23 -22 -11 -27 0 -32 rrcurveto
          -424 vlineto
          0 -11 -2 -5 -4 0 -5 0 -6 3 -8 7 -74 63 -77 31 -79 0 -135 0 -105 -51 -77 -103 -77 -103 -38 -139 0 -175 1 -185 34 -142 67 -101 67 -101 109 -50 152 0 92 0 87 41 83 82 rrcurveto
          3 2 1 1 -1 0 -3 0 0 -6 1 -12 11 -72 37 -36 64 0 rrcurveto
          endchar
        </CharString>
        <CharString name="dagger">
          0 940 850 rmoveto
          33 0 27 11 22 22 22 22 11 26 0 29 0 29 -11 26 -22 22 -22 22 -27 11 -33 0 rrcurveto
          -680 hlineto
          -33 0 -27 -11 -22 -22 -22 -22 -11 -26 0 -29 0 -29 11 -26 22 -22 22 -22 27 -11 33 0 rrcurveto
          455 300 rmoveto
          190 vlineto
          0 29 -11 26 -23 22 -22 22 -27 11 -32 0 -32 0 -27 -11 -22 -22 -23 -22 -11 -26 0 -29 rrcurveto
          -190 vlineto
          115 -1200 rmoveto
          32 0 27 11 22 23 23 22 11 25 0 29 rrcurveto
          710 -230 -710 vlineto
          0 -29 11 -25 23 -22 22 -23 27 -11 32 0 rrcurveto
          endchar
        </CharString>
        <CharString name="darkshade">
          0 -600 vmoveto
          1200 2640 -120 -120 -120 120 -120 -120 -120 120 -120 -120 -120 120 -120 -120 -120 120 -120 -120 -120 -120 120 -120 -120 -120 120 -120 -120 -120 120 -120 -120 -120 120 -120 -120 -120 120 -120 -120 -120 120 -120 -120 -120 120 -120 hlineto
          -120 -120 120 -120 -120 -120 120 -120 -120 -120 120 -120 -120 hlineto
          960 2160 rmoveto
          120 120 -120 vlineto
          -360 hmoveto
          120 120 -120 vlineto
          -360 hmoveto
          120 120 -120 vlineto
          -360 hmoveto
          120 120 -120 vlineto
          600 -240 rmoveto
          120 120 -120 vlineto
          -360 hmoveto
          120 120 -120 vlineto
          -360 hmoveto
          120 120 -120 vlineto
          -360 hmoveto
          120 120 -120 vlineto
          600 -240 rmoveto
          120 120 -120 vlineto
          -360 hmoveto
          120 120 -120 vlineto
          -600 hmoveto
          120 120 -120 vlineto
          120 hmoveto
          120 120 -120 vlineto
          360 -240 rmoveto
          120 120 -120 vlineto
          -840 hmoveto
          120 120 -120 vlineto
          360 hmoveto
          120 120 -120 vlineto
          -360 hmoveto
          120 120 -120 vlineto
          -360 -240 rmoveto
          120 120 -120 vlineto
          600 hmoveto
          120 120 -120 vlineto
          -600 hmoveto
          120 120 -120 vlineto
          120 hmoveto
          120 120 -120 vlineto
          -120 -240 rmoveto
          120 120 -120 vlineto
          -600 hmoveto
          120 120 -120 vlineto
          120 hmoveto
          120 120 -120 vlineto
          360 hmoveto
          120 120 -120 vlineto
          -840 -240 rmoveto
          120 120 -120 vlineto
          120 hmoveto
          120 120 -120 vlineto
          120 hmoveto
          120 120 -120 vlineto
          120 hmoveto
          120 120 -120 vlineto
          -120 -240 rmoveto
          120 120 -120 vlineto
          -360 hmoveto
          120 120 -120 vlineto
          -360 hmoveto
          120 120 -120 vlineto
          -360 hmoveto
          120 120 -120 vlineto
          600 -240 rmoveto
          120 120 -120 vlineto
          -360 hmoveto
          120 120 -120 vlineto
          -360 hmoveto
          120 120 -120 vlineto
          -360 hmoveto
          120 120 -120 vlineto
          -120 -240 rmoveto
          120 120 -120 vlineto
          600 hmoveto
          120 120 -120 vlineto
          -360 hmoveto
          120 120 -120 vlineto
          -360 hmoveto
          120 120 -120 vlineto
          endchar
        </CharString>
        <CharString name="divide">
          0 940 490 rmoveto
          33 0 27 11 22 22 22 22 11 26 0 29 0 29 -11 26 -22 22 -22 22 -27 11 -33 0 rrcurveto
          -680 hlineto
          -33 0 -27 -11 -22 -22 -22 -22 -11 -26 0 -29 0 -29 11 -26 22 -22 22 -22 27 -11 33 0 rrcurveto
          342 320 rmoveto
          41 0 35 14 27 29 28 29 14 34 0 38 0 39 -14 35 -28 29 -27 29 -35 14 -41 0 -43 0 -36 -14 -28 -29 -28 -29 -14 -34 0 -40 0 -38 14 -34 28 -29 28 -29 36 -14 43 0 rrcurveto
          -710 vmoveto
          41 0 35 14 27 29 28 29 14 34 0 38 0 39 -14 35 -28 29 -27 29 -35 14 -41 0 -43 0 -36 -14 -28 -29 -28 -29 -14 -34 0 -40 0 -38 14 -34 28 -29 28 -29 36 -14 43 0 rrcurveto
          endchar
        </CharString>
        <CharString name="dollar">
          0 419 -31 rmoveto
          273 vlineto
          -30 25 -25 26 -21 25 -33 42 -39 21 -43 0 -41 0 -31 -13 -21 -25 -21 -25 -10 -29 0 -31 0 -13 3 -13 5 -11 41 -90 102 -84 164 -78 rrcurveto
          362 -11 rmoveto
          50 22 27 12 4 3 61 34 55 47 48 59 47 59 24 74 0 87 0 150 -75 119 -150 87 -55 31 -79 32 -105 32 -163 53 -82 78 -2 105 0 41 11 37 22 33 rrcurveto
          285 vlineto
          -109 -61 -74 -60 -37 -59 -42 -63 -21 -79 0 -95 0 -195 143 -146 286 -95 184 -65 92 -72 0 -78 0 -55 -20 -48 -40 -39 rrcurveto
          -52 623 rmoveto
          689 vlineto
          0 29 -12 26 -23 24 -24 23 -31 12 -39 0 -39 0 -31 -12 -23 -23 -24 -24 -12 -26 0 -29 rrcurveto
          -569 vlineto
          48 -43 86 -40 124 -37 rrcurveto
          -129 -1105 rmoveto
          39 0 31 12 24 24 23 23 12 26 0 29 rrcurveto
          578 vlineto
          -41 35 -86 38 -131 42 rrcurveto
          -693 vlineto
          0 -29 12 -26 24 -23 23 -24 31 -12 39 0 rrcurveto
          360 1285 rmoveto
          77 0 39 37 0 75 0 10 -1 11 -3 12 -19 78 -47 66 -77 53 -24 16 -49 23 -75 31 rrcurveto
          -256 vlineto
          30 -22 18 -21 7 -19 22 -63 41 -31 61 0 rrcurveto
          endchar
        </CharString>
        <CharString name="downwardsarrow">
          0 711 309 rmoveto
          0 6 0 7 1 8 2 31 1 30 0 29 rrcurveto
          1060 -230 -1060 vlineto
          0 -30 1 -30 3 -30 1 -10 1 -8 0 -7 rrcurveto
          -7 7 rlineto
          -19 19 -25 23 -30 26 rrcurveto
          -415 352 rlineto
          -268 vlineto
          603 -513 607 515 rlineto
          268 vlineto
          -413 -352 rlineto
          -36 -31 -27 -24 -18 -18 rrcurveto
          endchar
        </CharString>
        <CharString name="e">
          0 820 632 rmoveto
          -428 hlineto
          -17 0 -9 3 0 7 0 26 7 28 13 28 20 44 30 37 41 30 40 30 46 15 52 0 72 0 56 -25 39 -50 39 -50 20 -53 1 -56 0 -9 -7 -5 -15 0 rrcurveto
          -182 -682 rmoveto
          147 0 128 51 111 101 21 20 11 23 0 26 0 22 -9 23 -19 25 -18 24 -27 12 -35 0 -20 0 -18 -7 -17 -13 -73 -57 -82 -29 -92 0 -68 0 -65 22 -61 45 -61 45 -31 60 0 76 rrcurveto
          0 11 7 6 13 0 rrcurveto
          585 -2 rlineto
          34 0 27 12 19 23 19 24 10 25 0 28 -1 124 -19 101 -34 77 -35 76 -52 62 -70 45 -69 46 -82 23 -97 0 -90 0 -81 -23 -71 -46 -71 -46 -59 -65 -47 -82 -47 -82 -23 -103 0 -125 rrcurveto
          0 -230 73 -165 146 -98 84 -57 98 -28 111 0 rrcurveto
          endchar
        </CharString>
        <CharString name="eight">
          0 598 170 rmoveto
          -87 0 -62 17 -36 33 -37 34 -18 51 0 68 0 56 15 47 30 39 48 62 65 31 84 0 38 0 28 -4 19 -7 52 -22 38 -28 24 -35 25 -35 12 -47 0 -57 0 -69 -18 -51 -35 -33 rrcurveto
          -36 -33 -61 -17 -88 0 rrcurveto
          2 693 rmoveto
          -20 0 -16 2 -13 5 -53 18 -39 23 -26 29 -25 28 -13 38 0 46 0 56 18 44 37 31 37 31 50 16 63 0 63 0 50 -15 37 -31 37 -31 18 -44 0 -57 0 -45 -13 -37 -27 -29 rrcurveto
          -27 -28 -42 -25 -57 -20 -7 -3 -13 -2 -19 0 rrcurveto
          -913 vmoveto
          91 0 80 16 70 32 70 32 54 46 39 59 39 60 19 72 0 84 0 86 -20 76 -41 65 -40 65 -55 52 -70 41 -1 0 -1 1 0 1 0 0 -1 -1 -1 0 135 81 68 107 0 134 rrcurveto
          0 114 -39 94 -78 73 -79 73 -105 37 -134 0 -134 0 -106 -37 -78 -73 -78 -73 -39 -94 0 -114 0 -134 66 -107 133 -81 -1 1 0 0 0 0 0 -1 0 -1 -1 0 -72 -41 -55 -52 -40 -65 rrcurveto
          -39 -65 -20 -76 0 -86 0 -126 41 -98 81 -71 82 -71 113 -35 147 0 rrcurveto
          endchar
        </CharString>
        <CharString name="emdash">
          0 1140 490 rmoveto
          33 0 27 11 22 22 22 22 11 26 0 29 0 29 -11 26 -22 22 -22 22 -27 11 -33 0 rrcurveto
          -1080 hlineto
          -33 0 -27 -11 -22 -22 -22 -22 -11 -26 0 -29 0 -29 11 -26 22 -22 22 -22 27 -11 33 0 rrcurveto
          endchar
        </CharString>
        <CharString name="equal">
          0 940 690 rmoveto
          33 0 27 11 22 22 22 22 11 26 0 29 0 29 -11 26 -22 22 -22 22 -27 11 -33 0 rrcurveto
          -680 hlineto
          -33 0 -27 -11 -22 -22 -22 -22 -11 -26 0 -29 0 -29 11 -26 22 -22 22 -22 27 -11 33 0 rrcurveto
          680 -400 rmoveto
          33 0 27 11 22 22 22 22 11 26 0 29 0 29 -11 26 -22 22 -22 22 -27 11 -33 0 rrcurveto
          -680 hlineto
          -33 0 -27 -11 -22 -22 -22 -22 -11 -26 0 -29 0 -29 11 -26 22 -22 22 -22 27 -11 33 0 rrcurveto
          endchar
        </CharString>
        <CharString name="exclam">
          0 604 -54 rmoveto
          57 0 48 19 37 39 37 39 18 43 0 48 0 49 -18 44 -37 39 -37 39 -48 19 -57 0 -60 0 -49 -19 -37 -39 -38 -39 -19 -44 0 -49 0 -49 19 -43 38 -38 37 -39 49 -19 60 0 rrcurveto
          -4 499 rmoveto
          31 0 28 11 24 22 24 21 13 24 1 25 rrcurveto
          25 806 rlineto
          0 31 -14 30 -29 28 -29 28 -35 14 -39 0 -40 0 -34 -14 -29 -28 -29 -29 -14 -30 0 -31 rrcurveto
          25 -805 rlineto
          1 -25 13 -24 24 -21 24 -22 28 -11 31 0 rrcurveto
          endchar
        </CharString>
        <CharString name="exclam_exclam">
          0 -396 -54 rmoveto
          57 0 48 19 37 39 37 39 18 43 0 48 0 49 -18 44 -37 39 -37 39 -48 19 -57 0 -60 0 -49 -19 -37 -39 -38 -39 -19 -44 0 -49 0 -49 19 -43 38 -38 37 -39 49 -19 60 0 rrcurveto
          -4 499 rmoveto
          31 0 28 11 24 22 24 21 13 24 1 25 rrcurveto
          25 806 rlineto
          0 31 -14 30 -29 28 -29 28 -35 14 -39 0 -40 0 -34 -14 -29 -28 -29 -29 -14 -30 0 -31 rrcurveto
          25 -805 rlineto
          1 -25 13 -24 24 -21 24 -22 28 -11 31 0 rrcurveto
          804 -499 rmoveto
          57 0 48 19 37 39 37 39 18 43 0 48 0 49 -18 44 -37 39 -37 39 -48 19 -57 0 -60 0 -49 -19 -37 -39 -38 -39 -19 -44 0 -49 0 -49 19 -43 38 -38 37 -39 49 -19 60 0 rrcurveto
          -4 499 rmoveto
          31 0 28 11 24 22 24 21 13 24 1 25 rrcurveto
          25 806 rlineto
          0 31 -14 30 -29 28 -29 28 -35 14 -39 0 -40 0 -34 -14 -29 -28 -29 -29 -14 -30 0 -31 rrcurveto
          25 -805 rlineto
          1 -25 13 -24 24 -21 24 -22 28 -11 31 0 rrcurveto
          endchar
        </CharString>
        <CharString name="f">
          0 513 -50 rmoveto
          33 0 28 11 22 22 22 22 11 26 0 29 rrcurveto
          748 vlineto
          0 7 2 5 4 4 3 4 4 2 4 0 rrcurveto
          356 hlineto
          33 0 27 11 22 22 22 22 11 26 0 29 0 29 -11 26 -22 22 -22 22 -27 11 -33 0 rrcurveto
          -356 hlineto
          -4 0 -4 2 -4 3 -3 3 -2 4 0 4 rrcurveto
          102 vlineto
          0 44 14 38 27 32 28 32 35 16 43 0 rrcurveto
          208 hlineto
          33 0 27 11 22 22 22 22 11 26 0 29 0 29 -11 26 -22 22 -22 22 -27 11 -33 0 rrcurveto
          -246 hlineto
          -66 0 -59 -16 -51 -33 -52 -32 -40 -42 -29 -52 -29 -52 -14 -56 0 -61 rrcurveto
          -140 vlineto
          0 -4 -2 -4 -3 -3 -4 -3 -4 -2 -4 0 rrcurveto
          -145 hlineto
          -33 0 -27 -11 -22 -22 -22 -22 -11 -26 0 -29 0 -29 11 -26 22 -22 22 -22 27 -11 33 0 rrcurveto
          145 hlineto
          4 0 4 -2 3 -4 4 -4 2 -5 0 -7 rrcurveto
          -748 vlineto
          0 -29 11 -26 22 -22 22 -22 27 -11 33 0 rrcurveto
          endchar
        </CharString>
        <CharString name="five">
          0 542 -50 rmoveto
          147 0 116 44 87 88 80 87 43 105 8 124 2 26 1 27 0 28 0 259 -182 130 -364 0 rrcurveto
          -60 hlineto
          -6 0 -6 2 -5 5 -5 4 -3 5 0 6 rrcurveto
          304 vlineto
          0 6 3 5 6 5 5 5 6 2 5 0 rrcurveto
          464 hlineto
          32 0 26 11 21 21 21 22 11 24 0 28 0 28 -11 25 -21 22 -21 21 -26 11 -32 0 rrcurveto
          -600 hlineto
          -33 0 -28 -11 -23 -23 -23 -23 -12 -26 0 -31 rrcurveto
          -548 vlineto
          0 -30 12 -26 23 -23 24 -23 28 -12 32 0 rrcurveto
          163 hlineto
          118 0 86 -17 54 -35 54 -35 27 -46 0 -56 0 -22 -1 -21 -3 -19 -23 -153 -82 -78 -142 -2 -116 0 -75 5 -32 11 -20 6 -23 3 -24 0 -11 0 -14 -3 -18 -6 -17 -6 -17 -12 -14 -17 rrcurveto
          -15 -17 -7 -25 0 -32 0 -27 10 -24 20 -20 39 -37 127 -19 214 0 rrcurveto
          endchar
        </CharString>
        <CharString name="four">
          0 697 505 rmoveto
          -342 hlineto
          3 0 1 -1 0 0 0 1 59 91 119 180 118 180 58 90 -2 -1 -3 -1 -2 -1 0 0 -10 0 -5 3 0 5 rrcurveto
          -547 vlineto
          0 1 2 0 4 0 rrcurveto
          109 -555 rmoveto
          32 0 27 11 22 22 22 22 11 26 0 29 rrcurveto
          225 vlineto
          0 0 -2 0 -4 0 rrcurveto
          77 hlineto
          32 0 27 11 22 23 23 22 11 25 0 29 0 29 -11 25 -23 22 -22 23 -27 11 -32 0 rrcurveto
          -76 hlineto
          3 0 2 -1 0 0 rrcurveto
          814 vlineto
          0 34 -13 31 -27 27 -26 27 -32 13 -39 0 -46 0 -38 -20 -32 -41 rrcurveto
          -579 -869 rlineto
          -16 -27 -8 -27 0 -28 0 -40 15 -36 31 -31 30 -31 37 -15 44 0 rrcurveto
          475 hlineto
          -3 0 -2 1 0 0 rrcurveto
          -226 vlineto
          0 -29 11 -26 22 -22 22 -22 27 -11 33 0 rrcurveto
          endchar
        </CharString>
        <CharString name="fullblock">
          0 -600 vmoveto
          1200 2640 -1200 hlineto
          endchar
        </CharString>
        <CharString name="g">
          0 568 188 rmoveto
          -73 0 -56 27 -40 54 -41 54 -20 83 0 111 4 228 79 116 151 4 55 0 51 -21 46 -42 47 -42 23 -57 0 -73 rrcurveto
          -211 vlineto
          0 -57 -24 -55 -48 -52 -42 -45 -51 -22 -61 0 rrcurveto
          -4 -688 rmoveto
          138 0 111 40 84 79 85 80 42 108 0 136 rrcurveto
          1044 vlineto
          0 32 -10 27 -20 22 -21 21 -26 11 -34 0 -65 0 -38 -30 -10 -60 -2 -12 1 -6 3 0 1 0 0 1 -2 2 -67 69 -88 35 -109 0 -137 0 -105 -50 -75 -101 -74 -100 -38 -150 -1 -198 rrcurveto
          0 -162 38 -132 77 -102 77 -103 105 -51 135 0 93 0 77 25 61 50 8 7 7 4 4 0 3 0 2 -6 0 -12 rrcurveto
          -2 -133 rlineto
          0 -43 -19 -40 -37 -35 -38 -35 -57 -19 -77 -1 -59 0 -48 9 -38 17 -38 17 -39 28 -39 38 -21 19 -25 10 -29 0 -32 0 -30 -16 -27 -33 -15 -18 -7 -20 0 -23 0 -25 9 -22 18 -21 rrcurveto
          103 -115 141 -57 176 0 rrcurveto
          endchar
        </CharString>
        <CharString name="grave">
          0 756 1000 rmoveto
          30 0 27 11 25 23 21 24 11 26 0 27 0 27 -11 25 -21 24 rrcurveto
          -309 309 rlineto
          -25 23 -28 11 -30 0 -31 0 -28 -11 -24 -23 -22 -23 -11 -25 0 -27 0 -28 11 -26 22 -24 rrcurveto
          308 -308 rlineto
          26 -23 28 -12 31 0 rrcurveto
          endchar
        </CharString>
        <CharString name="greater">
          0 255 127 rmoveto
          17 0 17 4 18 8 rrcurveto
          693 364 rlineto
          41 23 20 33 0 41 0 20 -5 18 -11 18 -10 18 -16 14 -20 10 rrcurveto
          -690 355 rlineto
          -18 9 -18 4 -18 0 -31 0 -27 -11 -22 -22 -23 -22 -11 -25 0 -29 0 -40 21 -34 42 -25 rrcurveto
          472 -250 rlineto
          4 -3 2 -2 0 -3 0 -4 -2 -4 -3 -2 rrcurveto
          -475 -254 rlineto
          -42 -25 -21 -34 0 -40 0 -29 11 -25 23 -22 23 -23 27 -11 32 0 rrcurveto
          endchar
        </CharString>
        <CharString name="greater_greater">
          0 -382 597 rmoveto
          8 1 vlineto
          899 -8 rmoveto
          8 1 vlineto
          -1314 -482 rmoveto
          22 0 21 5 20 10 rrcurveto
          691 362 rlineto
          21 11 16 14 12 19 11 19 6 18 0 19 0 18 -6 18 -11 19 -12 19 -16 14 -21 11 rrcurveto
          -690 355 rlineto
          -21 11 -22 5 -21 0 -33 0 -30 -12 -26 -24 -26 -25 -13 -25 0 -27 0 -18 6 -19 13 -19 12 -19 16 -16 20 -11 rrcurveto
          474 -250 rlineto
          1 13 2 6 3 0 3 0 1 -4 0 -8 0 -9 -3 -6 -7 -4 rrcurveto
          -476 -254 rlineto
          -20 -11 -16 -16 -12 -19 -13 -19 -6 -19 0 -18 0 -27 13 -25 27 -25 26 -25 30 -12 34 0 rrcurveto
          900 hmoveto
          22 0 21 5 20 10 rrcurveto
          691 362 rlineto
          21 11 16 14 12 19 11 19 6 18 0 19 0 18 -6 18 -11 19 -12 19 -16 14 -21 11 rrcurveto
          -690 355 rlineto
          -21 11 -22 5 -21 0 -33 0 -30 -12 -26 -24 -26 -25 -13 -25 0 -27 0 -18 6 -19 13 -19 12 -19 16 -16 20 -11 rrcurveto
          474 -250 rlineto
          1 13 2 6 3 0 3 0 1 -4 0 -8 0 -9 -3 -6 -7 -4 rrcurveto
          -476 -254 rlineto
          -20 -11 -16 -16 -12 -19 -13 -19 -6 -19 0 -18 0 -27 13 -25 27 -25 26 -25 30 -12 34 0 rrcurveto
          endchar
        </CharString>
        <CharString name="greater_greater_greater">
          0 -532 597 rmoveto
          8 1 vlineto
          899 -8 rmoveto
          8 1 vlineto
          -1801 -8 rmoveto
          8 1 vlineto
          486 -482 rmoveto
          22 0 21 5 20 10 rrcurveto
          691 362 rlineto
          21 11 16 14 12 19 11 19 6 18 0 19 0 18 -6 18 -11 19 -12 19 -16 14 -21 11 rrcurveto
          -690 355 rlineto
          -21 11 -22 5 -21 0 -33 0 -30 -12 -26 -24 -26 -25 -13 -25 0 -27 0 -18 6 -19 13 -19 12 -19 16 -16 20 -11 rrcurveto
          474 -250 rlineto
          1 13 2 6 3 0 3 0 1 -4 0 -8 0 -9 -3 -6 -7 -4 rrcurveto
          -476 -254 rlineto
          -20 -11 -16 -16 -12 -19 -13 -19 -6 -19 0 -18 0 -27 13 -25 27 -25 26 -25 30 -12 34 0 rrcurveto
          900 hmoveto
          22 0 21 5 20 10 rrcurveto
          691 362 rlineto
          21 11 16 14 12 19 11 19 6 18 0 19 0 18 -6 18 -11 19 -12 19 -16 14 -21 11 rrcurveto
          -690 355 rlineto
          -21 11 -22 5 -21 0 -33 0 -30 -12 -26 -24 -26 -25 -13 -25 0 -27 0 -18 6 -19 13 -19 12 -19 16 -16 20 -11 rrcurveto
          474 -250 rlineto
          1 13 2 6 3 0 3 0 1 -4 0 -8 0 -9 -3 -6 -7 -4 rrcurveto
          -476 -254 rlineto
          -20 -11 -16 -16 -12 -19 -13 -19 -6 -19 0 -18 0 -27 13 -25 27 -25 26 -25 30 -12 34 0 rrcurveto
          -1800 hmoveto
          22 0 21 5 20 10 rrcurveto
          691 362 rlineto
          21 11 16 14 12 19 11 19 6 18 0 19 0 18 -6 18 -11 19 -12 19 -16 14 -21 11 rrcurveto
          -690 355 rlineto
          -21 11 -22 5 -21 0 -33 0 -30 -12 -26 -24 -26 -25 -13 -25 0 -27 0 -18 6 -19 13 -19 12 -19 16 -16 20 -11 rrcurveto
          474 -250 rlineto
          1 13 2 6 3 0 3 0 1 -4 0 -8 0 -9 -3 -6 -7 -4 rrcurveto
          -476 -254 rlineto
          -20 -11 -16 -16 -12 -19 -13 -19 -6 -19 0 -18 0 -27 13 -25 27 -25 26 -25 30 -12 34 0 rrcurveto
          endchar
        </CharString>
        <CharString name="h">
          0 939 -50 rmoveto
          37 0 28 11 19 22 19 22 10 27 0 32 rrcurveto
          581 vlineto
          0 160 -34 116 -67 72 -63 71 -94 36 -124 0 -105 -1 -98 -49 -93 -97 -2 -3 -1 -1 3 0 7 0 3 1 0 3 rrcurveto
          481 vlineto
          0 32 -11 27 -23 23 -23 23 -27 11 -33 0 -33 0 -27 -11 -23 -23 -23 -23 -11 -27 0 -32 rrcurveto
          -1370 vlineto
          0 -32 11 -28 21 -21 21 -22 29 -11 35 0 37 0 28 11 19 22 19 22 10 27 0 32 rrcurveto
          548 vlineto
          0 83 34 65 67 47 55 35 54 19 55 1 116 0 59 -76 2 -153 rrcurveto
          -569 vlineto
          0 -33 11 -27 22 -21 21 -22 28 -11 35 0 rrcurveto
          endchar
        </CharString>
        <CharString name="hyphen">
          0 840 490 rmoveto
          33 0 27 11 22 22 22 22 11 26 0 29 0 29 -11 26 -22 22 -22 22 -27 11 -33 0 rrcurveto
          -480 hlineto
          -33 0 -27 -11 -22 -22 -22 -22 -11 -26 0 -29 0 -29 11 -26 22 -22 22 -22 27 -11 33 0 rrcurveto
          endchar
        </CharString>
        <CharString name="hyphenminus">
          0 940 486 rmoveto
          35 0 31 12 25 25 25 24 13 26 0 27 0 27 -13 26 -25 25 -25 24 -31 12 -35 0 rrcurveto
          -680 hlineto
          -35 0 -31 -12 -25 -24 -25 -25 -13 -26 0 -27 0 -27 13 -26 25 -24 25 -25 31 -12 35 0 rrcurveto
          endchar
        </CharString>
        <CharString name="i">
          0 1015 -23 rmoveto
          30 0 27 11 23 21 24 21 12 26 0 32 0 35 -12 28 -24 20 -23 21 -27 10 -30 0 rrcurveto
          -241 hlineto
          -11 0 -6 8 0 16 rrcurveto
          616 vlineto
          0 57 -20 48 -41 41 -41 41 -49 21 -59 0 rrcurveto
          -283 hlineto
          -31 0 -27 -11 -21 -21 -22 -21 -11 -27 0 -33 0 -32 11 -27 22 -21 22 -21 27 -11 30 0 rrcurveto
          199 hlineto
          16 0 15 -6 13 -13 13 -13 7 -17 0 -22 rrcurveto
          -528 vlineto
          0 -16 -6 -8 -13 0 rrcurveto
          -242 hlineto
          -28 0 -26 -10 -23 -21 -23 -20 -12 -28 0 -35 0 -32 12 -26 23 -21 23 -21 26 -11 28 0 rrcurveto
          323 1258 rmoveto
          47 0 39 17 33 33 33 33 16 39 0 45 0 46 -16 39 -33 33 -33 33 -39 17 -47 0 -49 0 -40 -17 -32 -33 -32 -33 -16 -39 0 -46 0 -45 16 -39 32 -33 32 -33 40 -17 49 0 rrcurveto
          endchar
        </CharString>
        <CharString name="j">
          0 466 -500 rmoveto
          138 0 111 40 85 80 81 73 42 97 2 121 rrcurveto
          930 vlineto
          0 55 -20 49 -39 42 -40 42 -48 21 -57 0 rrcurveto
          -370 hlineto
          -33 0 -27 -12 -22 -23 -21 -23 -11 -26 0 -30 0 -30 11 -26 21 -23 22 -23 27 -11 33 0 rrcurveto
          285 hlineto
          18 0 14 -6 11 -12 11 -12 5 -16 0 -20 rrcurveto
          -1 -872 rlineto
          0 -43 -19 -40 -37 -35 -38 -35 -57 -19 -77 -1 -32 0 -32 9 -32 17 -32 17 -36 27 -40 39 -21 19 -25 10 -29 0 -32 0 -30 -16 -27 -33 -15 -18 -7 -20 0 -23 0 -25 9 -22 18 -21 rrcurveto
          103 -115 121 -57 139 0 rrcurveto
          294 1739 rmoveto
          46 0 39 17 32 33 32 33 16 39 0 45 0 44 -16 38 -32 33 -32 33 -39 16 -46 0 -47 0 -40 -16 -32 -33 -31 -33 -16 -38 0 -44 0 -45 16 -39 31 -33 32 -33 40 -17 47 0 rrcurveto
          endchar
        </CharString>
        <CharString name="k">
          0 987 -50 rmoveto
          81 2 40 37 0 72 0 25 -6 21 -12 17 rrcurveto
          -318 460 rlineto
          -8 11 -4 10 0 10 0 14 7 15 13 14 rrcurveto
          229 254 rlineto
          21 23 10 25 0 30 0 32 -11 26 -23 21 -23 21 -29 10 -35 0 -35 0 -31 -15 -28 -31 rrcurveto
          -392 -421 rlineto
          -2 -3 -5 -1 -6 0 -8 0 -4 7 0 14 rrcurveto
          784 vlineto
          0 31 -11 27 -22 23 -22 23 -28 12 -35 0 -32 0 -27 -11 -22 -23 -21 -22 -11 -27 0 -31 rrcurveto
          -1366 vlineto
          0 -33 10 -29 21 -23 21 -23 29 -12 36 0 35 0 28 12 21 24 20 24 10 28 0 32 rrcurveto
          148 vlineto
          0 31 12 28 24 24 rrcurveto
          129 137 rlineto
          2 2 5 1 7 0 2 0 3 -3 4 -6 rrcurveto
          283 -425 rlineto
          25 -38 36 -19 47 0 rrcurveto
          endchar
        </CharString>
        <CharString name="l">
          0 815 -50 rmoveto
          116 1 79 28 43 54 16 20 8 24 0 26 0 23 -6 20 -11 17 -12 17 -15 12 -17 7 -17 7 -15 3 -15 0 -14 0 -16 -5 -16 -9 -29 -17 -29 -8 -31 0 -111 0 -56 89 0 179 rrcurveto
          885 vlineto
          0 66 -21 55 -41 42 -41 43 -56 21 -70 0 rrcurveto
          -217 hlineto
          -31 0 -28 -10 -22 -21 -23 -21 -11 -28 0 -34 0 -32 11 -25 23 -20 23 -19 27 -10 31 0 rrcurveto
          133 hlineto
          28 0 20 -8 14 -15 14 -15 7 -22 0 -30 rrcurveto
          -838 vlineto
          1 -301 126 -151 251 0 rrcurveto
          endchar
        </CharString>
        <CharString name="left_arrow_single">
          0 -577 502 rmoveto
          -8 1 -91 90 rlineto
          -1 6 hlineto
          93 93 rlineto
          7 -1 hlineto
          92 -93 rlineto
          -3 vlineto
          -91 -91 rlineto
          193 -477 rmoveto
          31 0 26 11 23 23 23 23 11 26 0 31 0 26 -11 27 -22 27 rrcurveto
          -113 113 rlineto
          -1 0 -1 1 0 1 rrcurveto
          6 vlineto
          115 119 rlineto
          18 17 21 8 22 0 rrcurveto
          1181 hlineto
          29 0 27 12 23 23 23 23 12 26 0 30 0 29 -12 27 -23 23 -23 23 -27 12 -29 0 rrcurveto
          -1180 hlineto
          -24 0 -20 8 -17 17 rrcurveto
          -114 114 rlineto
          -1 0 -1 3 0 4 rrcurveto
          115 115 rlineto
          22 27 11 27 0 27 0 32 -12 27 -24 23 -24 22 -26 11 -28 0 -27 0 -26 -11 -27 -22 rrcurveto
          -457 -459 rlineto
          -23 -25 -11 -27 0 -29 0 -32 11 -27 23 -23 rrcurveto
          457 -457 rlineto
          23 -21 26 -11 31 0 rrcurveto
          endchar
        </CharString>
        <CharString name="left_right_arrow_double">
          0 523 446 rmoveto
          -2 0 -12 12 -23 23 -25 23 -27 11 -30 0 rrcurveto
          -2008 hlineto
          -30 0 -27 -11 -25 -23 -23 -23 -12 -12 -2 0 -2 0 -26 25 -50 50 -51 50 -25 26 0 2 0 1 26 27 51 51 51 51 26 25 2 0 1 0 13 -12 24 -24 25 -21 26 -11 29 0 rrcurveto
          2006 hlineto
          29 0 27 11 25 22 23 23 13 12 1 0 2 0 27 -25 51 -51 51 -51 25 -27 0 -1 0 -2 -25 -26 -50 -50 -51 -50 -26 -25 -2 0 rrcurveto
          -140 -419 rmoveto
          28 0 26 11 25 21 rrcurveto
          458 458 rlineto
          23 25 11 27 0 30 0 31 -11 27 -23 23 rrcurveto
          -458 459 rlineto
          -25 21 -26 11 -28 0 -31 0 -27 -11 -22 -22 -23 -22 -11 -27 0 -32 0 -28 11 -27 21 -25 38 -37 19 -20 0 -2 0 -3 -319 -1 -639 0 -639 0 -319 1 0 3 0 2 19 20 38 37 rrcurveto
          21 25 11 27 0 28 0 32 -11 27 -22 22 -23 22 -27 11 -31 0 -28 0 -26 -11 -25 -21 rrcurveto
          -458 -459 rlineto
          -23 -23 -11 -27 0 -31 0 -30 11 -27 23 -25 rrcurveto
          458 -458 rlineto
          25 -21 26 -11 28 0 31 0 27 11 23 23 22 22 11 27 0 31 0 31 -11 26 -22 23 -39 39 -20 20 0 1 0 4 320 2 641 0 641 0 320 -2 0 -4 rrcurveto
          -1 -3 -58 -57 rlineto
          -22 -23 -11 -26 0 -31 0 -31 11 -27 23 -22 22 -23 27 -11 31 0 rrcurveto
          endchar
        </CharString>
        <CharString name="left_right_arrow_double_long">
          0 523 446 rmoveto
          -2 0 -12 12 -23 23 -25 23 -27 11 -30 0 rrcurveto
          -3208 hlineto
          -30 0 -27 -11 -25 -23 -23 -23 -12 -12 -2 0 -2 0 -26 25 -50 50 -51 50 -25 26 0 2 0 1 26 27 51 51 51 51 26 25 2 0 1 0 13 -12 24 -24 25 -21 26 -11 29 0 rrcurveto
          3206 hlineto
          29 0 27 11 25 22 23 23 13 12 1 0 2 0 27 -25 51 -51 51 -51 25 -27 0 -1 0 -2 -25 -26 -50 -50 -51 -50 -26 -25 -2 0 rrcurveto
          -140 -419 rmoveto
          28 0 26 11 25 21 rrcurveto
          458 458 rlineto
          23 25 11 27 0 30 0 31 -11 27 -23 23 rrcurveto
          -458 459 rlineto
          -25 21 -26 11 -28 0 -31 0 -27 -11 -22 -22 -23 -22 -11 -27 0 -32 0 -28 11 -27 21 -25 38 -37 19 -20 0 -2 0 -3 -519 -1 -1039 0 -1039 0 -519 1 0 3 0 2 19 20 38 37 rrcurveto
          21 25 11 27 0 28 0 32 -11 27 -22 22 -23 22 -27 11 -31 0 -28 0 -26 -11 -25 -21 rrcurveto
          -458 -459 rlineto
          -23 -23 -11 -27 0 -31 0 -30 11 -27 23 -25 rrcurveto
          458 -458 rlineto
          25 -21 26 -11 28 0 31 0 27 11 23 23 22 22 11 27 0 31 0 31 -11 26 -22 23 -39 39 -20 20 0 1 0 4 520 2 1041 0 1041 0 520 -2 0 -4 rrcurveto
          -1 -3 -58 -57 rlineto
          -22 -23 -11 -26 0 -31 0 -31 11 -27 23 -22 22 -23 27 -11 31 0 rrcurveto
          endchar
        </CharString>
        <CharString name="left_right_arrow_single">
          0 -1777 502 rmoveto
          -8 1 -91 90 rlineto
          -1 6 hlineto
          93 93 rlineto
          7 -1 hlineto
          92 -93 rlineto
          -3 vlineto
          -91 -91 rlineto
          193 -477 rmoveto
          31 0 26 11 23 23 23 23 11 26 0 31 0 26 -11 27 -22 27 rrcurveto
          -113 113 rlineto
          -1 0 -1 1 0 1 rrcurveto
          6 vlineto
          115 119 rlineto
          18 17 21 8 22 0 rrcurveto
          2381 hlineto
          29 0 27 12 23 23 23 23 12 26 0 30 0 29 -12 27 -23 23 -23 23 -27 12 -29 0 rrcurveto
          -2380 hlineto
          -24 0 -20 8 -17 17 rrcurveto
          -114 114 rlineto
          -1 0 -1 3 0 4 rrcurveto
          115 115 rlineto
          22 27 11 27 0 27 0 32 -12 27 -24 23 -24 22 -26 11 -28 0 -27 0 -26 -11 -27 -22 rrcurveto
          -457 -459 rlineto
          -23 -25 -11 -27 0 -29 0 -32 11 -27 23 -23 rrcurveto
          457 -457 rlineto
          23 -21 26 -11 31 0 rrcurveto
          endchar
        </CharString>
        <CharString name="left_right_arrow_single_long">
          0 581 502 rmoveto
          -2 0 -16 15 -31 31 -31 31 -16 16 0 2 0 1 16 17 31 31 31 31 16 15 2 0 2 0 17 -16 31 -31 31 -31 15 -16 0 -1 0 -1 -15 -16 -31 -31 -31 -31 -17 -16 -2 0 rrcurveto
          -3562 hmoveto
          -2 0 -16 16 -31 31 -31 31 -16 16 0 1 0 1 16 16 31 31 31 31 16 16 2 0 2 0 17 -15 31 -31 31 -31 15 -17 0 -1 0 -2 -15 -16 -31 -31 -31 -31 -17 -15 -2 0 rrcurveto
          3364 -475 rmoveto
          28 0 26 10 25 21 rrcurveto
          459 459 rlineto
          22 25 11 27 0 29 0 31 -11 27 -23 23 rrcurveto
          -458 460 rlineto
          -25 21 -26 11 -28 0 -29 0 -27 -11 -23 -21 -23 -22 -12 -28 0 -33 0 -29 11 -26 21 -25 77 -77 39 -40 0 -1 0 -2 -39 -40 -77 -77 -7 -7 -9 -5 -12 -5 -13 -5 -11 -3 -9 0 rrcurveto
          -2880 hlineto
          -9 0 -11 3 -12 5 -13 5 -9 5 -7 7 -77 77 -39 40 0 2 0 1 39 40 77 77 21 25 11 26 0 29 0 33 -12 28 -23 22 -23 21 -27 11 -29 0 -28 0 -26 -11 -25 -21 rrcurveto
          -458 -460 rlineto
          -23 -23 -11 -27 0 -31 0 -29 11 -27 22 -25 rrcurveto
          459 -459 rlineto
          25 -21 26 -10 28 0 32 0 27 11 22 22 22 22 11 27 0 32 0 28 -11 26 -21 25 -77 77 -39 40 0 2 0 2 38 41 77 79 7 6 9 6 13 5 13 5 10 3 9 0 rrcurveto
          2881 hlineto
          9 0 11 -2 13 -5 12 -5 9 -6 7 -7 77 -79 39 -41 0 -2 0 -2 -39 -40 -77 -77 -21 -25 -11 -26 0 -28 0 -32 11 -27 22 -22 22 -22 27 -11 32 0 rrcurveto
          endchar
        </CharString>
        <CharString name="leftfiveeighthsblock">
          0 -600 vmoveto
          750 2640 -750 hlineto
          endchar
        </CharString>
        <CharString name="lefthalfblock">
          0 -600 vmoveto
          600 2640 -600 hlineto
          endchar
        </CharString>
        <CharString name="leftoneeighthblock">
          0 -600 vmoveto
          150 2640 -150 hlineto
          endchar
        </CharString>
        <CharString name="leftonequarterblock">
          0 -600 vmoveto
          300 2640 -300 hlineto
          endchar
        </CharString>
        <CharString name="leftrightarrow">
          0 139 567 rmoveto
          6 -1 9 -1 11 -1 28 -3 25 -1 22 0 rrcurveto
          720 hlineto
          23 0 26 1 27 2 9 1 8 0 6 1 -6 -6 -7 -7 -9 -8 -18 -17 -16 -18 -14 -19 rrcurveto
          -348 -440 rlineto
          271 hlineto
          477 610 -479 610 rlineto
          -269 hlineto
          348 -439 rlineto
          18 -21 18 -19 17 -17 6 -8 6 -6 5 -5 -6 1 -8 0 -9 1 -27 2 -26 1 -23 0 rrcurveto
          -720 hlineto
          -22 0 -25 -1 -28 -1 -9 0 -7 -1 -6 0 5 5 7 7 8 7 18 17 16 18 14 19 rrcurveto
          348 440 rlineto
          -271 hlineto
          -477 -610 479 -610 rlineto
          269 hlineto
          -348 439 rlineto
          -18 21 -17 19 -17 18 rrcurveto
          endchar
        </CharString>
        <CharString name="leftseveneighthsblock">
          0 -600 vmoveto
          1050 2640 -1050 hlineto
          endchar
        </CharString>
        <CharString name="leftthreeeighthsblock">
          0 -600 vmoveto
          400 2640 -400 hlineto
          endchar
        </CharString>
        <CharString name="leftthreequartersblock">
          0 -600 vmoveto
          900 2640 -900 hlineto
          endchar
        </CharString>
        <CharString name="leftwardsarrow">
          0 379 567 rmoveto
          6 -1 9 -1 11 -1 28 -3 25 -1 22 0 rrcurveto
          685 200 -685 hlineto
          -22 0 -25 -1 -28 -1 -9 0 -7 -1 -6 0 5 5 7 7 8 7 18 17 16 18 14 19 rrcurveto
          348 440 rlineto
          -271 hlineto
          -477 -610 479 -610 rlineto
          269 hlineto
          -348 439 rlineto
          -18 21 -17 19 -17 18 rrcurveto
          endchar
        </CharString>
        <CharString name="less">
          0 946 127 rmoveto
          32 0 27 11 22 23 23 22 11 25 0 29 0 40 -21 33 -41 26 rrcurveto
          -475 254 rlineto
          -3 2 -2 4 0 4 0 3 2 2 3 3 rrcurveto
          473 250 rlineto
          41 26 21 33 0 40 0 29 -11 25 -22 22 -22 22 -27 11 -31 0 -19 0 -18 -4 -17 -9 rrcurveto
          -691 -355 rlineto
          -20 -10 -16 -14 -10 -18 -11 -18 -5 -18 0 -20 0 -41 20 -33 41 -23 rrcurveto
          693 -364 rlineto
          18 -8 17 -4 18 0 rrcurveto
          endchar
        </CharString>
        <CharString name="less_greater">
          0 1 237 rmoveto
          -445 237 -223 121 0 5 0 3 222 119 445 234 rrcurveto
          668 -352 rlineto
          -11 vlineto
          -663 -606 rmoveto
          21 0 26 9 31 17 rrcurveto
          927 488 rlineto
          43 23 22 33 0 43 0 19 -5 18 -11 19 -11 18 -16 15 -23 11 rrcurveto
          -936 482 rlineto
          -28 14 -26 7 -24 0 -17 0 -22 -7 -29 -14 rrcurveto
          -936 -482 rlineto
          -23 -11 -16 -15 -11 -18 -11 -19 -5 -18 0 -19 0 -42 22 -33 43 -24 rrcurveto
          929 -489 rlineto
          31 -17 29 -8 26 0 rrcurveto
          endchar
        </CharString>
        <CharString name="less_less">
          0 796 123 rmoveto
          34 0 30 12 26 25 26 25 13 25 0 27 0 18 -6 19 -12 19 -12 19 -16 16 -20 11 rrcurveto
          -476 254 rlineto
          -7 4 -3 6 0 9 0 8 1 4 3 0 4 0 2 -9 0 -18 rrcurveto
          8 vlineto
          474 250 rlineto
          20 11 16 16 12 19 12 19 6 19 0 18 0 27 -13 25 -25 25 -26 24 -30 12 -33 0 -23 0 -21 -5 -20 -11 rrcurveto
          -690 -355 rlineto
          -21 -11 -17 -14 -11 -19 -12 -19 -6 -18 0 -18 0 -19 6 -18 12 -19 11 -19 16 -14 21 -11 rrcurveto
          692 -362 rlineto
          20 -10 21 -5 22 0 rrcurveto
          -900 hmoveto
          34 0 30 12 26 25 26 25 13 25 0 27 0 18 -6 19 -12 19 -12 19 -16 16 -20 11 rrcurveto
          -476 254 rlineto
          -7 4 -3 6 0 9 0 8 1 4 3 0 4 0 2 -9 0 -18 rrcurveto
          8 vlineto
          474 250 rlineto
          20 11 16 16 12 19 12 19 6 19 0 18 0 27 -13 25 -25 25 -26 24 -30 12 -33 0 -23 0 -21 -5 -20 -11 rrcurveto
          -690 -355 rlineto
          -21 -11 -17 -14 -11 -19 -12 -19 -6 -18 0 -18 0 -19 6 -18 12 -19 11 -19 16 -14 21 -11 rrcurveto
          692 -362 rlineto
          20 -10 21 -5 22 0 rrcurveto
          endchar
        </CharString>
        <CharString name="less_less_less">
          0 646 123 rmoveto
          34 0 30 12 26 25 26 25 13 25 0 27 0 18 -6 19 -12 19 -12 19 -16 16 -20 11 rrcurveto
          -476 254 rlineto
          -7 4 -3 6 0 9 0 8 1 4 3 0 4 0 2 -9 0 -18 rrcurveto
          8 vlineto
          474 250 rlineto
          20 11 16 16 12 19 12 19 6 19 0 18 0 27 -13 25 -25 25 -26 24 -30 12 -33 0 -23 0 -21 -5 -20 -11 rrcurveto
          -690 -355 rlineto
          -21 -11 -17 -14 -11 -19 -12 -19 -6 -18 0 -18 0 -19 6 -18 12 -19 11 -19 16 -14 21 -11 rrcurveto
          692 -362 rlineto
          20 -10 21 -5 22 0 rrcurveto
          -900 hmoveto
          34 0 30 12 26 25 26 25 13 25 0 27 0 18 -6 19 -12 19 -12 19 -16 16 -20 11 rrcurveto
          -476 254 rlineto
          -7 4 -3 6 0 9 0 8 1 4 3 0 4 0 2 -9 0 -18 rrcurveto
          8 vlineto
          474 250 rlineto
          20 11 16 16 12 19 12 19 6 19 0 18 0 27 -13 25 -25 25 -26 24 -30 12 -33 0 -23 0 -21 -5 -20 -11 rrcurveto
          -690 -355 rlineto
          -21 -11 -17 -14 -11 -19 -12 -19 -6 -18 0 -18 0 -19 6 -18 12 -19 11 -19 16 -14 21 -11 rrcurveto
          692 -362 rlineto
          20 -10 21 -5 22 0 rrcurveto
          -900 hmoveto
          34 0 30 12 26 25 26 25 13 25 0 27 0 18 -6 19 -12 19 -12 19 -16 16 -20 11 rrcurveto
          -476 254 rlineto
          -7 4 -3 6 0 9 0 8 1 4 3 0 4 0 2 -9 0 -18 rrcurveto
          8 vlineto
          474 250 rlineto
          20 11 16 16 12 19 12 19 6 19 0 18 0 27 -13 25 -25 25 -26 24 -30 12 -33 0 -23 0 -21 -5 -20 -11 rrcurveto
          -690 -355 rlineto
          -21 -11 -17 -14 -11 -19 -12 -19 -6 -18 0 -18 0 -19 6 -18 12 -19 11 -19 16 -14 21 -11 rrcurveto
          692 -362 rlineto
          20 -10 21 -5 22 0 rrcurveto
          endchar
        </CharString>
        <CharString name="less_slash">
          0 -88 -355 rmoveto
          27 0 24 7 23 14 22 14 16 18 9 21 rrcurveto
          778 1750 rlineto
          6 15 3 14 0 13 0 19 -7 21 -13 21 -22 35 -37 18 -51 0 -27 0 -24 -7 -22 -13 -23 -14 -16 -18 -9 -21 rrcurveto
          -582 -1308 -651 348 rlineto
          -1 1 -1 2 0 5 0 3 1 2 1 1 rrcurveto
          473 250 rlineto
          43 27 22 34 0 40 0 28 -12 26 -24 24 -24 24 -31 12 -37 0 -23 0 -21 -5 -20 -10 rrcurveto
          -691 -355 rlineto
          -23 -11 -16 -15 -11 -19 -11 -19 -6 -18 0 -19 0 -41 22 -34 43 -25 rrcurveto
          901 -475 -99 -223 rlineto
          -6 -15 -3 -13 0 -13 0 -20 7 -21 14 -21 22 -36 36 -18 51 0 rrcurveto
          endchar
        </CharString>
        <CharString name="less_slash_greater">
          0 -1018 -355 rmoveto
          27 0 24 7 23 14 22 14 16 18 9 21 rrcurveto
          565 1270 rlineto
          486 -257 243 -129 0 -3 0 -5 -1 -2 -1 -1 rrcurveto
          -475 -254 rlineto
          -44 -27 -22 -33 0 -41 0 -28 12 -26 25 -24 25 -25 31 -12 38 0 21 0 20 5 21 9 rrcurveto
          694 364 rlineto
          43 25 22 34 0 41 0 19 -5 18 -11 19 -11 19 -17 15 -22 11 rrcurveto
          -976 505 117 263 rlineto
          6 15 3 14 0 13 0 19 -7 21 -13 21 -22 35 -37 18 -51 0 -27 0 -24 -7 -22 -13 -23 -14 -16 -18 -9 -21 rrcurveto
          -582 -1308 -651 348 rlineto
          -1 1 -1 2 0 5 0 3 1 2 1 1 rrcurveto
          473 250 rlineto
          43 27 22 34 0 40 0 28 -12 26 -24 24 -24 24 -31 12 -37 0 -23 0 -21 -5 -20 -10 rrcurveto
          -691 -355 rlineto
          -23 -11 -16 -15 -11 -19 -11 -19 -6 -18 0 -19 0 -41 22 -34 43 -25 rrcurveto
          901 -475 -99 -223 rlineto
          -6 -15 -3 -13 0 -13 0 -20 7 -21 14 -21 22 -36 36 -18 51 0 rrcurveto
          endchar
        </CharString>
        <CharString name="lightshade">
          0 1080 1920 rmoveto
          120 120 -120 hlineto
          -960 -120 rmoveto
          120 120 -120 hlineto
          240 -120 rmoveto
          120 120 -120 hlineto
          240 -120 rmoveto
          120 120 -120 hlineto
          240 -120 rmoveto
          120 120 -120 hlineto
          240 -360 rmoveto
          120 120 -120 hlineto
          -960 -120 rmoveto
          120 120 -120 hlineto
          240 -120 rmoveto
          120 120 -120 hlineto
          240 -120 rmoveto
          120 120 -120 hlineto
          240 -120 rmoveto
          120 120 -120 hlineto
          240 -360 rmoveto
          120 120 -120 hlineto
          -960 -120 rmoveto
          120 120 -120 hlineto
          240 -120 rmoveto
          120 120 -120 hlineto
          240 -120 rmoveto
          120 120 -120 hlineto
          240 -120 rmoveto
          120 120 -120 hlineto
          240 -360 rmoveto
          120 120 -120 hlineto
          -960 -120 rmoveto
          120 120 -120 hlineto
          240 -120 rmoveto
          120 120 -120 hlineto
          240 -120 rmoveto
          120 120 -120 hlineto
          240 -120 rmoveto
          120 120 -120 hlineto
          240 -360 rmoveto
          120 120 -120 hlineto
          -960 -120 rmoveto
          120 120 -120 hlineto
          240 -120 rmoveto
          120 120 -120 hlineto
          240 -120 rmoveto
          120 120 -120 hlineto
          240 -120 rmoveto
          120 120 -120 hlineto
          240 -360 rmoveto
          120 120 -120 hlineto
          -960 -120 rmoveto
          120 120 -120 hlineto
          240 -120 rmoveto
          120 120 -120 hlineto
          240 -120 rmoveto
          120 120 -120 hlineto
          240 -120 rmoveto
          120 120 -120 hlineto
          240 -360 rmoveto
          120 120 -120 hlineto
          -960 -120 rmoveto
          120 120 -120 hlineto
          240 -120 rmoveto
          120 120 -120 hlineto
          240 -120 rmoveto
          120 120 -120 hlineto
          240 -120 rmoveto
          120 120 -120 hlineto
          240 -360 rmoveto
          120 120 -120 hlineto
          -960 -120 rmoveto
          120 120 -120 hlineto
          240 -120 rmoveto
          120 120 -120 hlineto
          240 -120 rmoveto
          120 120 -120 hlineto
          240 -120 rmoveto
          120 120 -120 hlineto
          240 -360 rmoveto
          120 120 -120 hlineto
          -960 -120 rmoveto
          120 120 -120 hlineto
          240 -120 rmoveto
          120 120 -120 hlineto
          240 -120 rmoveto
          120 120 -120 hlineto
          240 -120 rmoveto
          120 120 -120 hlineto
          240 -360 rmoveto
          120 120 -120 hlineto
          -960 -120 rmoveto
          120 120 -120 hlineto
          240 -120 rmoveto
          120 120 -120 hlineto
          240 -120 rmoveto
          120 120 -120 hlineto
          240 -120 rmoveto
          120 120 -120 hlineto
          240 -360 rmoveto
          120 120 -120 hlineto
          -960 -120 rmoveto
          120 120 -120 hlineto
          240 -120 rmoveto
          120 120 -120 hlineto
          240 -120 rmoveto
          120 120 -120 hlineto
          240 -120 rmoveto
          120 120 -120 hlineto
          endchar
        </CharString>
        <CharString name="lowerfiveeighthsblock">
          0 -600 vmoveto
          1200 1650 -1200 hlineto
          endchar
        </CharString>
        <CharString name="lowerhalfblock">
          0 -600 vmoveto
          1200 1320 -1200 hlineto
          endchar
        </CharString>
        <CharString name="loweroneeighthblock">
          0 -600 vmoveto
          1200 330 -1200 hlineto
          endchar
        </CharString>
        <CharString name="loweronequarterblock">
          0 -600 vmoveto
          1200 660 -1200 hlineto
          endchar
        </CharString>
        <CharString name="lowerseveneighthsblock">
          0 -600 vmoveto
          1200 2310 -1200 hlineto
          endchar
        </CharString>
        <CharString name="lowerthreeeighthsblock">
          0 -600 vmoveto
          1200 990 -1200 hlineto
          endchar
        </CharString>
        <CharString name="lowerthreequartersblock">
          0 -600 vmoveto
          1200 1980 -1200 hlineto
          endchar
        </CharString>
        <CharString name="m">
          0 971 -50 rmoveto
          33 0 27 11 22 22 22 22 11 26 0 29 rrcurveto
          766 vlineto
          0 91 -22 69 -44 46 -45 46 -61 23 -79 0 -77 0 -56 -24 -35 -49 -11 -15 -10 -19 -10 -24 1 1 5 1 10 0 11 0 6 -2 1 -3 -8 42 -22 33 -38 24 -37 23 -41 12 -46 0 rrcurveto
          -88 0 -58 -39 -27 -77 -3 -9 2 -4 10 0 9 0 5 0 0 0 rrcurveto
          27 vlineto
          0 26 -9 24 -19 21 -19 21 -26 10 -32 0 -31 0 -25 -11 -21 -21 -21 -21 -11 -24 0 -27 rrcurveto
          -937 vlineto
          0 -29 11 -26 22 -22 22 -22 27 -11 33 0 33 0 27 11 22 22 22 22 11 26 0 29 rrcurveto
          740 vlineto
          0 23 7 20 14 17 14 17 18 8 22 0 25 0 19 -7 13 -14 13 -14 6 -19 1 -24 rrcurveto
          -747 vlineto
          0 -29 9 -25 19 -22 18 -23 26 -11 32 0 33 0 27 11 18 23 19 22 9 25 0 29 rrcurveto
          744 vlineto
          0 21 9 18 17 16 17 16 18 8 21 0 20 -1 17 -7 12 -16 13 -15 6 -19 0 -23 rrcurveto
          -742 vlineto
          0 -28 11 -26 22 -22 22 -23 27 -11 33 0 rrcurveto
          endchar
        </CharString>
        <CharString name="mediumshade">
          0 1080 1920 rmoveto
          120 120 -120 hlineto
          -240 -120 rmoveto
          120 120 -120 hlineto
          -240 -120 rmoveto
          120 120 -120 hlineto
          -240 -120 rmoveto
          120 120 -120 hlineto
          -240 -120 rmoveto
          120 120 -120 hlineto
          840 -240 rmoveto
          120 120 -120 hlineto
          -240 -120 rmoveto
          120 120 -120 hlineto
          -240 -120 rmoveto
          120 120 -120 hlineto
          -240 -120 rmoveto
          120 120 -120 hlineto
          -240 -120 rmoveto
          120 120 -120 hlineto
          1080 -240 rmoveto
          120 120 -120 hlineto
          -240 -120 rmoveto
          120 120 -120 hlineto
          -720 -120 rmoveto
          120 120 -120 hlineto
          480 -120 rmoveto
          120 120 -120 hlineto
          -240 -120 rmoveto
          120 120 -120 hlineto
          600 -240 rmoveto
          120 120 -120 hlineto
          -720 -120 rmoveto
          120 120 -120 hlineto
          480 -120 rmoveto
          120 120 -120 hlineto
          -720 -120 rmoveto
          120 120 -120 hlineto
          480 -120 rmoveto
          120 120 -120 hlineto
          -120 -240 rmoveto
          120 120 -120 hlineto
          720 -120 rmoveto
          120 120 -120 hlineto
          -240 -120 rmoveto
          120 120 -120 hlineto
          -720 -120 rmoveto
          120 120 -120 hlineto
          480 -120 rmoveto
          120 120 -120 hlineto
          360 -240 rmoveto
          120 120 -120 hlineto
          -480 -120 rmoveto
          120 120 -120 hlineto
          -240 -120 rmoveto
          120 120 -120 hlineto
          -240 -120 rmoveto
          120 120 -120 hlineto
          720 -120 rmoveto
          120 120 -120 hlineto
          360 -240 rmoveto
          120 120 -120 hlineto
          -720 -120 rmoveto
          120 120 -120 hlineto
          480 -120 rmoveto
          120 120 -120 hlineto
          -240 -120 rmoveto
          120 120 -120 hlineto
          -480 -120 rmoveto
          120 120 -120 hlineto
          600 -240 rmoveto
          120 120 -120 hlineto
          -480 -120 rmoveto
          120 120 -120 hlineto
          240 -120 rmoveto
          120 120 -120 hlineto
          480 -120 rmoveto
          120 120 -120 hlineto
          -960 -120 rmoveto
          120 120 -120 hlineto
          600 -240 rmoveto
          120 120 -120 hlineto
          480 -120 rmoveto
          120 120 -120 hlineto
          -720 -120 rmoveto
          120 120 -120 hlineto
          -240 -120 rmoveto
          120 120 -120 hlineto
          720 -120 rmoveto
          120 120 -120 hlineto
          -840 -240 rmoveto
          120 120 -120 hlineto
          960 -120 rmoveto
          120 120 -120 hlineto
          -240 -120 rmoveto
          120 120 -120 hlineto
          -480 -120 rmoveto
          120 120 -120 hlineto
          240 -120 rmoveto
          120 120 -120 hlineto
          600 -240 rmoveto
          120 120 -120 hlineto
          -480 -120 rmoveto
          120 120 -120 hlineto
          -240 -120 rmoveto
          120 120 -120 hlineto
          -240 -120 rmoveto
          120 120 -120 hlineto
          720 -120 rmoveto
          120 120 -120 hlineto
          -360 -240 rmoveto
          120 120 -120 hlineto
          240 -120 rmoveto
          120 120 -120 hlineto
          -720 -120 rmoveto
          120 120 -120 hlineto
          240 -120 rmoveto
          120 120 -120 hlineto
          720 -120 rmoveto
          120 120 -120 hlineto
          -360 -240 rmoveto
          120 120 -120 hlineto
          -480 -120 rmoveto
          120 120 -120 hlineto
          240 -120 rmoveto
          120 120 -120 hlineto
          720 -120 rmoveto
          120 120 -120 hlineto
          -240 -120 rmoveto
          120 120 -120 hlineto
          -120 -240 rmoveto
          120 120 -120 hlineto
          -480 -120 rmoveto
          120 120 -120 hlineto
          720 -120 rmoveto
          120 120 -120 hlineto
          -480 -120 rmoveto
          120 120 -120 hlineto
          -480 -120 rmoveto
          120 120 -120 hlineto
          840 -240 rmoveto
          120 120 -120 hlineto
          -480 -120 rmoveto
          120 120 -120 hlineto
          240 -120 rmoveto
          120 120 -120 hlineto
          480 -120 rmoveto
          120 120 -120 hlineto
          -960 -120 rmoveto
          120 120 -120 hlineto
          840 -240 rmoveto
          120 120 -120 hlineto
          -960 -120 rmoveto
          120 120 -120 hlineto
          480 -120 rmoveto
          120 120 -120 hlineto
          240 -120 rmoveto
          120 120 -120 hlineto
          -480 -120 rmoveto
          120 120 -120 hlineto
          -120 -240 rmoveto
          120 120 -120 hlineto
          720 -120 rmoveto
          120 120 -120 hlineto
          -240 -120 rmoveto
          120 120 -120 hlineto
          -240 -120 rmoveto
          120 120 -120 hlineto
          720 -120 rmoveto
          120 120 -120 hlineto
          -120 -240 rmoveto
          120 120 -120 hlineto
          -240 -120 rmoveto
          120 120 -120 hlineto
          -720 -120 rmoveto
          120 120 -120 hlineto
          480 -120 rmoveto
          120 120 -120 hlineto
          -240 -120 rmoveto
          120 120 -120 hlineto
          840 -240 rmoveto
          120 120 -120 hlineto
          -240 -120 rmoveto
          120 120 -120 hlineto
          -720 -120 rmoveto
          120 120 -120 hlineto
          480 -120 rmoveto
          120 120 -120 hlineto
          -240 -120 rmoveto
          120 120 -120 hlineto
          -120 -240 rmoveto
          120 120 -120 hlineto
          720 -120 rmoveto
          120 120 -120 hlineto
          -240 -120 rmoveto
          120 120 -120 hlineto
          -240 -120 rmoveto
          120 120 -120 hlineto
          -480 -120 rmoveto
          120 120 -120 hlineto
          1080 -240 rmoveto
          120 120 -120 hlineto
          -720 -120 rmoveto
          120 120 -120 hlineto
          480 -120 rmoveto
          120 120 -120 hlineto
          -240 -120 rmoveto
          120 120 -120 hlineto
          -480 -120 rmoveto
          120 120 -120 hlineto
          360 -240 rmoveto
          120 120 -120 hlineto
          480 -120 rmoveto
          120 120 -120 hlineto
          -240 -120 rmoveto
          120 120 -120 hlineto
          -480 -120 rmoveto
          120 120 -120 hlineto
          -240 -120 rmoveto
          120 120 -120 hlineto
          endchar
        </CharString>
        <CharString name="n">
          0 266 1100 rmoveto
          -32 0 -27 -12 -23 -23 -23 -23 -12 -27 0 -31 rrcurveto
          -920 vlineto
          0 -33 11 -28 22 -21 21 -21 29 -11 34 0 37 0 28 11 20 21 19 22 10 27 0 33 rrcurveto
          547 vlineto
          0 83 33 65 67 47 55 36 52 18 48 1 122 0 63 -76 2 -152 rrcurveto
          -569 vlineto
          0 -33 11 -28 21 -21 21 -21 29 -11 35 0 37 0 28 11 19 21 19 22 9 27 0 33 rrcurveto
          580 vlineto
          0 161 -33 116 -67 72 -64 71 -97 35 -130 0 -99 -1 -95 -49 -93 -97 -2 -3 -1 -1 3 0 7 0 4 1 0 3 rrcurveto
          32 vlineto
          0 31 -12 27 -23 23 -23 23 -27 12 -33 0 rrcurveto
          endchar
        </CharString>
        <CharString name="nine">
          0 575 710 rmoveto
          -68 0 -52 20 -36 40 -35 39 -18 58 0 77 0 52 9 48 19 44 18 44 27 35 35 25 34 25 43 13 50 0 50 0 41 -15 34 -29 34 -29 26 -37 17 -45 18 -45 9 -45 0 -45 rrcurveto
          0 -60 -10 -45 -20 -32 -35 -48 -48 -29 -60 -9 -29 -5 -27 -2 -26 0 rrcurveto
          -210 -760 rmoveto
          158 0 131 35 104 69 104 70 77 95 50 122 51 122 25 140 0 159 0 158 -18 130 -35 101 -35 101 -53 75 -69 49 -70 49 -85 25 -99 0 -103 0 -86 -24 -69 -48 -70 -48 -52 -64 -34 -80 rrcurveto
          -34 -80 -17 -88 0 -97 0 -98 19 -81 37 -64 38 -64 51 -47 65 -31 64 -31 72 -15 79 0 51 0 49 8 46 15 47 15 38 18 31 22 -1 -1 -1 0 -1 0 -5 0 -2 -2 0 -4 rrcurveto
          0 -40 -16 -54 -31 -66 -44 -87 -66 -65 -87 -43 -30 -13 -33 -9 -36 -5 -59 -7 -48 -4 -38 0 -32 -2 -27 -11 -20 -22 -21 -21 -10 -25 0 -29 0 -27 10 -25 21 -22 21 -23 27 -11 32 0 rrcurveto
          endchar
        </CharString>
        <CharString name="northeastarrow">
          0 930 925 rmoveto
          0 -5 0 -6 -1 -6 -3 -33 -1 -33 0 -34 rrcurveto
          -418 210 870 -880 -196 415 vlineto
          34 0 32 1 30 3 6 1 7 0 5 1 -6 -5 -6 -5 -6 -5 -21 -17 -19 -19 -19 -19 rrcurveto
          -718 -724 149 -156 729 736 rlineto
          19 19 20 21 20 23 rrcurveto
          endchar
        </CharString>
        <CharString name="northwestarrow">
          0 416 1070 rmoveto
          5 -1 6 0 8 -1 29 -3 32 -1 34 0 rrcurveto
          415 196 -880 -870 210 418 hlineto
          0 34 -2 33 -4 32 rrcurveto
          -2 15 rlineto
          1 -2 2 -2 2 -1 19 -23 19 -21 19 -19 rrcurveto
          729 -736 154 158 -718 724 rlineto
          -18 19 -20 19 -21 17 -7 5 -7 5 -5 5 rrcurveto
          endchar
        </CharString>
        <CharString name="numbersign">
          0 531 625 rmoveto
          716 vlineto
          0 28 -12 26 -24 24 -25 24 -31 12 -39 0 -38 0 -31 -12 -24 -24 -25 -24 -12 -26 0 -28 rrcurveto
          -716 vlineto
          131 -680 rmoveto
          38 0 31 12 25 25 24 24 12 26 0 28 rrcurveto
          195 -261 -195 vlineto
          0 -28 12 -26 25 -24 24 -25 31 -12 39 0 rrcurveto
          -171 900 rmoveto
          230 -101 vlineto
          -38 0 -31 -12 -24 -24 -25 -25 -12 -26 0 -28 0 -28 12 -26 25 -24 24 -25 31 -12 38 0 rrcurveto
          941 hmoveto
          38 0 31 12 25 25 24 24 12 26 0 29 0 28 -12 26 -24 24 -25 24 -31 12 -38 0 rrcurveto
          -500 -230 hlineto
          60 -520 rmoveto
          230 -501 vlineto
          -38 0 -31 -12 -24 -24 -25 -25 -12 -26 0 -28 0 -28 12 -26 25 -24 24 -25 31 -12 38 0 rrcurveto
          941 hmoveto
          38 0 31 12 25 25 24 24 12 26 0 28 0 28 -12 26 -24 25 -25 24 -31 12 -38 0 rrcurveto
          -100 -230 hlineto
          -40 820 rmoveto
          196 vlineto
          0 28 -12 26 -24 24 -24 24 -31 12 -39 0 -38 0 -31 -12 -24 -24 -25 -24 -12 -26 0 -28 rrcurveto
          -196 vlineto
          131 -1200 rmoveto
          38 0 31 12 24 25 24 24 12 26 0 28 rrcurveto
          715 -260 -715 vlineto
          0 -28 12 -26 25 -24 24 -25 31 -12 39 0 rrcurveto
          endchar
        </CharString>
        <CharString name="numbersign_braceleft">
          0 94 845 rmoveto
          62 0 62 14 61 28 rrcurveto
          292 138 rlineto
          21 11 20 16 19 23 19 22 10 21 0 20 0 65 -1 43 -1 21 rrcurveto
          -1 45 rlineto
          0 58 22 42 45 27 20 17 45 9 71 0 rrcurveto
          69 hlineto
          33 0 29 11 24 23 23 23 12 25 0 27 0 32 -12 28 -25 25 -9 8 -12 7 -15 6 -16 5 -16 3 -16 0 -105 0 -66 -1 -27 -1 -80 -5 -67 -25 -55 -44 -91 -72 -45 -100 0 -127 rrcurveto
          0 -27 2 -56 3 -84 0 -21 -7 -17 -14 -13 -15 -13 -14 -7 -15 0 rrcurveto
          -963 -230 hlineto
          -340 hmoveto
          230 -101 vlineto
          -35 0 -30 -12 -26 -25 -26 -25 -13 -26 0 -27 0 -27 13 -26 26 -25 26 -25 30 -12 35 0 rrcurveto
          1636 -365 rmoveto
          50 0 25 22 0 44 0 19 -10 17 -19 17 rrcurveto
          -89 80 rlineto
          -6 5 -3 7 0 9 0 9 3 6 5 5 rrcurveto
          90 81 rlineto
          19 17 10 17 0 19 0 44 -25 22 -50 0 -13 0 -13 -3 -14 -5 rrcurveto
          -295 -135 rlineto
          -43 -14 -22 -26 0 -37 0 -37 22 -26 43 -14 rrcurveto
          295 -135 rlineto
          14 -5 13 -3 13 0 rrcurveto
          -1364 -535 rmoveto
          35 0 30 12 26 25 26 25 13 26 0 27 rrcurveto
          195 -261 -195 vlineto
          0 -27 13 -26 27 -25 26 -25 30 -12 35 0 rrcurveto
          130 680 rmoveto
          716 vlineto
          0 27 -13 26 -26 25 -27 24 -30 12 -35 0 -35 0 -30 -12 -26 -25 -26 -25 -13 -25 0 -27 rrcurveto
          -716 vlineto
          531 -680 rmoveto
          35 0 30 12 26 25 25 25 13 26 0 27 rrcurveto
          715 -260 -715 vlineto
          0 -27 13 -26 27 -25 26 -25 30 -12 35 0 rrcurveto
          129 1200 rmoveto
          196 vlineto
          0 27 -13 26 -26 25 -26 24 -30 12 -35 0 -35 0 -30 -12 -26 -25 -26 -25 -13 -25 0 -27 rrcurveto
          -196 vlineto
          1458 -1433 rmoveto
          35 0 30 12 25 23 21 22 10 26 0 31 0 26 -11 24 -21 23 -11 11 -13 8 -16 7 -17 7 -16 3 -16 0 rrcurveto
          -68 hlineto
          -71 0 -46 9 -19 17 -45 27 -22 43 0 57 0 16 0 16 1 15 1 20 1 42 0 65 0 21 -9 21 -19 22 -19 21 -21 16 -21 11 rrcurveto
          -291 138 rlineto
          -61 29 -62 14 -63 0 rrcurveto
          -324 -230 563 hlineto
          14 0 13 -6 11 -11 11 -12 8 -18 4 -23 1 -13 1 -16 0 -19 0 -27 -1 -28 -1 -29 rrcurveto
          -1 -36 rlineto
          0 -127 45 -100 91 -72 53 -43 67 -25 82 -5 27 -2 66 -1 104 0 rrcurveto
          -1498 613 rmoveto
          230 -501 vlineto
          -35 0 -30 -12 -26 -25 -26 -25 -13 -26 0 -27 0 -27 13 -26 26 -25 26 -25 30 -12 35 0 rrcurveto
          endchar
        </CharString>
        <CharString name="numbersign_bracketleft">
          0 -270 1145 rmoveto
          196 vlineto
          0 27 -13 26 -26 25 -26 24 -30 12 -35 0 -35 0 -30 -12 -26 -25 -26 -25 -13 -25 0 -27 rrcurveto
          -196 vlineto
          -40 -820 rmoveto
          230 -501 vlineto
          -35 0 -30 -12 -26 -25 -26 -25 -13 -26 0 -27 0 -27 13 -26 26 -25 26 -25 30 -12 35 0 rrcurveto
          101 520 rmoveto
          230 -101 vlineto
          -35 0 -30 -12 -26 -25 -26 -25 -13 -26 0 -27 0 -27 13 -26 26 -25 26 -25 30 -12 35 0 rrcurveto
          1911 -1139 rmoveto
          35 0 30 12 26 25 25 24 13 26 0 27 0 27 -13 26 -25 25 -26 24 -30 12 -35 0 rrcurveto
          -331 1532 331 hlineto
          35 0 30 12 26 25 25 24 13 26 0 27 0 28 -13 26 -25 24 -26 24 -30 12 -35 0 rrcurveto
          -456 hlineto
          -36 0 -31 -12 -26 -25 -27 -25 -13 -27 0 -28 rrcurveto
          -502 -881 -230 881 -290 -481 -230 481 -502 vlineto
          0 -28 13 -26 27 -25 26 -25 31 -13 36 0 rrcurveto
          -1183 239 rmoveto
          35 0 30 12 26 25 26 25 13 26 0 27 rrcurveto
          195 -261 -195 vlineto
          0 -27 13 -26 27 -25 26 -25 30 -12 35 0 rrcurveto
          130 680 rmoveto
          716 vlineto
          0 27 -13 26 -26 25 -27 24 -30 12 -35 0 -35 0 -30 -12 -26 -25 -26 -25 -13 -25 0 -27 rrcurveto
          -716 vlineto
          531 -680 rmoveto
          35 0 30 12 26 25 25 25 13 26 0 27 rrcurveto
          715 -260 -715 vlineto
          0 -27 13 -26 27 -25 26 -25 30 -12 35 0 rrcurveto
          endchar
        </CharString>
        <CharString name="numbersign_expand">
          0 531 625 rmoveto
          716 vlineto
          0 28 -12 26 -24 24 -25 24 -31 12 -39 0 -38 0 -31 -12 -24 -24 -25 -24 -12 -26 0 -28 rrcurveto
          -716 vlineto
          131 -680 rmoveto
          38 0 31 12 25 25 24 24 12 26 0 28 rrcurveto
          195 -261 -195 vlineto
          0 -28 12 -26 25 -24 24 -25 31 -12 39 0 rrcurveto
          -171 900 rmoveto
          230 -101 vlineto
          -38 0 -31 -12 -24 -24 -25 -25 -12 -26 0 -28 0 -28 12 -26 25 -24 24 -25 31 -12 38 0 rrcurveto
          1321 hmoveto
          230 -880 -230 vlineto
          60 -520 rmoveto
          230 -501 vlineto
          -38 0 -31 -12 -24 -24 -25 -25 -12 -26 0 -28 0 -28 12 -26 25 -24 24 -25 31 -12 38 0 rrcurveto
          1721 hmoveto
          230 -880 -230 vlineto
          -40 820 rmoveto
          196 vlineto
          0 28 -12 26 -24 24 -24 24 -31 12 -39 0 -38 0 -31 -12 -24 -24 -25 -24 -12 -26 0 -28 rrcurveto
          -196 vlineto
          131 -1200 rmoveto
          38 0 31 12 24 25 24 24 12 26 0 28 rrcurveto
          715 -260 -715 vlineto
          0 -28 12 -26 25 -24 24 -25 31 -12 39 0 rrcurveto
          endchar
        </CharString>
        <CharString name="numbersign_parenleft">
          0 -270 1145 rmoveto
          196 vlineto
          0 27 -13 26 -26 25 -26 24 -30 12 -35 0 -35 0 -30 -12 -26 -25 -26 -25 -13 -25 0 -27 rrcurveto
          -196 vlineto
          -40 -820 rmoveto
          230 -501 vlineto
          -35 0 -30 -12 -26 -25 -26 -25 -13 -26 0 -27 0 -27 13 -26 26 -25 26 -25 30 -12 35 0 rrcurveto
          101 520 rmoveto
          230 -101 vlineto
          -35 0 -30 -12 -26 -25 -26 -25 -13 -26 0 -27 0 -27 13 -26 26 -25 26 -25 30 -12 35 0 rrcurveto
          1937 -1188 rmoveto
          47 0 37 18 25 35 10 13 5 18 0 22 0 35 -16 29 -31 22 -115 79 -98 93 -81 109 -118 153 -60 179 -3 205 rrcurveto
          90 vlineto
          3 176 61 171 120 167 79 109 97 93 114 79 32 21 16 29 0 36 0 19 -5 17 -9 15 -23 37 -37 19 -50 0 -24 0 -21 -5 -18 -11 -159 -95 -130 -119 -102 -144 -65 -94 -50 -99 -34 -103 rrcurveto
          -893 -230 845 hlineto
          -3 -36 -2 -44 0 -53 0 -61 2 -52 5 -44 rrcurveto
          -447 -230 495 hlineto
          34 -105 49 -98 64 -92 102 -143 130 -119 159 -95 18 -11 21 -5 24 0 rrcurveto
          -1665 288 rmoveto
          35 0 30 12 26 25 26 25 13 26 0 27 rrcurveto
          195 -261 -195 vlineto
          0 -27 13 -26 27 -25 26 -25 30 -12 35 0 rrcurveto
          130 680 rmoveto
          716 vlineto
          0 27 -13 26 -26 25 -27 24 -30 12 -35 0 -35 0 -30 -12 -26 -25 -26 -25 -13 -25 0 -27 rrcurveto
          -716 vlineto
          531 -680 rmoveto
          35 0 30 12 26 25 25 25 13 26 0 27 rrcurveto
          715 -260 -715 vlineto
          0 -27 13 -26 27 -25 26 -25 30 -12 35 0 rrcurveto
          endchar
        </CharString>
        <CharString name="o">
          0 600 176 rmoveto
          -156 0 -78 116 0 233 0 117 20 87 40 58 40 58 58 29 76 0 76 0 58 -29 40 -58 40 -58 20 -87 0 -117 0 -233 -78 -116 -156 0 rrcurveto
          -226 vmoveto
          100 0 83 23 66 46 65 46 54 65 41 84 41 84 20 105 0 124 0 122 -20 104 -41 84 -41 84 -54 65 -65 45 -66 46 -83 23 -100 0 -99 0 -82 -23 -67 -46 -67 -45 -53 -65 -41 -84 rrcurveto
          -41 -84 -20 -104 0 -122 0 -124 20 -105 41 -84 41 -84 53 -65 67 -46 67 -46 82 -23 99 0 rrcurveto
          endchar
        </CharString>
        <CharString name="one">
          0 939 -20 rmoveto
          33 0 27 11 22 23 22 22 11 26 0 28 0 30 -11 26 -22 21 -22 22 -28 11 -32 0 rrcurveto
          -225 hlineto
          1 0 0 1 0 3 rrcurveto
          1098 vlineto
          0 40 -15 35 -30 29 -29 29 -37 15 -43 0 -38 0 -35 -12 -32 -25 rrcurveto
          -279 -268 rlineto
          -23 -23 -12 -27 0 -30 0 -24 8 -23 17 -22 27 -27 30 -14 33 0 33 0 27 10 20 20 rrcurveto
          146 152 rlineto
          0 0 0 0 -1 0 0 0 1 0 1 -1 1 -1 0 -2 0 -4 rrcurveto
          -924 vlineto
          0 -3 0 -2 1 0 rrcurveto
          -226 hlineto
          -32 0 -28 -11 -22 -22 -22 -21 -11 -26 0 -30 0 -28 11 -26 22 -22 22 -23 27 -11 33 0 rrcurveto
          endchar
        </CharString>
        <CharString name="p">
          0 623 178 rmoveto
          -62 0 -52 22 -42 45 -48 53 -24 55 0 57 rrcurveto
          211 vlineto
          0 73 24 59 48 43 47 44 53 22 58 0 155 -3 77 -104 0 -205 0 -131 -24 -97 -49 -63 -43 -54 -53 -27 -65 0 rrcurveto
          -341 -686 rmoveto
          30 0 27 11 22 21 23 22 11 27 0 33 rrcurveto
          412 vlineto
          0 12 2 6 3 0 5 0 6 -4 8 -7 63 -50 77 -25 91 0 128 0 103 52 77 105 83 110 41 151 0 193 0 359 -143 180 -287 0 -109 0 -88 -41 -68 -83 -1 -1 0 -1 0 0 rrcurveto
          4 0 1 12 -2 23 -6 61 -36 30 -65 0 -33 0 -28 -10 -22 -21 -23 -21 -11 -27 0 -33 rrcurveto
          -1382 vlineto
          0 -33 12 -27 23 -22 23 -21 27 -11 32 0 rrcurveto
          endchar
        </CharString>
        <CharString name="parenleft">
          0 866 -343 rmoveto
          47 0 37 18 25 35 10 13 5 18 0 22 0 35 -16 29 -31 22 -115 79 -98 93 -81 109 -118 153 -60 179 -3 205 rrcurveto
          90 vlineto
          3 176 61 171 120 167 79 109 97 93 114 79 32 21 16 29 0 36 0 19 -5 17 -9 15 -23 37 -37 19 -50 0 -24 0 -21 -5 -18 -11 -159 -95 -130 -119 -102 -144 -135 -193 -67 -212 0 -231 rrcurveto
          -46 vlineto
          0 -246 67 -220 135 -193 102 -143 130 -119 159 -95 18 -11 21 -5 24 0 rrcurveto
          endchar
        </CharString>
        <CharString name="parenright">
          0 334 -343 rmoveto
          24 0 21 5 18 11 159 95 130 119 102 143 135 193 67 220 0 246 rrcurveto
          46 vlineto
          0 231 -67 212 -135 193 -102 144 -130 119 -159 95 -18 11 -21 5 -24 0 -50 0 -37 -19 -23 -37 -9 -15 -5 -17 0 -19 0 -36 16 -29 32 -21 114 -79 97 -93 79 -109 120 -167 61 -171 3 -176 rrcurveto
          -90 vlineto
          -3 -205 -60 -179 -118 -153 -81 -109 -98 -93 -115 -79 -31 -22 -16 -29 0 -35 0 -22 5 -18 10 -13 25 -35 37 -18 47 0 rrcurveto
          endchar
        </CharString>
        <CharString name="percent">
          0 330 909 rmoveto
          -54 0 -27 57 0 115 0 134 27 67 54 0 54 0 27 -67 0 -134 0 -115 -27 -57 -54 0 rrcurveto
          540 -781 rmoveto
          -54 0 -27 57 0 115 0 134 27 67 54 0 54 0 27 -67 0 -134 0 -115 -27 -57 -54 0 rrcurveto
          -97 611 rmoveto
          15 0 16 3 17 7 17 7 13 8 11 10 rrcurveto
          323 314 rlineto
          23 24 11 28 0 32 0 31 -13 29 -25 27 -26 27 -35 15 -45 3 -19 0 -21 -4 -22 -9 -23 -9 -18 -13 -13 -15 rrcurveto
          -286 -346 rlineto
          -15 -21 -8 -21 0 -21 1 -29 11 -24 23 -20 23 -21 29 -11 36 -1 rrcurveto
          97 -803 rmoveto
          107 0 82 35 56 71 56 71 28 86 0 101 0 127 -28 98 -56 67 -57 67 -81 34 -107 0 -217 0 -109 -131 -3 -262 0 -106 29 -87 57 -68 57 -69 81 -34 105 0 rrcurveto
          -540 781 rmoveto
          107 0 82 35 56 71 56 71 28 86 0 101 0 127 -28 98 -56 67 -57 67 -81 34 -107 0 -217 0 -109 -131 -3 -262 0 -106 29 -87 57 -68 57 -69 81 -34 105 0 rrcurveto
          -203 -601 rmoveto
          19 0 20 5 22 9 22 9 18 12 13 15 rrcurveto
          287 346 rlineto
          15 20 8 21 0 22 0 28 -12 25 -25 21 -25 21 -29 11 -33 0 -15 0 -15 -3 -16 -6 -17 -7 -14 -8 -11 -11 rrcurveto
          -323 -314 rlineto
          -23 -24 -11 -30 0 -37 0 -17 6 -18 11 -19 11 -19 17 -17 22 -14 21 -14 26 -7 31 0 rrcurveto
          endchar
        </CharString>
        <CharString name="period">
          0 604 -54 rmoveto
          57 0 48 19 37 39 37 39 18 43 0 48 0 49 -18 44 -37 39 -37 39 -48 19 -57 0 -60 0 -49 -19 -37 -39 -38 -39 -19 -44 0 -49 0 -49 19 -43 38 -38 37 -39 49 -19 60 0 rrcurveto
          endchar
        </CharString>
        <CharString name="period_period">
          0 434 -55 rmoveto
          57 0 48 19 37 39 37 39 19 43 0 49 0 50 -19 44 -37 39 -37 39 -48 19 -57 0 -61 0 -49 -19 -37 -39 -38 -39 -19 -44 0 -50 0 -49 19 -43 38 -39 37 -39 49 -19 61 0 rrcurveto
          -860 hmoveto
          57 0 48 19 37 39 37 39 19 43 0 49 0 50 -19 44 -37 39 -37 39 -48 19 -57 0 -61 0 -49 -19 -37 -39 -38 -39 -19 -44 0 -50 0 -49 19 -43 38 -39 37 -39 49 -19 61 0 rrcurveto
          endchar
        </CharString>
        <CharString name="period_period_period">
          0 -596 -55 rmoveto
          57 0 48 19 37 39 37 39 19 43 0 49 0 50 -19 44 -37 39 -37 39 -48 19 -57 0 -61 0 -49 -19 -37 -39 -38 -39 -19 -44 0 -50 0 -49 19 -43 38 -39 37 -39 49 -19 61 0 rrcurveto
          -760 hmoveto
          57 0 48 19 37 39 37 39 19 43 0 49 0 50 -19 44 -37 39 -37 39 -48 19 -57 0 -61 0 -49 -19 -37 -39 -38 -39 -19 -44 0 -50 0 -49 19 -43 38 -39 37 -39 49 -19 61 0 rrcurveto
          1520 hmoveto
          57 0 48 19 37 39 37 39 19 43 0 49 0 50 -19 44 -37 39 -37 39 -48 19 -57 0 -61 0 -49 -19 -37 -39 -38 -39 -19 -44 0 -50 0 -49 19 -43 38 -39 37 -39 49 -19 61 0 rrcurveto
          endchar
        </CharString>
        <CharString name="placeholder">
          0 endchar
        </CharString>
        <CharString name="plus">
          0 600 145 rmoveto
          39 0 31 12 24 25 23 24 12 26 0 28 rrcurveto
          226 211 vlineto
          39 0 31 12 24 24 23 23 12 26 0 29 0 29 -12 26 -23 24 -24 23 -31 12 -39 0 rrcurveto
          -211 226 hlineto
          0 29 -12 26 -23 24 -24 23 -31 12 -39 0 -39 0 -31 -12 -23 -23 -24 -24 -12 -26 0 -29 rrcurveto
          -226 -211 vlineto
          -39 0 -31 -12 -23 -23 -24 -24 -12 -26 0 -29 0 -29 12 -26 24 -23 23 -24 31 -12 39 0 rrcurveto
          211 -226 hlineto
          0 -28 12 -26 24 -24 23 -25 31 -12 39 0 rrcurveto
          endchar
        </CharString>
        <CharString name="plus_plus">
          0 480 145 rmoveto
          39 0 31 12 24 25 23 24 12 26 0 28 rrcurveto
          226 211 vlineto
          39 0 31 12 24 24 23 23 12 26 0 29 0 29 -12 26 -23 24 -24 23 -31 12 -39 0 rrcurveto
          -211 226 hlineto
          0 29 -12 26 -23 24 -24 23 -31 12 -39 0 -39 0 -31 -12 -23 -23 -24 -24 -12 -26 0 -29 rrcurveto
          -226 -702 226 vlineto
          0 29 -12 26 -23 24 -24 23 -31 12 -39 0 -39 0 -31 -12 -23 -23 -24 -24 -12 -26 0 -29 rrcurveto
          -226 -211 vlineto
          -39 0 -31 -12 -23 -23 -24 -24 -12 -26 0 -29 0 -29 12 -26 24 -23 23 -24 31 -12 39 0 rrcurveto
          211 -226 hlineto
          0 -28 12 -26 24 -24 23 -25 31 -12 39 0 39 0 31 12 24 25 23 24 12 26 0 28 rrcurveto
          226 702 -226 vlineto
          0 -28 12 -26 24 -24 23 -25 31 -12 39 0 rrcurveto
          endchar
        </CharString>
        <CharString name="plus_plus_plus">
          0 360 145 rmoveto
          39 0 31 12 24 25 23 24 12 26 0 28 rrcurveto
          226 211 vlineto
          39 0 31 12 24 24 23 23 12 26 0 29 0 29 -12 26 -23 24 -24 23 -31 12 -39 0 rrcurveto
          -211 226 hlineto
          0 29 -12 26 -23 24 -24 23 -31 12 -39 0 -39 0 -31 -12 -23 -23 -24 -24 -12 -26 0 -29 rrcurveto
          -226 -702 226 vlineto
          0 29 -12 26 -23 24 -24 23 -31 12 -39 0 -39 0 -31 -12 -23 -23 -24 -24 -12 -26 0 -29 rrcurveto
          -226 -702 226 vlineto
          0 29 -12 26 -23 24 -24 23 -31 12 -39 0 -39 0 -31 -12 -23 -23 -24 -24 -12 -26 0 -29 rrcurveto
          -226 -211 vlineto
          -39 0 -31 -12 -23 -23 -24 -24 -12 -26 0 -29 0 -29 12 -26 24 -23 23 -24 31 -12 39 0 rrcurveto
          211 -226 hlineto
          0 -28 12 -26 24 -24 23 -25 31 -12 39 0 39 0 31 12 24 25 23 24 12 26 0 28 rrcurveto
          226 702 -226 vlineto
          0 -28 12 -26 24 -24 23 -25 31 -12 39 0 39 0 31 12 24 25 23 24 12 26 0 28 rrcurveto
          226 702 -226 vlineto
          0 -28 12 -26 24 -24 23 -25 31 -12 39 0 rrcurveto
          endchar
        </CharString>
        <CharString name="q">
          0 578 181 rmoveto
          -78 0 -59 27 -43 54 -36 49 -18 98 0 148 0 205 77 104 155 4 58 0 53 -22 47 -44 48 -43 24 -59 0 -73 rrcurveto
          -213 vlineto
          0 -60 -24 -56 -48 -52 -42 -45 -52 -22 -62 0 rrcurveto
          341 -689 rmoveto
          32 0 27 11 23 21 23 22 12 27 0 33 rrcurveto
          1382 vlineto
          0 33 -11 27 -22 21 -22 21 -27 10 -33 0 -71 0 -36 -30 -3 -60 -1 -24 1 -12 3 0 1 0 0 1 -1 1 -69 83 -83 41 -98 0 -293 0 -146 -188 0 -376 0 -206 39 -149 78 -93 rrcurveto
          78 -93 103 -46 127 0 91 0 77 25 63 50 9 7 6 4 4 0 3 0 2 -6 0 -12 rrcurveto
          -411 vlineto
          0 -33 11 -27 23 -22 23 -21 27 -11 30 0 rrcurveto
          endchar
        </CharString>
        <CharString name="quadrantlowerleft">
          0 -600 vmoveto
          600 1320 -600 hlineto
          endchar
        </CharString>
        <CharString name="quadrantlowerright">
          0 600 -600 rmoveto
          600 1320 -600 hlineto
          endchar
        </CharString>
        <CharString name="quadrantupperleft">
          0 720 vmoveto
          600 1320 -600 hlineto
          endchar
        </CharString>
        <CharString name="quadrantupperleftandlowerleftandlowerright">
          0 -600 vmoveto
          1200 1320 -600 1320 -600 hlineto
          endchar
        </CharString>
        <CharString name="quadrantupperleftandlowerright">
          0 720 vmoveto
          600 1320 -600 hlineto
          600 -2640 rmoveto
          600 1320 -600 hlineto
          endchar
        </CharString>
        <CharString name="quadrantupperleftandupperrightandlowerleft">
          0 -600 vmoveto
          600 1320 600 1320 -1200 hlineto
          endchar
        </CharString>
        <CharString name="quadrantupperleftandupperrightandlowerright">
          0 600 -600 rmoveto
          600 2640 -1220 -1320 620 hlineto
          endchar
        </CharString>
        <CharString name="quadrantupperright">
          0 600 720 rmoveto
          600 1320 -600 hlineto
          endchar
        </CharString>
        <CharString name="quadrantupperrightandlowerleft">
          0 600 720 rmoveto
          600 1320 -600 hlineto
          -600 -2640 rmoveto
          600 1320 -600 hlineto
          endchar
        </CharString>
        <CharString name="quadrantupperrightandlowerleftandlowerright">
          0 -600 vmoveto
          1200 2640 -600 -1320 -600 hlineto
          endchar
        </CharString>
        <CharString name="question">
          0 604 -50 rmoveto
          51 0 44 18 35 37 35 37 18 43 0 49 0 50 -18 44 -35 37 -35 37 -44 18 -51 0 -55 0 -45 -18 -36 -37 -35 -37 -18 -44 0 -50 0 -49 18 -43 35 -37 36 -37 45 -18 55 0 rrcurveto
          -4 492 rmoveto
          69 0 39 31 7 63 8 63 42 67 77 73 95 93 48 120 0 148 0 116 -33 93 -65 73 -65 72 -97 36 -129 0 -186 0 -121 -79 -57 -157 -11 -29 -6 -25 0 -23 0 -75 38 -38 75 -1 rrcurveto
          22 0 20 6 19 11 18 11 18 26 19 40 36 74 49 37 65 0 114 -1 58 -59 2 -115 0 -77 -34 -69 -67 -60 -61 -58 -46 -50 -33 -43 -32 -43 -16 -53 0 -64 0 -89 40 -45 81 0 rrcurveto
          endchar
        </CharString>
        <CharString name="question_question">
          0 -460 438 rmoveto
          79 0 43 37 9 73 7 56 42 64 75 72 96 93 48 120 0 147 0 115 -33 94 -67 74 -67 74 -101 37 -135 0 -194 0 -126 -80 -59 -161 -11 -29 -5 -25 0 -22 0 -77 42 -40 85 -1 rrcurveto
          27 0 23 6 21 13 20 13 20 27 20 41 33 70 45 35 57 0 105 -1 54 -57 1 -113 0 -78 -33 -69 -67 -59 -62 -59 -47 -50 -32 -43 -32 -43 -16 -53 0 -63 0 -92 45 -46 90 0 rrcurveto
          4 -492 rmoveto
          57 0 48 19 37 39 37 39 18 43 0 48 0 49 -18 44 -37 39 -37 39 -48 19 -57 0 -60 0 -49 -19 -37 -39 -38 -39 -19 -44 0 -49 0 -49 19 -43 38 -38 37 -39 49 -19 60 0 rrcurveto
          916 492 rmoveto
          79 0 43 37 9 73 7 56 42 64 75 72 96 93 48 120 0 147 0 115 -33 94 -67 74 -67 74 -101 37 -135 0 -194 0 -126 -80 -59 -161 -11 -29 -5 -25 0 -22 0 -77 42 -40 85 -1 rrcurveto
          27 0 23 6 21 13 20 13 20 27 20 41 33 70 45 35 57 0 105 -1 54 -57 1 -113 0 -78 -33 -69 -67 -59 -62 -59 -47 -50 -32 -43 -32 -43 -16 -53 0 -63 0 -92 45 -46 90 0 rrcurveto
          4 -492 rmoveto
          57 0 48 19 37 39 37 39 18 43 0 48 0 49 -18 44 -37 39 -37 39 -48 19 -57 0 -60 0 -49 -19 -37 -39 -38 -39 -19 -44 0 -49 0 -49 19 -43 38 -38 37 -39 49 -19 60 0 rrcurveto
          endchar
        </CharString>
        <CharString name="quotedbl">
          0 441 995 rmoveto
          38 0 31 12 25 25 24 24 12 26 0 28 rrcurveto
          310 vlineto
          0 28 -12 26 -24 25 -25 24 -31 12 -38 0 -38 0 -31 -12 -24 -24 -25 -25 -12 -26 0 -28 rrcurveto
          -310 vlineto
          0 -28 12 -26 25 -24 24 -25 31 -12 38 0 rrcurveto
          319 hmoveto
          38 0 31 12 25 25 24 24 12 26 0 28 rrcurveto
          310 vlineto
          0 28 -12 26 -24 25 -25 24 -31 12 -38 0 -38 0 -31 -12 -24 -24 -25 -25 -12 -26 0 -28 rrcurveto
          -310 vlineto
          0 -28 12 -26 25 -24 24 -25 31 -12 38 0 rrcurveto
          endchar
        </CharString>
        <CharString name="quotesingle">
          0 601 995 rmoveto
          38 0 31 12 25 25 24 24 12 26 0 28 rrcurveto
          310 vlineto
          0 28 -12 26 -24 25 -25 24 -31 12 -38 0 -38 0 -31 -12 -24 -24 -25 -25 -12 -26 0 -28 rrcurveto
          -310 vlineto
          0 -28 12 -26 25 -24 24 -25 31 -12 38 0 rrcurveto
          endchar
        </CharString>
        <CharString name="r">
          0 312 -50 rmoveto
          32 0 27 11 21 21 22 21 11 27 0 31 rrcurveto
          519 vlineto
          0 75 37 68 73 61 74 60 66 30 60 0 78 0 45 -47 12 -94 5 -32 13 -24 22 -16 22 -16 27 -8 30 0 31 0 25 11 20 22 19 22 10 26 0 30 0 122 -31 89 -63 56 rrcurveto
          -63 57 -82 28 -103 0 -125 0 -111 -54 -96 -109 -4 -4 0 -2 3 0 4 0 2 3 0 7 rrcurveto
          49 vlineto
          0 30 -11 26 -23 22 -22 21 -29 11 -34 0 -32 0 -27 -11 -21 -22 -21 -21 -10 -26 0 -30 rrcurveto
          -929 vlineto
          0 -31 11 -26 21 -22 21 -21 28 -11 36 0 rrcurveto
          endchar
        </CharString>
        <CharString name="referencemark">
          0 600 105 rmoveto
          43 0 35 15 29 29 29 29 15 33 0 39 0 41 -14 35 -29 28 -28 29 -36 14 -44 0 -42 0 -35 -14 -29 -29 -29 -28 -14 -35 0 -41 0 -39 15 -33 29 -29 29 -29 35 -15 41 0 rrcurveto
          896 vmoveto
          43 0 35 15 29 29 29 29 15 34 0 40 0 41 -14 35 -29 28 -28 29 -36 14 -44 0 -42 0 -35 -14 -29 -29 -29 -28 -14 -35 0 -41 0 -40 15 -34 29 -29 29 -29 35 -15 41 0 rrcurveto
          -452 -866 rmoveto
          33 0 27 13 22 25 rrcurveto
          372 372 374 -374 rlineto
          24 -23 27 -12 30 0 30 0 27 12 23 23 23 23 12 26 0 28 0 26 -12 25 -24 23 rrcurveto
          -379 377 379 381 rlineto
          22 21 11 25 0 27 0 27 -12 24 -23 23 -23 23 -27 11 -30 0 -30 0 -25 -11 -22 -21 rrcurveto
          -375 -375 -373 374 rlineto
          -23 22 -27 11 -31 0 -29 0 -26 -11 -23 -23 -23 -23 -12 -24 0 -27 0 -28 12 -25 24 -22 rrcurveto
          376 -379 -376 -379 rlineto
          -24 -21 -12 -25 0 -29 0 -26 11 -24 23 -24 22 -24 27 -12 30 0 rrcurveto
          4 416 rmoveto
          43 0 35 15 29 29 29 29 15 34 0 40 0 41 -14 35 -29 28 -29 29 -36 14 -43 0 -41 0 -35 -14 -28 -29 -29 -28 -14 -35 0 -41 0 -40 15 -34 29 -29 29 -29 34 -15 40 0 rrcurveto
          894 hmoveto
          41 0 35 15 29 29 29 29 15 34 0 40 0 41 -14 35 -29 28 -29 29 -35 14 -42 0 -43 0 -35 -14 -28 -29 -29 -28 -14 -35 0 -41 0 -40 15 -34 29 -29 29 -29 35 -15 41 0 rrcurveto
          endchar
        </CharString>
        <CharString name="right_arrow_double">
          0 383 27 rmoveto
          27 0 27 11 26 22 rrcurveto
          457 457 rlineto
          23 26 11 27 0 29 0 29 -11 27 -23 25 rrcurveto
          -457 458 rlineto
          -27 22 -27 11 -26 0 -29 0 -27 -11 -23 -23 -23 -23 -12 -27 0 -30 0 -13 3 -14 6 -15 5 -15 8 -13 11 -11 rrcurveto
          56 -55 -1298 -7 rlineto
          -29 0 -26 -11 -23 -23 -24 -23 -12 -26 0 -31 0 -30 12 -26 24 -23 24 -23 26 -12 28 0 rrcurveto
          1343 hlineto
          31 0 27 11 23 22 rrcurveto
          35 35 rlineto
          6 -1 hlineto
          152 -152 rlineto
          -5 vlineto
          -151 -150 rlineto
          -4 0 -2 0 -1 1 0 0 -11 11 -22 23 -25 23 -28 11 -29 0 rrcurveto
          -1344 hlineto
          -29 0 -26 -11 -23 -23 -24 -23 -12 -26 0 -31 0 -30 12 -26 24 -23 24 -23 26 -12 28 0 rrcurveto
          1300 hlineto
          1 0 0 -2 0 -5 rrcurveto
          -59 -59 rlineto
          -22 -24 -11 -27 0 -29 0 -30 12 -26 23 -23 23 -23 27 -12 29 0 rrcurveto
          endchar
        </CharString>
        <CharString name="right_arrow_double_long">
          0 383 27 rmoveto
          27 0 27 11 26 22 rrcurveto
          457 457 rlineto
          23 26 11 27 0 29 0 29 -11 27 -23 25 rrcurveto
          -457 458 rlineto
          -27 22 -27 11 -26 0 -29 0 -27 -11 -23 -23 -23 -23 -12 -27 0 -30 0 -13 3 -14 6 -15 5 -15 8 -13 11 -11 rrcurveto
          56 -55 -2498 -7 rlineto
          -29 0 -26 -11 -23 -23 -24 -23 -12 -26 0 -31 0 -30 12 -26 24 -23 24 -23 26 -12 28 0 rrcurveto
          2543 hlineto
          31 0 27 11 23 22 rrcurveto
          35 35 rlineto
          6 -1 hlineto
          152 -152 rlineto
          -5 vlineto
          -151 -150 rlineto
          -4 0 -2 0 -1 1 0 0 -11 11 -22 23 -25 23 -28 11 -29 0 rrcurveto
          -2544 hlineto
          -29 0 -26 -11 -23 -23 -24 -23 -12 -26 0 -31 0 -30 12 -26 24 -23 24 -23 26 -12 28 0 rrcurveto
          2500 hlineto
          1 0 0 -2 0 -5 rrcurveto
          -59 -59 rlineto
          -22 -24 -11 -27 0 -29 0 -30 12 -26 23 -23 23 -23 27 -12 29 0 rrcurveto
          endchar
        </CharString>
        <CharString name="right_arrow_single">
          0 585 502 rmoveto
          -8 1 -91 90 rlineto
          -1 6 hlineto
          93 93 rlineto
          7 -1 hlineto
          92 -93 rlineto
          -3 vlineto
          -91 -91 rlineto
          -203 -477 rmoveto
          29 0 27 11 24 21 rrcurveto
          457 457 rlineto
          23 23 11 27 0 32 0 29 -11 27 -23 25 rrcurveto
          -457 459 rlineto
          -27 22 -27 11 -26 0 -28 0 -26 -11 -24 -22 -24 -23 -12 -27 0 -32 0 -27 11 -27 22 -27 76 -76 38 -38 0 0 0 -1 0 0 1 0 rrcurveto
          -5 vlineto
          -116 -116 rlineto
          -17 -17 -20 -8 -24 0 rrcurveto
          -1180 hlineto
          -30 0 -26 -12 -23 -23 -23 -23 -12 -27 0 -29 0 -30 12 -26 23 -23 23 -23 26 -12 30 0 rrcurveto
          1180 hlineto
          24 0 20 -8 17 -17 77 -79 38 -41 0 -1 0 -1 1 -1 0 -2 rrcurveto
          -115 -115 rlineto
          -22 -27 -11 -27 0 -26 0 -31 11 -26 23 -23 23 -23 26 -11 31 0 rrcurveto
          endchar
        </CharString>
        <CharString name="right_arrow_single_long">
          0 585 502 rmoveto
          -8 1 -91 90 rlineto
          -1 6 hlineto
          93 93 rlineto
          7 -1 hlineto
          92 -93 rlineto
          -3 vlineto
          -91 -91 rlineto
          -203 -477 rmoveto
          29 0 27 11 24 21 rrcurveto
          457 457 rlineto
          23 23 11 27 0 32 0 29 -11 27 -23 25 rrcurveto
          -457 459 rlineto
          -27 22 -27 11 -26 0 -28 0 -26 -11 -24 -22 -24 -23 -12 -27 0 -32 0 -27 11 -27 22 -27 76 -76 38 -38 0 0 0 -1 0 0 1 0 rrcurveto
          -5 vlineto
          -116 -116 rlineto
          -17 -17 -20 -8 -24 0 rrcurveto
          -2380 hlineto
          -30 0 -26 -12 -23 -23 -23 -23 -12 -27 0 -29 0 -30 12 -26 23 -23 23 -23 26 -12 30 0 rrcurveto
          2380 hlineto
          24 0 20 -8 17 -17 77 -79 38 -41 0 -1 0 -1 1 -1 0 -2 rrcurveto
          -115 -115 rlineto
          -22 -27 -11 -27 0 -26 0 -31 11 -26 23 -23 23 -23 26 -11 31 0 rrcurveto
          endchar
        </CharString>
        <CharString name="righthalfblock">
          0 600 -600 rmoveto
          600 2640 -600 hlineto
          endchar
        </CharString>
        <CharString name="rightoneeighthblock">
          0 1050 -600 rmoveto
          150 2640 -150 hlineto
          endchar
        </CharString>
        <CharString name="rightwardsarrow">
          0 839 755 rmoveto
          -6 1 -8 0 -9 1 -27 2 -26 1 -23 0 rrcurveto
          -685 -200 685 hlineto
          23 0 26 1 27 2 9 1 8 0 6 1 -6 -6 -7 -7 -9 -8 -18 -17 -16 -18 -14 -19 rrcurveto
          -348 -440 rlineto
          271 hlineto
          477 610 -479 610 rlineto
          -269 hlineto
          348 -439 rlineto
          18 -21 18 -19 17 -17 6 -8 6 -6 5 -5 rrcurveto
          endchar
        </CharString>
        <CharString name="s">
          0 603 -50 rmoveto
          124 0 105 30 85 61 85 61 43 83 0 106 0 93 -36 73 -71 54 -71 53 -104 41 -138 28 -83 19 -56 20 -30 20 -29 21 -15 25 0 29 0 29 16 25 32 21 32 21 45 10 60 0 rrcurveto
          49 0 41 -10 32 -19 33 -19 21 -23 11 -27 22 -51 37 -25 51 0 36 0 29 13 23 25 23 26 11 29 0 32 0 60 -35 59 -70 58 -81 66 -105 33 -128 0 -123 0 -102 -33 -80 -65 rrcurveto
          -81 -65 -40 -80 0 -94 0 -182 138 -119 277 -55 143 -25 72 -42 0 -61 0 -27 -16 -23 -31 -21 -32 -21 -50 -11 -69 0 -114 0 -73 36 -32 71 -23 51 -39 25 -56 0 -36 0 -28 -11 -19 -23 rrcurveto
          -19 -23 -10 -27 0 -32 0 -22 5 -20 9 -20 33 -68 53 -56 72 -43 73 -43 92 -21 112 0 rrcurveto
          endchar
        </CharString>
        <CharString name="section">
          0 940 312 rmoveto
          85 96 42 91 0 86 0 112 -41 87 -82 64 -50 44 -94 46 -139 46 -77 25 -55 25 -32 25 -31 25 -16 34 0 43 0 42 17 31 35 20 35 20 43 10 53 0 81 0 75 -11 68 -23 rrcurveto
          12 -3 11 -2 11 0 65 0 37 35 7 69 0 25 -7 22 -15 18 -15 19 -19 12 -24 6 -100 23 -95 12 -90 0 -137 0 -106 -31 -74 -62 -74 -61 -37 -83 0 -104 0 -75 27 -68 54 -61 rrcurveto
          25 -27 rlineto
          34 -36 55 -30 75 -26 rrcurveto
          98 -37 rlineto
          75 -26 62 -28 48 -29 48 -29 24 -45 0 -59 0 -56 -24 -51 -47 -49 74 -24 60 -33 45 -44 rrcurveto
          -389 -628 rmoveto
          148 0 116 29 84 59 83 58 42 86 0 115 0 167 -120 120 -239 74 -93 28 -73 29 -53 32 -53 31 -26 48 0 64 0 57 24 52 48 48 -59 14 -59 34 -60 55 -26 -26 -22 -26 -18 -27 rrcurveto
          -17 -26 -15 -31 -12 -34 -12 -33 -6 -37 0 -39 0 -112 39 -88 78 -63 57 -46 85 -42 111 -38 103 -28 72 -31 43 -34 36 -24 18 -35 0 -45 0 -86 -74 -45 -148 -4 -104 0 -70 9 -37 18 rrcurveto
          -23 12 -25 6 -26 0 -72 0 -36 -35 0 -70 0 -93 130 -47 261 0 rrcurveto
          endchar
        </CharString>
        <CharString name="semicolon">
          0 605 731 rmoveto
          51 0 44 18 35 37 35 36 18 43 0 50 0 50 -18 44 -35 36 -35 37 -44 18 -51 0 -55 0 -45 -18 -35 -37 -36 -36 -18 -44 0 -50 0 -50 18 -43 36 -36 35 -37 45 -18 55 0 rrcurveto
          -232 -1164 rmoveto
          155 16 120 61 83 107 60 77 30 87 0 97 0 111 -29 83 -57 57 -38 38 -45 19 -51 0 -70 0 -50 -25 -30 -51 -19 -27 -10 -30 0 -33 0 -52 19 -45 39 -37 38 -38 19 -36 0 -34 rrcurveto
          0 -30 -16 -27 -31 -26 -31 -25 -44 -16 -57 -7 -70 -9 -35 -38 0 -70 7 -65 40 -32 73 0 rrcurveto
          endchar
        </CharString>
        <CharString name="seven">
          0 453 -50 rmoveto
          48 0 37 23 23 46 rrcurveto
          522 1179 rlineto
          7 22 4 21 0 18 0 46 -16 40 -33 34 -33 34 -42 17 -49 0 rrcurveto
          -698 hlineto
          -32 0 -27 -11 -23 -22 -23 -22 -11 -26 0 -29 0 -30 11 -26 23 -22 23 -23 27 -11 32 0 404 0 204 0 3 -1 -1 0 -1 -1 0 -3 0 -1 -82 -184 -164 -366 -167 -373 -84 -190 -1 -8 rrcurveto
          -1 -7 -1 -7 0 -6 0 -32 11 -27 23 -21 22 -21 30 -10 35 0 rrcurveto
          endchar
        </CharString>
        <CharString name="six">
          0 600 170 rmoveto
          -50 0 -41 15 -34 29 -34 29 -26 37 -17 45 -18 45 -9 45 0 45 0 60 10 45 20 32 35 48 48 29 60 9 29 5 27 2 26 0 68 0 52 -20 36 -40 35 -39 18 -58 0 -77 rrcurveto
          0 -52 -9 -48 -19 -44 -18 -44 -27 -35 -35 -25 -34 -25 -43 -13 -50 0 rrcurveto
          -220 vmoveto
          103 0 86 24 69 48 70 48 52 64 34 80 34 80 17 88 0 97 0 98 -19 81 -37 64 -38 64 -51 47 -65 31 -64 31 -72 15 -79 0 -51 0 -49 -8 -46 -15 -47 -15 -38 -18 -31 -22 rrcurveto
          1 1 1 0 1 0 5 0 2 2 0 5 0 39 16 54 31 66 44 87 66 65 87 43 30 13 33 9 36 5 59 7 48 4 38 0 32 2 27 11 20 22 21 21 10 25 0 29 rrcurveto
          0 27 -10 25 -21 22 -21 23 -27 11 -32 0 rrcurveto
          -39 hlineto
          -158 0 -131 -35 -104 -69 -104 -70 -77 -95 -50 -122 -51 -122 -25 -140 0 -159 0 -158 18 -130 35 -101 35 -101 53 -75 69 -49 70 -49 85 -25 99 0 rrcurveto
          endchar
        </CharString>
        <CharString name="slash">
          0 240 -225 rmoveto
          27 0 24 7 23 14 22 14 16 18 9 21 rrcurveto
          720 1620 rlineto
          6 15 3 14 0 13 0 19 -7 21 -13 21 -22 35 -37 18 -51 0 -27 0 -24 -7 -22 -13 -23 -14 -16 -18 -9 -21 rrcurveto
          -720 -1620 rlineto
          -6 -15 -3 -13 0 -13 0 -20 7 -21 14 -21 22 -36 36 -18 51 0 rrcurveto
          endchar
        </CharString>
        <CharString name="slash_asterisk">
          0 -760 -225 rmoveto
          27 0 24 7 23 14 22 14 16 18 9 21 rrcurveto
          720 1623 rlineto
          6 15 3 14 0 13 0 19 -7 21 -13 21 -22 35 -37 18 -51 0 -27 0 -24 -7 -22 -13 -23 -14 -16 -18 -9 -21 rrcurveto
          -720 -1623 rlineto
          -6 -15 -3 -13 0 -13 0 -20 7 -21 14 -21 22 -36 36 -18 51 0 rrcurveto
          1360 651 rmoveto
          39 0 31 12 24 24 24 24 12 26 0 29 rrcurveto
          197 vlineto
          155 -85 rlineto
          22 -11 23 -6 23 0 39 0 32 12 24 24 24 24 12 26 0 28 0 37 -19 32 -39 27 rrcurveto
          -187 104 187 104 rlineto
          39 27 19 32 0 37 0 28 -12 26 -24 24 -24 24 -32 12 -39 0 -23 0 -23 -6 -22 -11 rrcurveto
          -155 -86 rlineto
          197 vlineto
          0 29 -12 26 -24 24 -24 24 -31 12 -39 0 -39 0 -31 -12 -24 -24 -24 -24 -12 -26 0 -29 rrcurveto
          -197 vlineto
          -154 86 rlineto
          -22 11 -23 6 -24 0 -39 0 -31 -12 -24 -24 -25 -24 -12 -26 0 -28 0 -41 20 -32 39 -23 rrcurveto
          186 -104 -187 -104 rlineto
          -39 -28 -19 -32 0 -37 0 -28 12 -26 25 -24 24 -24 31 -12 39 0 24 0 23 6 22 11 rrcurveto
          154 86 rlineto
          -197 vlineto
          0 -29 12 -26 24 -24 24 -24 31 -12 39 0 rrcurveto
          endchar
        </CharString>
        <CharString name="slash_asterisk_asterisk">
          0 -600 426 rmoveto
          39 0 31 12 24 24 24 24 12 26 0 29 rrcurveto
          197 vlineto
          155 -85 rlineto
          22 -11 23 -6 23 0 39 0 32 12 24 24 24 24 12 26 0 28 0 37 -19 32 -39 27 rrcurveto
          -187 104 187 104 rlineto
          39 27 19 32 0 37 0 28 -12 26 -24 24 -24 24 -32 12 -39 0 -23 0 -23 -6 -22 -11 rrcurveto
          -155 -86 rlineto
          197 vlineto
          0 29 -12 26 -24 24 -24 24 -31 12 -39 0 -39 0 -31 -12 -24 -24 -24 -24 -12 -26 0 -29 rrcurveto
          -197 vlineto
          -154 86 rlineto
          -22 11 -23 6 -24 0 -39 0 -31 -12 -24 -24 -25 -24 -12 -26 0 -28 0 -41 20 -32 39 -23 rrcurveto
          186 -104 -187 -104 rlineto
          -39 -28 -19 -32 0 -37 0 -28 12 -26 25 -24 24 -24 31 -12 39 0 24 0 23 6 22 11 rrcurveto
          154 86 rlineto
          -197 vlineto
          0 -29 12 -26 24 -24 24 -24 31 -12 39 0 rrcurveto
          1040 hmoveto
          39 0 31 12 24 24 24 24 12 26 0 29 rrcurveto
          197 vlineto
          155 -85 rlineto
          22 -11 23 -6 23 0 39 0 32 12 24 24 24 24 12 26 0 28 0 37 -19 32 -39 27 rrcurveto
          -187 104 187 104 rlineto
          39 27 19 32 0 37 0 28 -12 26 -24 24 -24 24 -32 12 -39 0 -23 0 -23 -6 -22 -11 rrcurveto
          -155 -86 rlineto
          197 vlineto
          0 29 -12 26 -24 24 -24 24 -31 12 -39 0 -39 0 -31 -12 -24 -24 -24 -24 -12 -26 0 -29 rrcurveto
          -197 vlineto
          -154 86 rlineto
          -22 11 -23 6 -24 0 -39 0 -31 -12 -24 -24 -25 -24 -12 -26 0 -28 0 -41 20 -32 39 -23 rrcurveto
          186 -104 -187 -104 rlineto
          -39 -28 -19 -32 0 -37 0 -28 12 -26 25 -24 24 -24 31 -12 39 0 24 0 23 6 22 11 rrcurveto
          154 86 rlineto
          -197 vlineto
          0 -29 12 -26 24 -24 24 -24 31 -12 39 0 rrcurveto
          -2400 -651 rmoveto
          27 0 24 7 23 14 22 14 16 18 9 21 rrcurveto
          720 1623 rlineto
          6 15 3 14 0 13 0 19 -7 21 -13 21 -22 35 -37 18 -51 0 -27 0 -24 -7 -22 -13 -23 -14 -16 -18 -9 -21 rrcurveto
          -720 -1623 rlineto
          -6 -15 -3 -13 0 -13 0 -20 7 -21 14 -21 22 -36 36 -18 51 0 rrcurveto
          endchar
        </CharString>
        <CharString name="slash_greater">
          0 -748 -355 rmoveto
          27 0 24 7 23 14 22 14 16 18 9 21 rrcurveto
          565 1270 rlineto
          486 -257 243 -129 0 -3 0 -5 -1 -2 -1 -1 rrcurveto
          -475 -254 rlineto
          -44 -27 -22 -33 0 -41 0 -28 12 -26 25 -24 25 -25 31 -12 38 0 21 0 20 5 21 9 rrcurveto
          694 364 rlineto
          43 25 22 34 0 41 0 19 -5 18 -11 19 -11 19 -17 15 -22 11 rrcurveto
          -976 505 117 263 rlineto
          6 15 3 14 0 13 0 19 -7 21 -13 21 -22 35 -37 18 -51 0 -27 0 -24 -7 -22 -13 -23 -14 -16 -18 -9 -21 rrcurveto
          -778 -1750 rlineto
          -6 -15 -3 -13 0 -13 0 -20 7 -21 14 -21 22 -36 36 -18 51 0 rrcurveto
          endchar
        </CharString>
        <CharString name="slash_slash">
          0 -810 -225 rmoveto
          27 0 24 7 23 14 22 14 16 18 9 21 rrcurveto
          720 1620 rlineto
          6 15 3 14 0 13 0 19 -7 21 -13 21 -22 35 -37 18 -51 0 -27 0 -24 -7 -22 -13 -23 -14 -16 -18 -9 -21 rrcurveto
          -720 -1620 rlineto
          -6 -15 -3 -13 0 -13 0 -20 7 -21 14 -21 22 -36 36 -18 51 0 rrcurveto
          900 hmoveto
          27 0 24 7 23 14 22 14 16 18 9 21 rrcurveto
          720 1620 rlineto
          6 15 3 14 0 13 0 19 -7 21 -13 21 -22 35 -37 18 -51 0 -27 0 -24 -7 -22 -13 -23 -14 -16 -18 -9 -21 rrcurveto
          -720 -1620 rlineto
          -6 -15 -3 -13 0 -13 0 -20 7 -21 14 -21 22 -36 36 -18 51 0 rrcurveto
          endchar
        </CharString>
        <CharString name="slash_slash_slash">
          0 -1790 -225 rmoveto
          27 0 24 7 23 14 22 14 16 18 9 21 rrcurveto
          720 1620 rlineto
          6 15 3 14 0 13 0 19 -7 21 -13 21 -22 35 -37 18 -51 0 -27 0 -24 -7 -22 -13 -23 -14 -16 -18 -9 -21 rrcurveto
          -720 -1620 rlineto
          -6 -15 -3 -13 0 -13 0 -20 7 -21 14 -21 22 -36 36 -18 51 0 rrcurveto
          1760 hmoveto
          27 0 24 7 23 14 22 14 16 18 9 21 rrcurveto
          720 1620 rlineto
          6 15 3 14 0 13 0 19 -7 21 -13 21 -22 35 -37 18 -51 0 -27 0 -24 -7 -22 -13 -23 -14 -16 -18 -9 -21 rrcurveto
          -720 -1620 rlineto
          -6 -15 -3 -13 0 -13 0 -20 7 -21 14 -21 22 -36 36 -18 51 0 rrcurveto
          -880 hmoveto
          27 0 24 7 23 14 22 14 16 18 9 21 rrcurveto
          720 1620 rlineto
          6 15 3 14 0 13 0 19 -7 21 -13 21 -22 35 -37 18 -51 0 -27 0 -24 -7 -22 -13 -23 -14 -16 -18 -9 -21 rrcurveto
          -720 -1620 rlineto
          -6 -15 -3 -13 0 -13 0 -20 7 -21 14 -21 22 -36 36 -18 51 0 rrcurveto
          endchar
        </CharString>
        <CharString name="southeastarrow">
          0 933 470 rmoveto
          -1 2 -1 1 -1 1 -20 23 -20 20 -19 19 rrcurveto
          -729 736 -154 -158 719 -725 rlineto
          19 -17 19 -18 21 -17 6 -6 5 -5 5 -4 -4 0 -6 1 -5 0 -31 2 -32 1 -34 0 rrcurveto
          -415 -196 880 870 -210 -418 hlineto
          0 -34 2 -33 4 -31 rrcurveto
          endchar
        </CharString>
        <CharString name="southwestarrow">
          0 418 322 rmoveto
          5 4 6 5 7 6 21 17 19 18 17 18 rrcurveto
          719 724 -152 154 -729 -736 rlineto
          -19 -19 -19 -20 -19 -23 -2 -2 -2 -2 -2 -3 1 6 0 7 1 7 3 32 2 33 0 34 rrcurveto
          418 -210 -870 880 196 -415 vlineto
          -34 0 -32 -1 -30 -2 rrcurveto
          endchar
        </CharString>
        <CharString name="space">
          0 endchar
        </CharString>
        <CharString name="t">
          0 862 -50 rmoveto
          167 0 84 43 0 85 0 29 -10 24 -20 19 -20 20 -27 10 -33 0 -14 0 -14 -2 -13 -5 -14 -5 -18 -2 -22 0 -186 4 -94 85 -4 166 rrcurveto
          378 vlineto
          0 17 8 9 15 0 rrcurveto
          334 hlineto
          35 0 28 11 21 22 22 21 11 26 0 30 0 31 -11 27 -23 22 -22 23 -28 11 -33 0 rrcurveto
          -334 hlineto
          -15 0 -8 8 0 16 rrcurveto
          226 vlineto
          0 34 -11 28 -23 20 -23 20 -27 10 -31 0 -32 0 -27 -11 -22 -21 -23 -22 -11 -27 0 -31 rrcurveto
          -226 vlineto
          0 -16 -6 -8 -13 0 rrcurveto
          -171 hlineto
          -33 0 -28 -11 -22 -23 -23 -22 -11 -27 0 -31 0 -30 11 -26 23 -22 22 -21 28 -11 33 0 rrcurveto
          171 hlineto
          13 0 6 -9 0 -17 rrcurveto
          -420 vlineto
          6 -286 156 -143 306 0 rrcurveto
          endchar
        </CharString>
        <CharString name="tag_todo">
          0 -570 175 rmoveto
          96 0 69 59 42 119 32 93 16 116 0 138 0 140 -16 116 -33 92 -42 118 -69 59 -95 0 -95 0 -69 -58 -42 -117 -33 -91 -16 -117 0 -142 0 -142 16 -116 33 -92 41 -117 68 -58 97 0 rrcurveto
          -1425 30 rmoveto
          151 0 108 34 64 68 64 67 32 115 0 163 0 162 -10 116 -19 69 -24 84 -53 56 -81 28 -37 13 -40 7 -44 3 -44 3 -48 1 -51 0 -12 0 -6 -6 0 -11 rrcurveto
          -954 vlineto
          0 -12 6 -6 12 0 rrcurveto
          -1083 -30 rmoveto
          96 0 69 59 42 119 32 93 16 116 0 138 0 140 -16 116 -33 92 -42 118 -69 59 -95 0 -95 0 -69 -58 -42 -117 -33 -91 -16 -117 0 -142 0 -142 16 -116 33 -92 41 -117 68 -58 97 0 rrcurveto
          2540 -230 rmoveto
          -153 0 -117 59 -79 119 -91 134 -45 193 0 250 0 61 4 65 8 69 7 69 14 67 20 66 20 66 28 60 37 54 36 53 47 43 57 33 57 33 69 16 82 0 152 0 116 -59 80 -119 rrcurveto
          91 -136 45 -192 0 -249 0 -61 -4 -64 -7 -69 -7 -69 -14 -68 -19 -66 -20 -67 -28 -60 -36 -53 -36 -54 -46 -43 -57 -32 -57 -33 -71 -16 -83 0 rrcurveto
          -1425 30 rmoveto
          -161 hlineto
          -31 0 -28 12 -24 24 -24 24 -12 28 0 31 rrcurveto
          1212 vlineto
          0 31 12 27 24 25 24 24 28 12 31 0 rrcurveto
          200 hlineto
          201 0 152 -51 103 -102 103 -102 51 -161 0 -221 rrcurveto
          -136 vlineto
          0 -161 -23 -130 -47 -99 -47 -99 -72 -73 -96 -46 -96 -46 -121 -23 -147 0 rrcurveto
          -2285 -30 rmoveto
          -30 0 -27 12 -23 24 -23 23 -12 27 0 29 0 753 -1 377 -2 2 -2 2 -87 1 -173 0 -30 0 -27 12 -23 23 -23 23 -12 26 0 30 0 30 12 27 23 24 23 23 27 12 30 0 rrcurveto
          760 hlineto
          30 0 27 -12 23 -23 23 -24 12 -27 0 -30 0 -30 -12 -26 -23 -23 -23 -23 -27 -12 -30 0 -171 0 -87 -1 -3 -2 -3 -3 -1 -5 0 -7 rrcurveto
          -1117 vlineto
          0 -29 -12 -27 -23 -23 -23 -24 -27 -12 -30 0 rrcurveto
          1170 hmoveto
          -153 0 -117 59 -79 119 -91 134 -45 193 0 250 0 61 4 65 8 69 7 69 14 67 20 66 20 66 28 60 37 54 36 53 47 43 57 33 57 33 69 16 82 0 152 0 116 -59 80 -119 rrcurveto
          91 -136 45 -192 0 -249 0 -61 -4 -64 -7 -69 -7 -69 -14 -68 -19 -66 -20 -67 -28 -60 -36 -53 -36 -54 -46 -43 -57 -32 -57 -33 -71 -16 -83 0 rrcurveto
          3281 -215 rmoveto
          177 97 127 103 77 108 133 191 66 217 0 243 rrcurveto
          46 vlineto
          0 228 -66 209 -133 191 -99 141 -127 103 -155 65 rrcurveto
          -5487 -2 rlineto
          -26 0 -22 -9 -18 -18 -19 -19 -9 -22 0 -25 rrcurveto
          -1754 vlineto
          0 -25 9 -22 19 -18 18 -19 22 -9 26 0 rrcurveto
          endchar
        </CharString>
        <CharString name="three">
          0 542 -50 rmoveto
          160 0 123 44 87 88 88 96 44 119 0 143 0 85 -34 75 -67 65 -33 31 -39 25 -43 20 -18 8 -9 6 0 6 0 6 7 8 13 9 105 70 53 101 0 132 0 107 -41 88 -83 67 rrcurveto
          -82 67 -117 34 -152 0 -218 0 -109 -46 0 -91 0 -77 39 -38 78 0 14 0 14 3 16 7 33 15 51 7 68 0 159 0 80 -57 0 -115 0 -63 -25 -51 -50 -39 -57 -47 -87 -23 -116 0 rrcurveto
          -28 0 -23 -9 -19 -18 -19 -19 -10 -25 0 -31 0 -29 10 -24 19 -19 19 -19 23 -10 28 0 273 -6 136 -68 0 -128 -4 -171 -89 -87 -175 -2 -116 0 -75 5 -32 11 -20 6 -23 3 -24 0 rrcurveto
          -10 0 -14 -3 -18 -6 -18 -6 -17 -12 -14 -17 -15 -17 -7 -25 0 -32 0 -27 10 -24 20 -20 39 -37 127 -19 214 0 rrcurveto
          endchar
        </CharString>
        <CharString name="two">
          0 967 -20 rmoveto
          32 0 27 11 23 22 23 23 12 25 0 29 0 28 -11 26 -22 22 -22 23 -27 11 -33 0 rrcurveto
          -521 1 rlineto
          3 0 2 -1 0 0 0 1 0 0 -1 -1 rrcurveto
          341 330 rlineto
          80 76 61 73 40 71 41 70 20 83 0 97 0 96 -21 82 -41 67 -42 67 -56 51 -71 35 -70 35 -78 17 -85 0 -143 0 -126 -47 -107 -95 -21 -21 -11 -27 0 -33 0 -37 11 -29 21 -21 rrcurveto
          21 -21 27 -10 34 0 25 0 21 9 18 18 74 61 74 30 74 0 72 0 58 -22 46 -44 45 -44 23 -56 0 -69 0 -84 -27 -69 -53 -54 rrcurveto
          -565 -558 rlineto
          -26 -29 -13 -33 0 -36 0 -40 15 -35 30 -29 30 -30 37 -15 43 0 rrcurveto
          endchar
        </CharString>
        <CharString name="u">
          0 934 -50 rmoveto
          32 0 27 12 23 23 23 23 12 27 0 31 rrcurveto
          920 vlineto
          0 33 -11 28 -22 21 -21 21 -29 11 -34 0 -34 0 -27 -11 -21 -21 -21 -22 -11 -27 0 -33 rrcurveto
          -547 vlineto
          0 -83 -33 -65 -67 -47 -55 -36 -52 -18 -48 -1 -122 0 -63 76 -2 152 rrcurveto
          569 vlineto
          0 33 -11 28 -21 21 -21 21 -29 11 -35 0 -33 0 -27 -11 -21 -21 -21 -22 -10 -27 0 -33 rrcurveto
          -580 vlineto
          0 -161 33 -116 67 -72 64 -71 97 -35 130 0 99 1 95 49 93 97 2 3 1 1 -3 0 -7 0 -4 -1 0 -3 rrcurveto
          -32 vlineto
          0 -31 12 -27 23 -23 23 -23 27 -12 33 0 rrcurveto
          endchar
        </CharString>
        <CharString name="underscore">
          0 920 -290 rmoveto
          33 0 27 11 22 22 22 22 11 26 0 29 0 29 -11 26 -22 22 -22 22 -27 11 -33 0 rrcurveto
          -640 hlineto
          -33 0 -27 -11 -22 -22 -22 -22 -11 -26 0 -29 0 -29 11 -26 22 -22 22 -22 27 -11 33 0 rrcurveto
          endchar
        </CharString>
        <CharString name="updownarrow">
          0 711 -11 rmoveto
          0 6 0 7 1 8 2 31 1 30 0 29 rrcurveto
          1260 vlineto
          0 29 -1 30 -2 31 -1 10 0 8 -1 7 3 -2 2 -3 3 -2 18 -19 24 -23 30 -26 rrcurveto
          415 -352 rlineto
          268 vlineto
          -605 513 -605 -515 rlineto
          -268 vlineto
          413 352 rlineto
          37 32 28 25 18 18 -1 -7 0 -7 -1 -9 -3 -30 -1 -30 0 -30 rrcurveto
          -1260 vlineto
          0 -30 1 -30 3 -30 1 -10 1 -8 0 -7 rrcurveto
          -7 7 rlineto
          -19 19 -25 23 -30 26 rrcurveto
          -415 352 rlineto
          -268 vlineto
          605 -513 605 515 rlineto
          268 vlineto
          -413 -352 rlineto
          -36 -31 -27 -24 -18 -18 rrcurveto
          endchar
        </CharString>
        <CharString name="upperhalfblock">
          0 720 vmoveto
          1200 1320 -1200 hlineto
          endchar
        </CharString>
        <CharString name="upperoneeighthblock">
          0 1710 vmoveto
          1200 330 -1200 hlineto
          endchar
        </CharString>
        <CharString name="upwardsarrow">
          0 710 1155 rmoveto
          3 -2 2 -3 3 -2 18 -19 24 -23 30 -26 rrcurveto
          415 -352 rlineto
          268 vlineto
          -603 513 -607 -515 rlineto
          -268 vlineto
          413 352 rlineto
          37 32 28 25 18 18 -1 -7 0 -7 -1 -9 -3 -30 -1 -30 0 -30 rrcurveto
          -1060 230 1060 vlineto
          0 29 -1 30 -2 31 -1 10 0 8 -1 7 rrcurveto
          endchar
        </CharString>
        <CharString name="v">
          0 605 -50 rmoveto
          73 2 50 35 27 68 222 610 111 311 0 11 0 28 -11 26 -22 24 -23 23 -28 12 -34 0 -26 0 -23 -7 -21 -14 -21 -14 -14 -18 -8 -23 rrcurveto
          -259 -739 rlineto
          0 1 1 0 1 0 1 0 1 0 0 -1 rrcurveto
          -258 739 rlineto
          -8 23 -14 18 -21 14 -21 14 -23 7 -26 0 -34 0 -28 -12 -23 -23 -22 -24 -11 -26 0 -28 0 -12 2 -12 5 -13 rrcurveto
          327 -894 rlineto
          11 -32 20 -26 28 -19 28 -19 33 -10 38 0 rrcurveto
          endchar
        </CharString>
        <CharString name="w">
          0 838 -50 rmoveto
          45 0 35 14 25 28 26 28 14 33 4 37 56 597 28 301 0 6 0 71 -35 35 -70 0 -76 0 -40 -36 -5 -71 rrcurveto
          -43 -623 rlineto
          -1 -20 3 -10 9 0 5 0 0 9 -6 18 rrcurveto
          -99 346 rlineto
          -16 59 -38 29 -61 0 -62 0 -37 -29 -14 -59 rrcurveto
          -81 -337 rlineto
          -4 -18 0 -9 6 0 6 0 3 10 -2 20 rrcurveto
          -51 615 rlineto
          -7 71 -41 35 -75 0 -75 0 -37 -37 0 -73 0 -7 32 -302 64 -596 5 -37 13 -31 24 -27 23 -27 32 -13 39 0 83 0 52 35 18 71 rrcurveto
          102 390 rlineto
          1 6 -5 3 -10 0 -9 0 -4 -3 2 -5 rrcurveto
          103 -389 rlineto
          9 -35 19 -26 28 -19 29 -19 30 -9 31 0 rrcurveto
          endchar
        </CharString>
        <CharString name="x">
          0 945 -50 rmoveto
          31 0 27 11 23 21 23 22 12 26 0 31 0 23 -8 22 -15 23 rrcurveto
          -261 360 rlineto
          -6 8 -3 14 0 18 0 13 3 10 7 9 rrcurveto
          260 358 rlineto
          15 22 8 24 0 25 0 28 -12 25 -23 23 -23 23 -27 11 -31 0 -49 0 -36 -16 -22 -33 rrcurveto
          -230 -344 rlineto
          -2 -3 -3 -2 -4 0 -3 0 -3 2 -2 3 rrcurveto
          -230 344 rlineto
          -21 33 -36 16 -50 0 -30 0 -27 -11 -24 -23 -23 -23 -12 -25 0 -28 0 -25 8 -23 16 -23 rrcurveto
          259 -358 rlineto
          7 -9 3 -12 0 -15 0 -15 -3 -12 -5 -7 rrcurveto
          -262 -362 rlineto
          -15 -23 -8 -22 0 -23 0 -31 12 -26 23 -22 23 -21 27 -11 31 0 48 0 36 16 23 33 rrcurveto
          230 341 rlineto
          4 6 3 3 1 0 2 0 3 -3 4 -6 rrcurveto
          230 -341 rlineto
          22 -33 36 -16 49 0 rrcurveto
          endchar
        </CharString>
        <CharString name="x_center">
          0 915 275 rmoveto
          33 0 26 12 21 23 20 23 10 26 0 29 0 31 -11 27 -22 23 rrcurveto
          -231 231 231 230 rlineto
          22 24 11 27 0 30 0 31 -11 27 -22 23 -23 22 -27 11 -31 0 -30 0 -27 -11 -24 -22 rrcurveto
          -230 -231 -231 231 rlineto
          -23 22 -27 11 -30 0 -31 0 -27 -11 -22 -22 -23 -23 -11 -27 0 -31 0 -30 11 -27 22 -24 rrcurveto
          231 -230 -231 -231 rlineto
          -22 -23 -11 -27 0 -30 0 -31 11 -27 23 -22 22 -23 27 -11 31 0 30 0 27 11 23 22 rrcurveto
          231 231 230 -231 rlineto
          24 -22 27 -11 31 0 rrcurveto
          endchar
        </CharString>
        <CharString name="xml_comment_begin">
          0 -2981 502 rmoveto
          -2 0 -16 16 -31 31 -31 31 -16 16 0 1 0 1 16 16 31 31 31 31 16 16 2 0 2 0 17 -15 31 -31 31 -31 15 -17 0 -1 0 -2 -15 -16 -31 -31 -31 -31 -17 -15 -2 0 rrcurveto
          1185 -556 rmoveto
          57 0 48 19 37 39 37 39 18 43 0 48 0 49 -18 44 -37 39 -37 39 -48 19 -57 0 -60 0 -49 -19 -37 -39 -38 -39 -19 -44 0 -49 0 -49 19 -43 38 -38 37 -39 49 -19 60 0 rrcurveto
          -4 499 rmoveto
          31 0 28 11 24 22 24 21 13 24 1 25 rrcurveto
          25 806 rlineto
          0 31 -14 30 -29 28 -29 28 -35 14 -39 0 -40 0 -34 -14 -29 -28 -29 -29 -14 -30 0 -31 rrcurveto
          25 -805 rlineto
          1 -25 13 -24 24 -21 24 -22 28 -11 31 0 rrcurveto
          2740 41 rmoveto
          31 0 27 11 23 23 22 22 11 27 0 31 0 31 -11 27 -22 23 -23 22 -27 11 -31 0 rrcurveto
          -2464 -228 hlineto
          -1259 -459 rmoveto
          32 0 27 11 22 22 22 22 11 27 0 32 0 28 -11 26 -21 25 -77 77 -39 40 0 2 0 2 38 41 77 79 7 6 9 6 13 5 13 5 10 3 9 0 rrcurveto
          565 228 -564 hlineto
          -9 0 -11 3 -12 5 -13 5 -9 5 -7 7 -77 77 -39 40 0 2 0 1 39 40 77 77 21 25 11 26 0 29 0 33 -12 28 -23 22 -23 21 -27 11 -29 0 -28 0 -26 -11 -25 -21 rrcurveto
          -458 -460 rlineto
          -23 -23 -11 -27 0 -31 0 -29 11 -27 22 -25 rrcurveto
          459 -459 rlineto
          25 -21 26 -10 28 0 rrcurveto
          endchar
        </CharString>
        <CharString name="xml_comment_empty">
          0 -2981 503 rmoveto
          -2 0 -31 30 -59 60 -2 1 -1 2 0 1 0 1 30 30 60 61 2 1 2 1 1 0 2 0 31 -30 60 -61 1 -1 1 -1 0 -1 0 -2 -30 -31 -60 -59 -2 -1 -2 -1 -1 0 rrcurveto
          1185 -557 rmoveto
          57 0 48 19 37 39 37 39 18 43 0 48 0 49 -18 44 -37 39 -37 39 -48 19 -57 0 -60 0 -49 -19 -37 -39 -38 -39 -19 -44 0 -49 0 -49 19 -43 38 -38 37 -39 49 -19 60 0 rrcurveto
          -4 499 rmoveto
          31 0 28 11 24 22 24 21 13 24 1 25 rrcurveto
          25 806 rlineto
          0 31 -14 30 -29 28 -29 28 -35 14 -39 0 -40 0 -34 -14 -29 -28 -29 -29 -14 -30 0 -31 rrcurveto
          25 -805 rlineto
          1 -25 13 -24 24 -21 24 -22 28 -11 31 0 rrcurveto
          3205 40 rmoveto
          -27 36 -13 39 0 40 0 23 2 19 4 15 4 15 9 19 14 24 rrcurveto
          -2923 -230 hlineto
          -1258 -459 rmoveto
          32 0 27 11 23 23 22 22 11 27 0 32 0 28 -11 27 -22 25 -77 77 -38 39 0 2 0 2 38 40 77 79 7 7 9 6 13 5 12 5 10 2 9 0 rrcurveto
          566 230 -565 hlineto
          -9 0 -11 3 -12 5 -12 5 -10 5 -7 7 -77 77 -38 39 0 2 0 1 38 39 77 77 22 25 11 27 0 29 0 34 -12 28 -23 22 -23 21 -27 11 -30 0 -28 0 -27 -11 -25 -22 rrcurveto
          -458 -460 rlineto
          -23 -23 -11 -27 0 -31 0 -29 11 -27 23 -26 rrcurveto
          458 -458 rlineto
          25 -21 27 -11 28 0 rrcurveto
          endchar
        </CharString>
        <CharString name="y">
          0 223 -500 rmoveto
          125 0 108 41 90 83 72 68 66 122 59 178 227 652 113 332 0 11 0 28 -11 26 -23 24 -23 23 -28 12 -33 0 -56 0 -37 -25 -20 -51 rrcurveto
          -254 -718 rlineto
          0 1 1 0 1 0 2 0 1 0 0 -1 rrcurveto
          -254 718 rlineto
          -19 51 -38 25 -56 0 -33 0 -28 -12 -23 -23 -23 -24 -11 -26 0 -28 0 -12 118 -332 236 -651 3 -9 2 -11 0 -13 0 -45 -27 -56 -53 -68 -44 -54 -59 -27 -74 0 -75 0 -37 -36 0 -71 rrcurveto
          0 -68 38 -34 77 0 rrcurveto
          endchar
        </CharString>
        <CharString name="z">
          0 949 -20 rmoveto
          33 0 27 11 22 22 22 22 11 26 0 29 0 30 -11 26 -22 21 -22 22 -28 11 -32 0 rrcurveto
          -454 hlineto
          -4 0 -4 2 -4 4 -4 4 -2 6 0 7 0 6 2 6 4 5 rrcurveto
          544 582 rlineto
          25 29 12 32 0 35 0 40 -15 36 -30 30 -29 30 -37 15 -43 0 rrcurveto
          -659 hlineto
          -32 0 -27 -11 -22 -22 -23 -22 -11 -26 0 -29 0 -29 11 -26 23 -22 22 -22 27 -11 32 0 rrcurveto
          453 hlineto
          5 0 4 -2 3 -4 4 -5 2 -6 0 -7 0 -6 -2 -5 -4 -5 rrcurveto
          -544 -584 rlineto
          -24 -29 -12 -32 0 -35 0 -40 15 -35 30 -29 30 -30 37 -15 43 0 rrcurveto
          endchar
        </CharString>
        <CharString name="zero">
          0 357 608 rmoveto
          -1 10 -1 31 0 51 0 144 17 119 34 95 42 115 65 57 87 0 70 0 56 -38 40 -76 14 -25 10 -23 7 -19 rrcurveto
          -197 -879 rmoveto
          -87 0 -64 57 -42 114 rrcurveto
          437 437 rlineto
          1 -11 0 -26 0 -41 0 -45 -2 -47 -5 -50 -5 -50 -8 -49 -11 -47 -11 -48 -16 -42 -20 -36 -20 -37 -23 -28 -27 -21 -27 -20 -32 -10 -38 0 rrcurveto
          -220 vmoveto
          83 0 69 17 57 33 57 33 46 44 35 54 34 53 27 60 19 64 18 65 13 66 7 68 7 68 3 65 0 60 0 62 -4 64 -7 68 -7 67 -13 66 -18 65 -19 64 -27 59 -34 54 rrcurveto
          -35 53 -46 44 -56 34 -57 33 -69 17 -82 0 -151 0 -115 -60 -78 -121 -88 -134 -44 -190 0 -245 0 -361 89 -234 179 -105 56 -33 69 -17 82 0 rrcurveto
          endchar
        </CharString>
</ttFont>
